<svg width="35" height="35" viewBox="0 0 35 35" fill="none" xmlns="http://www.w3.org/2000/svg">
<g clip-path="url(#clip0)">
<path d="M2.1875 31.7185V3.28102C2.1875 2.67693 2.67716 2.18727 3.28125 2.18727H19.6875V6.56227C19.6875 7.77039 20.6669 8.74977 21.875 8.74977H26.25V12.031H28.4375V7.65602C28.4392 7.36529 28.325 7.08584 28.1203 6.87946L21.5578 0.316961C21.3514 0.112224 21.072 -0.00186731 20.7812 -0.000226689H3.28125C1.46904 -0.000226689 0 1.46888 0 3.28102V31.7185C0 33.5307 1.46904 34.9998 3.28125 34.9998H10.9375V32.8123H3.28125C2.67723 32.8123 2.1875 32.3226 2.1875 31.7185Z" fill="#FFFCFC"/>
<path d="M35 19.6875V17.5H29.5312C28.9272 17.5 28.4375 17.9897 28.4375 18.5938V28.4375H30.625V24.0625H35V21.875H30.625V19.6875H35Z" fill="#FFFCFC"/>
<path d="M27.3438 17.5H25.1562V28.4375H27.3438V17.5Z" fill="#FFFCFC"/>
<path d="M24.0625 19.6875C24.0625 18.4794 23.0831 17.5 21.875 17.5H17.5C16.2919 17.5 15.3125 18.4794 15.3125 19.6875V26.25C15.3125 27.4581 16.2919 28.4375 17.5 28.4375H21.875C23.0831 28.4375 24.0625 27.4581 24.0625 26.25V24.0625C24.0625 22.8544 23.0831 21.875 21.875 21.875H19.6875V24.0625H21.875V26.25H17.5V19.6875H24.0625Z" fill="#FFFCFC"/>
</g>
<defs>
<clipPath id="clip0">
<rect width="35" height="35" fill="white"/>
</clipPath>
</defs>
</svg>
