<svg width="377" height="380" viewBox="0 0 377 380" fill="none" xmlns="http://www.w3.org/2000/svg">
<g filter="url(#filter0_d)">
<circle cx="186" cy="188" r="150" fill="url(#paint0_linear)"/>
</g>
<g filter="url(#filter1_d)">
<path d="M191.202 148.144C195.812 172.284 179.98 195.592 155.84 200.202C131.699 204.812 108.392 188.98 103.782 164.84C99.1716 140.699 115.004 117.392 139.144 112.782C163.284 108.172 186.592 124.004 191.202 148.144Z" stroke="#3E3E3E" stroke-width="11"/>
</g>
<g filter="url(#filter2_d)">
<rect x="177" y="184.21" width="15" height="107.961" rx="7.5" transform="rotate(-61.7195 177 184.21)" fill="#353434"/>
</g>
<g filter="url(#filter3_d)">
<path d="M150.016 281.032C150.432 281.032 150.864 281.12 151.312 281.296C151.76 281.472 152.192 281.704 152.608 281.992H152.584C153 282.28 153.32 282.672 153.544 283.168C153.768 283.664 153.88 284.232 153.88 284.872V288.16C153.88 289.456 153.448 290.424 152.584 291.064C152.168 291.368 151.736 291.608 151.288 291.784C150.856 291.944 150.432 292.024 150.016 292.024H144.784C144.368 292.024 143.936 291.944 143.488 291.784C143.056 291.608 142.632 291.368 142.216 291.064C141.352 290.424 140.92 289.456 140.92 288.16V286.576C140.92 285.824 141.392 285.448 142.336 285.448C143.296 285.448 143.776 285.824 143.776 286.576V287.968C143.776 288.384 143.896 288.76 144.136 289.096C144.376 289.432 144.792 289.6 145.384 289.6H149.416C150.008 289.6 150.424 289.432 150.664 289.096C150.904 288.76 151.024 288.384 151.024 287.968V285.064C151.024 284.664 150.904 284.296 150.664 283.96C150.424 283.608 150.008 283.432 149.416 283.432H144.784C143.952 283.432 143.096 283.128 142.216 282.52C141.352 281.848 140.92 280.88 140.92 279.616V276.76C140.92 276.12 141.032 275.56 141.256 275.08C141.48 274.584 141.8 274.184 142.216 273.88H142.192C142.608 273.608 143.04 273.384 143.488 273.208C143.936 273.032 144.368 272.944 144.784 272.944H150.016C150.432 272.944 150.864 273.032 151.312 273.208C151.76 273.384 152.192 273.608 152.608 273.88H152.584C153 274.184 153.32 274.584 153.544 275.08C153.768 275.56 153.88 276.12 153.88 276.76V278.176C153.88 278.928 153.4 279.304 152.44 279.304C151.496 279.304 151.024 278.928 151.024 278.176V276.976C151.024 276.576 150.904 276.208 150.664 275.872C150.424 275.536 150.008 275.368 149.416 275.368H145.384C144.792 275.368 144.376 275.536 144.136 275.872C143.896 276.208 143.776 276.576 143.776 276.976V279.424C143.776 279.84 143.896 280.216 144.136 280.552C144.376 280.872 144.792 281.032 145.384 281.032H150.016ZM159.19 292.024C158.598 292.024 158.198 291.872 157.99 291.568C157.782 291.264 157.678 290.928 157.678 290.56V274.384C157.678 274.016 157.782 273.688 157.99 273.4C158.198 273.096 158.598 272.944 159.19 272.944H167.542C168.134 272.944 168.446 273.344 168.478 274.144C168.51 274.96 168.198 275.368 167.542 275.368H160.51V289.6H167.974C168.566 289.6 168.87 289.992 168.886 290.776C168.918 291.608 168.614 292.024 167.974 292.024H159.19ZM166.654 282.088C166.654 282.648 166.454 283.12 166.054 283.504C165.67 283.888 165.198 284.08 164.638 284.08C164.094 284.08 163.63 283.888 163.246 283.504C162.862 283.12 162.67 282.648 162.67 282.088C162.67 281.528 162.862 281.056 163.246 280.672C163.63 280.288 164.094 280.096 164.638 280.096C165.198 280.096 165.67 280.288 166.054 280.672C166.454 281.056 166.654 281.528 166.654 282.088ZM177.795 275.296L172.539 291.424V291.4C172.443 291.64 172.307 291.84 172.131 292C171.971 292.144 171.771 292.216 171.531 292.216C171.403 292.216 171.275 292.2 171.146 292.168C171.035 292.152 170.915 292.128 170.787 292.096H170.811C169.899 291.808 169.562 291.296 169.803 290.56L175.275 273.928C175.355 273.672 175.491 273.456 175.683 273.28C175.891 273.104 176.131 273 176.403 272.968C176.675 272.92 176.939 272.888 177.195 272.872C177.451 272.84 177.651 272.824 177.795 272.824C177.939 272.824 178.139 272.84 178.395 272.872C178.651 272.888 178.915 272.912 179.187 272.944C179.411 272.976 179.627 273.096 179.835 273.304C180.059 273.512 180.227 273.72 180.339 273.928C181.235 276.68 182.139 279.456 183.051 282.256C183.979 285.04 184.891 287.808 185.787 290.56C186.011 291.296 185.675 291.808 184.779 292.096C184.651 292.128 184.531 292.152 184.419 292.168C184.323 292.2 184.211 292.216 184.083 292.216C183.859 292.216 183.651 292.144 183.459 292C183.283 291.84 183.155 291.64 183.075 291.4V291.424L177.795 275.296ZM179.595 286.24C179.595 286.752 179.411 287.192 179.043 287.56C178.691 287.912 178.259 288.088 177.747 288.088C177.235 288.088 176.803 287.912 176.451 287.56C176.099 287.192 175.923 286.752 175.923 286.24C175.923 285.728 176.099 285.296 176.451 284.944C176.803 284.576 177.235 284.392 177.747 284.392C178.259 284.392 178.691 284.576 179.043 284.944C179.411 285.296 179.595 285.728 179.595 286.24ZM194.728 284.104H192.88C192.608 284.104 192.392 284 192.232 283.792C192.088 283.568 192.016 283.272 192.016 282.904C192.016 282.088 192.352 281.68 193.024 281.68H195.832C196.424 281.68 196.84 281.512 197.08 281.176C197.32 280.84 197.44 280.472 197.44 280.072V276.976C197.44 276.576 197.32 276.208 197.08 275.872C196.84 275.536 196.424 275.368 195.832 275.368H190.768V291.016C190.768 291.784 190.296 292.168 189.352 292.168C188.408 292.168 187.936 291.784 187.936 291.016V274.384C187.936 273.808 188.08 273.424 188.368 273.232C188.672 273.04 189.032 272.944 189.448 272.944H196.432C196.848 272.944 197.28 273.032 197.728 273.208C198.176 273.384 198.608 273.608 199.024 273.88H199C199.416 274.184 199.736 274.584 199.96 275.08C200.184 275.56 200.296 276.12 200.296 276.76V280.264C200.296 281.56 199.864 282.528 199 283.168C198.824 283.296 198.632 283.416 198.424 283.528C198.232 283.64 198.032 283.752 197.824 283.864L201.664 290.2C201.712 290.28 201.76 290.384 201.808 290.512C201.856 290.64 201.88 290.744 201.88 290.824C201.88 291.208 201.608 291.576 201.064 291.928V291.904C200.696 292.128 200.384 292.24 200.128 292.24C199.76 292.24 199.464 292.056 199.24 291.688L199.264 291.712L194.728 284.104ZM217.044 288.16C217.044 289.456 216.612 290.424 215.747 291.064C215.332 291.368 214.9 291.608 214.452 291.784C214.02 291.944 213.596 292.024 213.18 292.024H207.948C207.532 292.024 207.1 291.944 206.652 291.784C206.22 291.608 205.796 291.368 205.38 291.064C204.964 290.744 204.644 290.352 204.42 289.888C204.196 289.408 204.084 288.832 204.084 288.16V276.76C204.084 276.12 204.196 275.56 204.42 275.08C204.644 274.584 204.964 274.184 205.38 273.88H205.355C205.772 273.608 206.204 273.384 206.652 273.208C207.1 273.032 207.532 272.944 207.948 272.944H213.18C213.596 272.944 214.028 273.032 214.476 273.208C214.924 273.384 215.356 273.608 215.772 273.88H215.747C216.164 274.184 216.484 274.584 216.708 275.08C216.932 275.56 217.044 276.12 217.044 276.76V278.416C217.044 279.184 216.564 279.568 215.604 279.568C214.66 279.568 214.188 279.184 214.188 278.416V276.976C214.188 276.576 214.068 276.208 213.828 275.872C213.588 275.536 213.172 275.368 212.58 275.368H208.548C207.956 275.368 207.54 275.536 207.3 275.872C207.06 276.208 206.94 276.576 206.94 276.976V287.968C206.94 288.384 207.06 288.76 207.3 289.096C207.54 289.432 207.956 289.6 208.548 289.6H212.58C213.172 289.6 213.588 289.432 213.828 289.096C214.068 288.76 214.188 288.384 214.188 287.968V286.576C214.188 285.824 214.66 285.448 215.604 285.448C216.564 285.448 217.044 285.824 217.044 286.576V288.16ZM230.666 273.976C230.666 273.208 231.138 272.824 232.082 272.824C233.042 272.824 233.522 273.208 233.522 273.976V290.992C233.522 291.76 233.042 292.144 232.082 292.144C231.138 292.144 230.666 291.76 230.666 290.992V273.976ZM223.37 290.992C223.37 291.76 222.89 292.144 221.93 292.144C220.986 292.144 220.514 291.76 220.514 290.992V273.976C220.514 273.208 220.986 272.824 221.93 272.824C222.89 272.824 223.37 273.208 223.37 273.976V290.992ZM228.986 282.088C228.986 282.648 228.794 283.12 228.41 283.504C228.026 283.888 227.554 284.08 226.994 284.08C226.45 284.08 225.986 283.888 225.602 283.504C225.218 283.12 225.026 282.648 225.026 282.088C225.026 281.528 225.218 281.056 225.602 280.672C225.986 280.288 226.45 280.096 226.994 280.096C227.554 280.096 228.026 280.288 228.41 280.672C228.794 281.056 228.986 281.528 228.986 282.088Z" fill="url(#paint1_linear)"/>
</g>
<g filter="url(#filter4_d)">
<circle cx="186" cy="37" r="35" fill="url(#paint2_linear)"/>
</g>
<g filter="url(#filter5_d)">
<circle cx="36" cy="197" r="30" fill="url(#paint3_linear)"/>
</g>
<g filter="url(#filter6_d)">
<circle cx="328.76" cy="184.76" r="30" transform="rotate(52.2528 328.76 184.76)" fill="url(#paint4_linear)"/>
</g>
<path d="M22.9054 208.352C22.6933 208.056 22.4699 207.641 22.2353 207.105C22.0006 206.57 21.7749 205.98 21.5582 205.335C21.1186 205.704 20.683 206.085 20.2515 206.48C19.827 206.87 19.4447 207.192 19.1046 207.446C19.3179 208.413 19.5541 209.278 19.8134 210.041C20.0746 210.792 20.3645 211.502 20.683 212.169C20.3699 212.297 20.0672 212.344 19.775 212.308C19.4878 212.279 19.1844 212.198 18.8648 212.065C18.8404 211.912 18.8002 211.722 18.7444 211.495C18.6957 211.264 18.6322 210.989 18.5541 210.672C18.478 210.343 18.3846 209.967 18.2741 209.545C18.1655 209.111 18.0367 208.612 17.8876 208.047C17.5845 208.115 17.3311 208.088 17.1273 207.968C17.1424 207.914 17.1996 207.831 17.2992 207.717C17.4007 207.591 17.5304 207.444 17.6883 207.278L17.5833 206.841C17.4585 206.355 17.3485 205.949 17.2532 205.622C17.165 205.291 17.0642 204.979 16.9509 204.687C16.8395 204.383 16.7034 204.06 16.5427 203.716C16.3889 203.368 16.1877 202.931 15.9389 202.406C16.2751 202.25 16.6362 202.188 17.0221 202.221C17.4151 202.248 17.8032 202.343 18.1863 202.506C18.1835 202.636 18.1969 202.818 18.2265 203.053C18.2561 203.288 18.3005 203.565 18.3594 203.885C18.4204 204.194 18.4936 204.541 18.5789 204.928C18.6591 205.307 18.7414 205.712 18.8258 206.142C19.2221 205.773 19.6245 205.405 20.0329 205.037C20.4483 204.665 20.821 204.344 21.151 204.076C21.0152 203.618 20.8905 203.169 20.7769 202.728C20.6653 202.275 20.5729 201.856 20.4997 201.471C20.4265 201.087 20.3715 200.742 20.3347 200.438C20.3049 200.129 20.3015 199.886 20.3243 199.71C20.3998 199.666 20.5116 199.629 20.6596 199.597C20.8097 199.554 20.9673 199.521 21.1325 199.498C21.2977 199.476 21.4573 199.468 21.6115 199.475C21.7606 199.474 21.8755 199.493 21.9561 199.531C21.9152 199.742 21.8995 199.988 21.9091 200.269C21.9186 200.55 21.9484 200.859 21.9983 201.197C22.0553 201.529 22.1275 201.883 22.2148 202.257C22.3021 202.632 22.404 203.012 22.5205 203.398C22.7523 203.423 22.9363 203.531 23.0727 203.722C23.1686 203.855 23.2288 203.999 23.2532 204.152C23.1798 204.183 23.1113 204.222 23.0479 204.267C22.9795 204.306 22.9075 204.347 22.832 204.39C22.985 204.856 23.1459 205.311 23.315 205.755C23.484 206.199 23.6545 206.616 23.8264 207.004C24.0054 207.388 24.1748 207.736 24.3345 208.048C24.5013 208.355 24.6528 208.603 24.7892 208.793C24.8397 208.864 24.88 208.92 24.9103 208.962C24.9477 209 24.98 209.03 25.0072 209.053C24.8472 209.157 24.7143 209.21 24.6085 209.211C24.5078 209.219 24.4196 209.208 24.344 209.176C24.2734 209.152 24.2039 209.122 24.1353 209.086C24.0718 209.057 23.9982 209.051 23.9146 209.068C23.8502 209.083 23.7691 209.066 23.6712 209.019C23.5734 208.972 23.4751 208.909 23.3762 208.831C23.2774 208.752 23.1855 208.669 23.1008 208.58C23.016 208.492 22.9509 208.416 22.9054 208.352ZM27.5757 206.492C27.144 206.737 26.6972 206.791 26.2356 206.653C25.7739 206.514 25.3714 206.206 25.028 205.727C24.826 205.445 24.6587 205.123 24.5261 204.759C24.3935 204.396 24.3037 204.017 24.2566 203.625C24.2046 203.225 24.1933 202.822 24.2228 202.417C24.2523 202.012 24.3247 201.63 24.4399 201.27C24.6203 200.703 24.8795 200.299 25.2176 200.056C25.5289 200.015 25.93 200.106 26.421 200.329C26.4562 200.304 26.4879 200.281 26.5161 200.261C26.5392 200.234 26.5684 200.208 26.6036 200.182C26.9769 199.915 27.4009 200.112 27.8756 200.774C28.1937 201.218 28.4227 201.694 28.5627 202.201C28.7046 202.697 28.7614 203.2 28.733 203.711C28.7117 204.216 28.6023 204.711 28.4046 205.194C28.209 205.664 27.9327 206.097 27.5757 206.492ZM25.7286 202.777C25.725 203.025 25.7386 203.282 25.7692 203.548C25.7999 203.814 25.8472 204.073 25.9111 204.326C25.97 204.572 26.0439 204.801 26.133 205.015C26.217 205.221 26.3094 205.395 26.4104 205.536C26.5316 205.705 26.6759 205.846 26.8434 205.961C27.0108 206.076 27.1373 206.118 27.2229 206.089C27.4894 205.791 27.6848 205.454 27.809 205.077C27.9353 204.688 27.99 204.281 27.9731 203.855C27.9633 203.425 27.88 202.989 27.723 202.547C27.5731 202.1 27.3492 201.669 27.0513 201.253C26.92 201.07 26.8059 200.933 26.7091 200.843C26.6122 200.752 26.5113 200.686 26.4065 200.644C26.1622 200.958 25.99 201.305 25.8899 201.686C25.7969 202.062 25.7431 202.426 25.7286 202.777ZM31.7526 203.049C31.92 202.599 32.0375 202.093 32.1051 201.533C32.1676 200.966 32.1842 200.394 32.155 199.818C32.1207 199.234 32.0376 198.665 31.9057 198.109C31.7738 197.553 31.5981 197.055 31.3787 196.615C31.3181 196.531 31.2319 196.507 31.1202 196.545C31.0215 196.615 30.9473 196.802 30.8975 197.104C30.8496 197.394 30.816 197.749 30.7966 198.168C30.7842 198.582 30.7875 199.033 30.8065 199.521C30.8325 200.003 30.8761 200.473 30.9374 200.931C30.9936 201.381 31.0618 201.796 31.142 202.175C31.2243 202.543 31.3215 202.82 31.4336 203.006C31.3632 203.057 31.2528 203.029 31.1025 202.924C31.0632 202.898 31.0133 202.881 30.9528 202.871C30.8873 202.854 30.7956 202.845 30.6777 202.844C30.6223 202.841 30.5644 202.835 30.5039 202.825C30.4384 202.808 30.3885 202.79 30.3542 202.772C30.2856 202.736 30.2059 202.655 30.115 202.528C29.8171 202.112 29.5341 201.606 29.2661 201.009C28.9981 200.412 28.7542 199.782 28.5344 199.118C28.3217 198.45 28.1447 197.771 28.0034 197.084C27.8572 196.389 27.7507 195.734 27.6842 195.121C27.6247 194.502 27.6131 193.951 27.6496 193.466C27.686 192.982 27.7816 192.609 27.9363 192.349C28.0219 192.32 28.1316 192.294 28.2656 192.273C28.3996 192.251 28.5386 192.237 28.6826 192.23C28.8267 192.222 28.9637 192.22 29.0937 192.223C29.2307 192.221 29.338 192.229 29.4156 192.248C29.0902 193.431 28.9957 194.719 29.1322 196.114C29.2706 197.497 29.6399 198.987 30.2401 200.583C30.1747 200.075 30.1441 199.564 30.1483 199.049C30.1474 198.527 30.1732 198.05 30.2259 197.618C30.2856 197.18 30.369 196.806 30.4763 196.494C30.5906 196.178 30.7217 195.967 30.8696 195.86C31.0025 195.808 31.147 195.779 31.3032 195.774C31.4593 195.768 31.6175 195.788 31.7778 195.833C31.933 195.871 32.0817 195.93 32.2239 196.009C32.3611 196.082 32.4821 196.176 32.5871 196.293C32.7922 196.594 32.9666 196.948 33.1103 197.357C33.2561 197.754 33.3641 198.172 33.4344 198.612C33.5117 199.048 33.5543 199.486 33.5621 199.929C33.577 200.366 33.5525 200.778 33.4887 201.165C33.4269 201.54 33.3313 201.875 33.2018 202.17C33.0794 202.461 32.9196 202.677 32.7224 202.818C32.6379 202.879 32.5422 202.931 32.4355 202.976C32.3409 203.022 32.2422 203.056 32.1395 203.076C32.0489 203.098 31.9663 203.109 31.8917 203.11C31.8242 203.105 31.7778 203.085 31.7526 203.049ZM36.7361 199.477C36.9035 199.026 37.021 198.521 37.0886 197.96C37.151 197.393 37.1677 196.821 37.1385 196.245C37.1042 195.662 37.0211 195.092 36.8892 194.536C36.7572 193.98 36.5816 193.482 36.3622 193.042C36.3016 192.958 36.2154 192.934 36.1036 192.972C36.005 193.043 35.9308 193.229 35.8809 193.531C35.8331 193.822 35.7995 194.176 35.78 194.596C35.7677 195.01 35.771 195.46 35.7899 195.948C35.816 196.431 35.8596 196.901 35.9208 197.358C35.977 197.808 36.0453 198.223 36.1255 198.603C36.2078 198.97 36.305 199.247 36.4171 199.433C36.3467 199.484 36.2363 199.456 36.086 199.351C36.0467 199.326 35.9968 199.308 35.9363 199.298C35.8708 199.281 35.7791 199.272 35.6612 199.271C35.6058 199.269 35.5479 199.262 35.4874 199.252C35.4219 199.235 35.372 199.218 35.3377 199.199C35.2691 199.163 35.1894 199.082 35.0985 198.955C34.8006 198.54 34.5176 198.033 34.2496 197.436C33.9816 196.839 33.7377 196.209 33.5179 195.545C33.3051 194.877 33.1282 194.199 32.9869 193.511C32.8406 192.816 32.7342 192.162 32.6677 191.548C32.6082 190.93 32.5966 190.378 32.6331 189.894C32.6695 189.409 32.7651 189.036 32.9198 188.776C33.0053 188.747 33.1151 188.722 33.2491 188.7C33.383 188.679 33.522 188.664 33.6661 188.657C33.8102 188.65 33.9472 188.648 34.0771 188.65C34.2141 188.648 34.3215 188.656 34.3991 188.675C34.0737 189.858 33.9792 191.147 34.1156 192.542C34.254 193.925 34.6234 195.414 35.2236 197.01C35.1582 196.502 35.1276 195.991 35.1317 195.476C35.1308 194.954 35.1567 194.477 35.2093 194.045C35.269 193.608 35.3525 193.233 35.4598 192.922C35.5741 192.605 35.7052 192.394 35.8531 192.288C35.986 192.235 36.1305 192.206 36.2867 192.201C36.4428 192.196 36.601 192.215 36.7613 192.26C36.9165 192.299 37.0652 192.357 37.2074 192.437C37.3446 192.509 37.4656 192.603 37.5706 192.72C37.7756 193.021 37.95 193.376 38.0938 193.785C38.2396 194.181 38.3476 194.6 38.4179 195.04C38.4952 195.475 38.5378 195.914 38.5456 196.356C38.5605 196.793 38.536 197.205 38.4722 197.592C38.4104 197.967 38.3148 198.302 38.1853 198.598C38.0629 198.888 37.9031 199.104 37.7059 199.245C37.6213 199.306 37.5257 199.358 37.419 199.403C37.3244 199.449 37.2257 199.483 37.123 199.503C37.0323 199.525 36.9497 199.537 36.8752 199.537C36.8077 199.532 36.7613 199.512 36.7361 199.477ZM40.1976 195.811C40.1521 195.748 40.1001 195.668 40.0415 195.571C39.9849 195.463 39.9151 195.321 39.8322 195.146C39.7442 194.963 39.6406 194.744 39.5213 194.489C39.409 194.228 39.2744 193.914 39.1176 193.546C39.0812 193.466 39.0321 193.33 38.9704 193.14C38.9086 192.95 38.8558 192.742 38.8121 192.518C38.7704 192.281 38.7478 192.041 38.7444 191.799C38.748 191.551 38.803 191.33 38.9094 191.136C39.0494 191.079 39.2609 191.039 39.5439 191.017C39.822 190.989 40.1046 191.026 40.3919 191.129C40.3612 191.429 40.3552 191.71 40.3738 191.974C40.3994 192.233 40.4371 192.494 40.487 192.757C40.5438 193.014 40.6093 193.277 40.6833 193.544C40.7643 193.805 40.8424 194.085 40.9175 194.383C40.9814 194.636 41.0574 194.891 41.1455 195.148C41.2285 195.397 41.3221 195.602 41.4261 195.762C41.517 195.889 41.5766 195.98 41.6049 196.034C41.6453 196.09 41.6479 196.131 41.6127 196.156C41.5845 196.177 41.5155 196.199 41.4058 196.225C41.296 196.25 41.1701 196.26 41.028 196.256C40.8879 196.239 40.7423 196.199 40.5911 196.137C40.4398 196.075 40.3087 195.966 40.1976 195.811ZM38.9282 189.779C38.8979 189.737 38.8631 189.666 38.8236 189.566C38.7631 189.556 38.6936 189.526 38.6149 189.476C38.5433 189.421 38.4873 189.365 38.4469 189.309C38.4014 189.245 38.3479 189.156 38.2862 189.04C38.2265 188.912 38.1653 188.775 38.1026 188.628C38.0399 188.481 37.9817 188.325 37.928 188.161C37.8693 187.99 37.8207 187.833 37.7821 187.69C37.8666 187.629 37.9865 187.581 38.1415 187.544C38.2986 187.495 38.4683 187.464 38.6507 187.451C38.8279 187.43 39.0022 187.428 39.1735 187.444C39.3398 187.453 39.4789 187.476 39.5908 187.513C39.5688 187.646 39.545 187.828 39.5192 188.06C39.4883 188.285 39.4686 188.517 39.4599 188.758C39.4462 188.992 39.438 189.211 39.4354 189.416C39.4327 189.62 39.4375 189.761 39.4497 189.837C39.3551 189.884 39.2559 189.902 39.1521 189.891C39.0433 189.873 38.9686 189.836 38.9282 189.779ZM43.838 187.651C44.1229 188.108 44.3156 188.54 44.416 188.948C44.5114 189.349 44.5252 189.755 44.4574 190.166C44.3916 190.565 44.2578 190.981 44.0561 191.414C43.8543 191.846 43.5912 192.312 43.2666 192.811C43.2969 192.854 43.3262 192.902 43.3545 192.956C43.3848 192.998 43.4177 193.044 43.453 193.094C43.5186 193.185 43.5939 193.275 43.6786 193.364C43.7634 193.452 43.8537 193.526 43.9495 193.585C44.0454 193.645 44.1452 193.68 44.2489 193.691C44.3477 193.694 44.4464 193.661 44.545 193.59C44.7351 193.454 44.8915 193.278 45.014 193.062C45.1366 192.846 45.2359 192.62 45.3121 192.385C45.3902 192.137 45.4493 191.892 45.4891 191.65C45.531 191.396 45.5654 191.169 45.5922 190.968C45.7081 190.981 45.8109 190.998 45.9006 191.019C45.8866 191.669 45.7904 192.271 45.6121 192.825C45.4357 193.368 45.2062 193.799 44.9237 194.119C44.3973 194.411 43.8907 194.507 43.4039 194.408C42.9191 194.297 42.5252 194.031 42.2223 193.608C42.0152 193.319 41.8444 192.999 41.7098 192.648C41.5772 192.284 41.4828 191.915 41.4268 191.539C41.3727 191.151 41.3524 190.766 41.3658 190.383C41.3863 189.995 41.4401 189.631 41.5271 189.292C41.6212 188.947 41.7466 188.638 41.9033 188.366C42.0671 188.089 42.2652 187.867 42.4976 187.7C42.8519 187.51 43.2987 187.494 43.838 187.651ZM43.3589 188.522C43.1889 188.687 43.0473 188.906 42.9339 189.179C42.8205 189.452 42.748 189.76 42.7164 190.103C42.6918 190.44 42.7065 190.803 42.7606 191.191C42.8146 191.578 42.9156 191.965 43.0633 192.349C43.4248 191.664 43.6458 190.983 43.7262 190.306C43.8016 189.623 43.6792 189.029 43.3589 188.522ZM48.0934 184.856C48.1823 184.995 48.2586 185.154 48.3224 185.332C48.3882 185.498 48.4358 185.661 48.4653 185.821C48.4897 185.974 48.498 186.112 48.4902 186.235C48.4823 186.358 48.4503 186.44 48.3939 186.48C48.3114 186.529 48.2277 186.509 48.1429 186.42C48.1278 186.399 48.1121 186.362 48.0959 186.31C48.0817 186.246 48.0649 186.178 48.0457 186.106C48.0264 186.035 48.0036 185.966 47.9773 185.899C47.958 185.828 47.9333 185.771 47.903 185.728C47.8323 185.63 47.7495 185.567 47.6548 185.539C47.562 185.498 47.4769 185.506 47.3994 185.562C47.1177 185.764 47.0291 186.094 47.1337 186.552C47.2382 187.01 47.5354 187.581 48.0252 188.264C48.0757 188.335 48.1096 188.374 48.1267 188.383C48.2696 188.27 48.3973 188.173 48.51 188.092C48.6247 188 48.7384 187.913 48.8511 187.832C48.8683 187.841 48.892 187.867 48.9223 187.909C48.9677 187.972 48.9865 188.028 48.9785 188.077C48.8417 188.228 48.7342 188.353 48.6557 188.452C48.5793 188.539 48.524 188.61 48.4899 188.667C48.4557 188.723 48.4417 188.771 48.4478 188.809C48.4559 188.835 48.4751 188.869 48.5054 188.912C48.5458 188.968 48.5862 189.024 48.6266 189.081C48.6741 189.132 48.7281 189.2 48.7887 189.284C49.2128 189.876 49.3917 190.468 49.3252 191.059C49.2658 191.646 48.971 192.171 48.4409 192.637C48.3372 192.701 48.2149 192.746 48.0739 192.772C47.9329 192.798 47.7853 192.808 47.6311 192.801C47.484 192.79 47.3399 192.76 47.1988 192.712C47.0627 192.67 46.9452 192.611 46.8463 192.532C46.6545 192.265 46.529 191.971 46.47 191.65C46.406 191.323 46.4034 191 46.4623 190.68C46.5232 190.349 46.6435 190.033 46.8234 189.734C47.0052 189.422 47.2435 189.144 47.5382 188.901C47.412 188.725 47.2707 188.565 47.1142 188.421C46.9578 188.278 46.803 188.143 46.6496 188.019C46.4982 187.882 46.3519 187.752 46.2107 187.63C46.0644 187.5 45.9382 187.361 45.8321 187.213C45.6958 187.023 45.6007 186.808 45.5469 186.57C45.4881 186.324 45.4665 186.078 45.4822 185.832C45.4928 185.58 45.5423 185.336 45.6305 185.102C45.7188 184.868 45.8393 184.665 45.9921 184.491C46.0848 184.457 46.2323 184.447 46.4349 184.462C46.6394 184.464 46.8505 184.484 47.0682 184.519C47.2859 184.555 47.492 184.605 47.6865 184.668C47.876 184.724 48.0116 184.787 48.0934 184.856ZM48.0607 192.174C48.1793 191.982 48.2646 191.766 48.3165 191.526C48.3755 191.281 48.4008 191.034 48.3923 190.784C48.3838 190.534 48.3431 190.292 48.2702 190.056C48.2042 189.815 48.1056 189.603 47.9744 189.42C47.8486 189.542 47.7416 189.72 47.6534 189.954C47.5601 190.181 47.495 190.425 47.4582 190.686C47.4163 190.94 47.4042 191.183 47.4217 191.416C47.4392 191.649 47.4909 191.825 47.5768 191.945C47.6879 192.1 47.8492 192.176 48.0607 192.174Z" fill="#006C73"/>
<path d="M177.305 34.251C176.924 34.7623 176.577 35.3257 176.265 35.941C175.953 36.5563 175.684 37.189 175.459 37.839C175.242 38.4803 175.073 39.1173 174.952 39.75C174.839 40.374 174.783 40.959 174.783 41.505C174.783 42.181 174.883 42.6707 175.082 42.974C175.281 43.2773 175.624 43.429 176.109 43.429C176.672 43.429 177.166 43.234 177.591 42.844C178.016 42.4453 178.414 41.8993 178.787 41.206C179.03 40.7553 179.238 40.2613 179.411 39.724C179.584 39.1867 179.723 38.6363 179.827 38.073C179.94 37.501 180.022 36.929 180.074 36.357C180.126 35.7763 180.152 35.2217 180.152 34.693C180.152 34.355 180.148 34.108 180.139 33.952C180.13 33.796 180.117 33.6703 180.1 33.575C180.126 33.575 180.191 33.5837 180.295 33.601C180.399 33.6183 180.516 33.64 180.646 33.666C180.785 33.692 180.919 33.7267 181.049 33.77C181.188 33.8133 181.305 33.861 181.4 33.913C181.357 34.5717 181.274 35.252 181.153 35.954C181.04 36.656 180.889 37.3493 180.698 38.034C180.507 38.7187 180.286 39.3773 180.035 40.01C179.784 40.6427 179.502 41.2103 179.19 41.713C178.731 42.4583 178.215 43.039 177.643 43.455C177.071 43.8797 176.395 44.092 175.615 44.092C174.818 44.092 174.198 43.858 173.756 43.39C173.314 42.9307 173.093 42.2287 173.093 41.284C173.093 40.738 173.154 40.1227 173.275 39.438C173.396 38.7447 173.557 38.0427 173.756 37.332C173.964 36.6127 174.202 35.915 174.471 35.239C174.74 34.5543 175.021 33.9433 175.316 33.406C175.463 33.4147 175.637 33.445 175.836 33.497C176.035 33.549 176.23 33.6183 176.421 33.705C176.612 33.783 176.785 33.874 176.941 33.978C177.106 34.0733 177.227 34.1643 177.305 34.251ZM185.582 37.826C185.573 37.9907 185.543 38.164 185.491 38.346C185.448 38.5193 185.391 38.6797 185.322 38.827C185.253 38.9657 185.179 39.0827 185.101 39.178C185.023 39.2733 184.949 39.321 184.88 39.321C184.785 39.3123 184.728 39.2473 184.711 39.126C184.711 39.1 184.72 39.061 184.737 39.009C184.763 38.9483 184.789 38.8833 184.815 38.814C184.841 38.7447 184.863 38.6753 184.88 38.606C184.906 38.5367 184.919 38.476 184.919 38.424C184.919 38.3027 184.889 38.203 184.828 38.125C184.776 38.0383 184.702 37.995 184.607 37.995C184.26 37.995 183.996 38.2117 183.814 38.645C183.632 39.0783 183.541 39.7153 183.541 40.556C183.541 40.6427 183.545 40.6947 183.554 40.712C183.736 40.7033 183.896 40.699 184.035 40.699C184.182 40.6903 184.325 40.686 184.464 40.686C184.473 40.7033 184.477 40.738 184.477 40.79C184.477 40.868 184.46 40.9243 184.425 40.959C184.226 41.0023 184.065 41.0413 183.944 41.076C183.831 41.102 183.745 41.128 183.684 41.154C183.623 41.18 183.584 41.2103 183.567 41.245C183.558 41.271 183.554 41.31 183.554 41.362C183.554 41.4313 183.554 41.5007 183.554 41.57C183.563 41.6393 183.567 41.726 183.567 41.83C183.567 42.558 183.368 43.143 182.969 43.585C182.579 44.027 182.033 44.2827 181.331 44.352C181.21 44.3433 181.084 44.3087 180.954 44.248C180.824 44.1873 180.698 44.1093 180.577 44.014C180.464 43.9187 180.365 43.8103 180.278 43.689C180.191 43.5763 180.131 43.4593 180.096 43.338C180.096 43.0087 180.165 42.6967 180.304 42.402C180.443 42.0987 180.629 41.8343 180.863 41.609C181.106 41.375 181.387 41.1887 181.708 41.05C182.037 40.9027 182.393 40.816 182.774 40.79C182.774 40.5733 182.752 40.361 182.709 40.153C182.666 39.945 182.618 39.7457 182.566 39.555C182.523 39.3557 182.479 39.165 182.436 38.983C182.393 38.7923 182.371 38.606 182.371 38.424C182.371 38.19 182.419 37.9603 182.514 37.735C182.609 37.501 182.735 37.2887 182.891 37.098C183.047 36.8987 183.229 36.7297 183.437 36.591C183.645 36.4523 183.862 36.357 184.087 36.305C184.182 36.331 184.308 36.409 184.464 36.539C184.629 36.6603 184.789 36.799 184.945 36.955C185.101 37.111 185.24 37.2713 185.361 37.436C185.482 37.592 185.556 37.722 185.582 37.826ZM181.292 43.754C181.5 43.6673 181.695 43.5417 181.877 43.377C182.068 43.2123 182.232 43.026 182.371 42.818C182.51 42.61 182.618 42.389 182.696 42.155C182.783 41.921 182.826 41.6913 182.826 41.466C182.653 41.492 182.462 41.5743 182.254 41.713C182.046 41.843 181.851 42.0033 181.669 42.194C181.487 42.376 181.335 42.5667 181.214 42.766C181.093 42.9653 181.032 43.1387 181.032 43.286C181.032 43.4767 181.119 43.6327 181.292 43.754ZM190.245 37.618C190.21 38.1553 190.115 38.619 189.959 39.009C189.803 39.3903 189.578 39.7283 189.283 40.023C188.997 40.309 188.646 40.569 188.23 40.803C187.814 41.037 187.329 41.2623 186.774 41.479C186.774 41.531 186.77 41.5873 186.761 41.648C186.761 41.7 186.761 41.7563 186.761 41.817C186.761 41.9297 186.77 42.0467 186.787 42.168C186.804 42.2893 186.835 42.402 186.878 42.506C186.921 42.61 186.982 42.6967 187.06 42.766C187.138 42.8267 187.238 42.857 187.359 42.857C187.593 42.857 187.823 42.805 188.048 42.701C188.273 42.597 188.486 42.4713 188.685 42.324C188.893 42.168 189.084 42.0033 189.257 41.83C189.439 41.648 189.599 41.4833 189.738 41.336C189.825 41.414 189.898 41.4877 189.959 41.557C189.569 42.077 189.14 42.5103 188.672 42.857C188.213 43.195 187.775 43.4117 187.359 43.507C186.761 43.4377 186.293 43.221 185.955 42.857C185.626 42.4843 185.461 42.038 185.461 41.518C185.461 41.1627 185.509 40.803 185.604 40.439C185.708 40.0663 185.847 39.711 186.02 39.373C186.202 39.0263 186.41 38.7013 186.644 38.398C186.887 38.0947 187.142 37.8303 187.411 37.605C187.688 37.3797 187.97 37.202 188.256 37.072C188.551 36.942 188.841 36.877 189.127 36.877C189.526 36.929 189.898 37.176 190.245 37.618ZM189.348 38.047C189.114 38.0817 188.871 38.177 188.62 38.333C188.369 38.489 188.13 38.697 187.905 38.957C187.688 39.217 187.489 39.5203 187.307 39.867C187.125 40.2137 186.982 40.5863 186.878 40.985C187.571 40.6383 188.148 40.2137 188.607 39.711C189.066 39.1997 189.313 38.645 189.348 38.047ZM190.535 42.74C190.578 42.4887 190.652 42.1593 190.756 41.752C190.869 41.336 190.999 40.8983 191.146 40.439C191.293 39.971 191.449 39.503 191.614 39.035C191.779 38.567 191.939 38.1467 192.095 37.774C192.208 37.5053 192.307 37.2973 192.394 37.15C192.481 36.994 192.576 36.864 192.68 36.76C192.801 36.7773 192.927 36.8077 193.057 36.851C193.187 36.8943 193.313 36.9463 193.434 37.007C193.555 37.0677 193.664 37.1327 193.759 37.202C193.854 37.2627 193.928 37.3233 193.98 37.384C193.746 37.6613 193.538 37.9777 193.356 38.333C193.183 38.6883 193.005 39.1433 192.823 39.698C193.291 39.282 193.703 38.8833 194.058 38.502C194.422 38.1207 194.76 37.696 195.072 37.228C195.124 37.1847 195.215 37.163 195.345 37.163C195.466 37.163 195.583 37.1847 195.696 37.228C195.809 37.2627 195.887 37.3147 195.93 37.384C195.774 37.8 195.696 38.2117 195.696 38.619C195.696 39.0003 195.752 39.2863 195.865 39.477C195.856 39.529 195.796 39.6287 195.683 39.776C195.579 39.9233 195.462 40.062 195.332 40.192C195.098 40.0707 194.89 39.906 194.708 39.698C194.526 39.4813 194.392 39.2473 194.305 38.996C193.898 39.282 193.551 39.5637 193.265 39.841C192.979 40.1097 192.732 40.413 192.524 40.751C192.325 41.0803 192.151 41.4617 192.004 41.895C191.865 42.3283 191.731 42.844 191.601 43.442C191.523 43.4333 191.428 43.403 191.315 43.351C191.211 43.3077 191.103 43.2513 190.99 43.182C190.886 43.1127 190.791 43.039 190.704 42.961C190.617 42.883 190.561 42.8093 190.535 42.74ZM200.372 37.826C200.363 37.9907 200.333 38.164 200.281 38.346C200.238 38.5193 200.181 38.6797 200.112 38.827C200.043 38.9657 199.969 39.0827 199.891 39.178C199.813 39.2733 199.739 39.321 199.67 39.321C199.575 39.3123 199.518 39.2473 199.501 39.126C199.501 39.1 199.51 39.061 199.527 39.009C199.553 38.9483 199.579 38.8833 199.605 38.814C199.631 38.7447 199.653 38.6753 199.67 38.606C199.696 38.5367 199.709 38.476 199.709 38.424C199.709 38.3027 199.679 38.203 199.618 38.125C199.566 38.0383 199.492 37.995 199.397 37.995C199.05 37.995 198.786 38.2117 198.604 38.645C198.422 39.0783 198.331 39.7153 198.331 40.556C198.331 40.6427 198.335 40.6947 198.344 40.712C198.526 40.7033 198.686 40.699 198.825 40.699C198.972 40.6903 199.115 40.686 199.254 40.686C199.263 40.7033 199.267 40.738 199.267 40.79C199.267 40.868 199.25 40.9243 199.215 40.959C199.016 41.0023 198.855 41.0413 198.734 41.076C198.621 41.102 198.535 41.128 198.474 41.154C198.413 41.18 198.374 41.2103 198.357 41.245C198.348 41.271 198.344 41.31 198.344 41.362C198.344 41.4313 198.344 41.5007 198.344 41.57C198.353 41.6393 198.357 41.726 198.357 41.83C198.357 42.558 198.158 43.143 197.759 43.585C197.369 44.027 196.823 44.2827 196.121 44.352C196 44.3433 195.874 44.3087 195.744 44.248C195.614 44.1873 195.488 44.1093 195.367 44.014C195.254 43.9187 195.155 43.8103 195.068 43.689C194.981 43.5763 194.921 43.4593 194.886 43.338C194.886 43.0087 194.955 42.6967 195.094 42.402C195.233 42.0987 195.419 41.8343 195.653 41.609C195.896 41.375 196.177 41.1887 196.498 41.05C196.827 40.9027 197.183 40.816 197.564 40.79C197.564 40.5733 197.542 40.361 197.499 40.153C197.456 39.945 197.408 39.7457 197.356 39.555C197.313 39.3557 197.269 39.165 197.226 38.983C197.183 38.7923 197.161 38.606 197.161 38.424C197.161 38.19 197.209 37.9603 197.304 37.735C197.399 37.501 197.525 37.2887 197.681 37.098C197.837 36.8987 198.019 36.7297 198.227 36.591C198.435 36.4523 198.652 36.357 198.877 36.305C198.972 36.331 199.098 36.409 199.254 36.539C199.419 36.6603 199.579 36.799 199.735 36.955C199.891 37.111 200.03 37.2713 200.151 37.436C200.272 37.592 200.346 37.722 200.372 37.826ZM196.082 43.754C196.29 43.6673 196.485 43.5417 196.667 43.377C196.858 43.2123 197.022 43.026 197.161 42.818C197.3 42.61 197.408 42.389 197.486 42.155C197.573 41.921 197.616 41.6913 197.616 41.466C197.443 41.492 197.252 41.5743 197.044 41.713C196.836 41.843 196.641 42.0033 196.459 42.194C196.277 42.376 196.125 42.5667 196.004 42.766C195.883 42.9653 195.822 43.1387 195.822 43.286C195.822 43.4767 195.909 43.6327 196.082 43.754Z" fill="#C5512C"/>
<path d="M323.44 177.134C323.119 177.004 322.906 176.814 322.801 176.566C322.707 176.313 322.712 176.058 322.817 175.801C322.843 175.737 322.882 175.664 322.933 175.582C322.993 175.503 323.052 175.438 323.111 175.387C323.195 175.477 323.333 175.575 323.524 175.681C323.727 175.782 323.964 175.887 324.238 175.998C324.647 176.164 325.115 176.335 325.643 176.512C326.181 176.683 326.695 176.845 327.185 176.997C327.675 177.149 328.108 177.282 328.482 177.396C328.86 177.503 329.101 177.577 329.205 177.619C329.503 177.74 329.67 177.938 329.707 178.215C329.756 178.488 329.737 178.822 329.652 179.217C329.45 179.116 329.246 179.02 329.04 178.927C328.846 178.829 328.676 178.751 328.532 178.693C328.275 178.589 328.01 178.491 327.739 178.399C327.475 178.311 327.205 178.23 326.926 178.154C326.72 178.342 326.483 178.568 326.216 178.834C325.952 179.092 325.682 179.366 325.406 179.656C325.137 179.949 324.873 180.244 324.612 180.541C324.355 180.829 324.127 181.092 323.928 181.329C323.536 181.788 323.181 182.214 322.862 182.609C322.551 183.006 322.264 183.381 322 183.732C321.747 184.079 321.513 184.414 321.298 184.738C321.082 185.062 320.878 185.381 320.685 185.696C320.179 185.397 319.866 184.878 319.746 184.137C319.911 183.914 320.096 183.676 320.302 183.422C320.519 183.164 320.762 182.875 321.033 182.554C321.314 182.229 321.635 181.863 321.996 181.458C322.357 181.052 322.768 180.592 323.229 180.078C323.4 179.886 323.579 179.687 323.765 179.482C323.954 179.269 324.138 179.058 324.316 178.849C324.502 178.644 324.673 178.442 324.828 178.244C324.992 178.048 325.135 177.868 325.258 177.702C324.904 177.606 324.568 177.512 324.25 177.42C323.943 177.324 323.673 177.228 323.44 177.134ZM329.895 182.584C329.975 182.616 330.061 182.67 330.152 182.744C330.255 182.814 330.341 182.891 330.409 182.975C330.481 183.051 330.536 183.124 330.573 183.195C330.617 183.27 330.631 183.327 330.615 183.367C330.318 183.639 330.031 183.92 329.754 184.21C329.481 184.492 329.233 184.77 329.009 185.045C328.786 185.319 328.591 185.581 328.424 185.831C328.265 186.085 328.145 186.312 328.063 186.513C327.972 186.738 327.92 186.936 327.906 187.108C327.896 187.272 327.934 187.409 328.02 187.519C327.898 187.544 327.752 187.546 327.583 187.524C327.414 187.503 327.27 187.467 327.149 187.419C326.715 187.243 326.619 186.858 326.86 186.263C327.046 185.806 327.452 185.241 328.08 184.569C327.769 184.874 327.443 185.148 327.101 185.393C326.762 185.63 326.433 185.828 326.115 185.99C325.797 186.151 325.494 186.266 325.204 186.335C324.925 186.4 324.687 186.411 324.489 186.368C324.198 186.232 324.014 185.993 323.937 185.654C323.863 185.306 323.911 184.923 324.08 184.505C324.262 184.055 324.551 183.62 324.945 183.201C325.34 182.781 325.772 182.418 326.242 182.113C326.72 181.811 327.192 181.591 327.66 181.453C328.13 181.308 328.533 181.293 328.869 181.411C328.94 181.467 329.009 181.551 329.076 181.663C329.151 181.777 329.213 181.901 329.262 182.033C329.32 182.168 329.359 182.301 329.381 182.432C329.406 182.554 329.408 182.653 329.387 182.729C329.046 182.647 328.649 182.668 328.197 182.793C327.752 182.922 327.312 183.117 326.878 183.381C326.455 183.64 326.069 183.946 325.72 184.3C325.371 184.654 325.121 185.016 324.971 185.386C324.91 185.538 324.927 185.657 325.023 185.743C325.275 185.789 325.624 185.702 326.069 185.48C326.518 185.25 327.107 184.858 327.837 184.303C327.976 184.191 328.129 184.066 328.298 183.928C328.474 183.794 328.653 183.652 328.835 183.501C329.018 183.351 329.197 183.199 329.371 183.045C329.557 182.887 329.731 182.733 329.895 182.584ZM325.464 190.635C325.484 190.587 325.518 190.549 325.566 190.522C325.615 190.495 325.667 190.47 325.724 190.446C325.784 190.573 325.841 190.676 325.894 190.753C325.938 190.827 325.986 190.894 326.038 190.952C326.081 191.007 326.133 191.051 326.194 191.085C326.255 191.119 326.33 191.154 326.418 191.19C326.836 191.359 327.279 191.408 327.747 191.336C328.213 191.273 328.695 191.099 329.193 190.814C329.7 190.533 330.212 190.147 330.729 189.656C331.247 189.164 331.764 188.579 332.282 187.9C332.147 187.958 331.983 188.017 331.789 188.079C331.607 188.136 331.418 188.186 331.224 188.229C331.029 188.271 330.837 188.306 330.649 188.332C330.468 188.362 330.318 188.376 330.197 188.374C330.07 188.294 329.964 188.186 329.88 188.049C329.806 187.907 329.753 187.75 329.72 187.577C329.687 187.405 329.681 187.225 329.701 187.036C329.724 186.84 329.775 186.646 329.853 186.453C329.98 186.14 330.167 185.841 330.413 185.557C330.667 185.277 330.954 185.019 331.273 184.784C331.596 184.541 331.943 184.331 332.314 184.154C332.693 183.98 333.07 183.848 333.443 183.756C333.825 183.668 334.189 183.624 334.535 183.624C334.893 183.619 335.216 183.675 335.505 183.792C335.786 183.906 335.97 184.051 336.058 184.227C336.157 184.398 336.182 184.637 336.132 184.944C336.063 184.86 335.961 184.79 335.824 184.735C335.631 184.657 335.375 184.642 335.057 184.691C334.746 184.742 334.407 184.839 334.041 184.98C333.687 185.117 333.316 185.294 332.928 185.511C332.544 185.72 332.185 185.949 331.851 186.197C331.525 186.448 331.234 186.704 330.978 186.965C330.731 187.229 330.557 187.486 330.456 187.735C330.433 187.791 330.422 187.829 330.424 187.848C330.429 187.86 330.439 187.869 330.455 187.875C330.527 187.904 330.64 187.903 330.793 187.872C330.954 187.844 331.135 187.8 331.337 187.742C331.55 187.678 331.773 187.6 332.007 187.508C332.244 187.408 332.473 187.304 332.694 187.197C333.195 186.952 333.683 186.649 334.156 186.289C334.64 185.925 335.058 185.552 335.409 185.17C335.62 185.274 335.798 185.388 335.944 185.513C336.089 185.638 336.181 185.745 336.22 185.835C335.693 186.351 335.258 186.788 334.917 187.145C334.584 187.506 334.29 187.826 334.036 188.107C333.585 188.597 333.167 189.04 332.782 189.436C332.402 189.843 332.03 190.206 331.667 190.527C331.308 190.858 330.942 191.149 330.569 191.4C330.201 191.662 329.807 191.896 329.388 192.1C329.189 192.197 328.979 192.266 328.757 192.307C328.539 192.359 328.322 192.388 328.105 192.393C327.895 192.402 327.694 192.39 327.501 192.359C327.316 192.331 327.151 192.287 327.007 192.229C326.814 192.15 326.627 192.047 326.446 191.917C326.261 191.795 326.101 191.66 325.965 191.512C325.818 191.368 325.701 191.217 325.615 191.061C325.525 190.912 325.475 190.771 325.464 190.635ZM340.878 187.12C340.808 187.27 340.715 187.419 340.598 187.568C340.493 187.713 340.38 187.84 340.261 187.95C340.144 188.053 340.032 188.134 339.924 188.193C339.816 188.252 339.73 188.268 339.665 188.242C339.58 188.198 339.553 188.117 339.582 187.998C339.592 187.974 339.614 187.941 339.65 187.899C339.697 187.853 339.745 187.802 339.796 187.748C339.846 187.693 339.892 187.637 339.934 187.58C339.984 187.525 340.019 187.474 340.039 187.426C340.084 187.313 340.093 187.209 340.067 187.114C340.051 187.014 339.999 186.947 339.911 186.911C339.589 186.781 339.263 186.882 338.931 187.215C338.6 187.548 338.276 188.105 337.961 188.884C337.928 188.964 337.912 189.014 337.914 189.033C338.086 189.094 338.236 189.15 338.365 189.202C338.504 189.249 338.639 189.299 338.767 189.351C338.769 189.37 338.76 189.404 338.74 189.452C338.711 189.524 338.673 189.57 338.628 189.589C338.427 189.555 338.264 189.53 338.139 189.517C338.024 189.499 337.934 189.49 337.868 189.492C337.802 189.493 337.755 189.506 337.726 189.532C337.708 189.553 337.689 189.587 337.67 189.636C337.644 189.7 337.618 189.764 337.592 189.828C337.574 189.896 337.545 189.978 337.506 190.074C337.232 190.749 336.828 191.216 336.292 191.476C335.765 191.739 335.163 191.771 334.486 191.571C334.377 191.518 334.274 191.438 334.176 191.333C334.078 191.228 333.991 191.109 333.914 190.975C333.846 190.844 333.794 190.706 333.759 190.561C333.721 190.424 333.709 190.293 333.723 190.168C333.846 189.862 334.028 189.599 334.267 189.378C334.51 189.149 334.782 188.974 335.083 188.853C335.396 188.728 335.727 188.661 336.076 188.653C336.437 188.64 336.799 188.693 337.162 188.812C337.243 188.612 337.303 188.407 337.341 188.198C337.379 187.989 337.41 187.786 337.433 187.59C337.468 187.389 337.499 187.196 337.527 187.011C337.559 186.818 337.609 186.637 337.677 186.468C337.765 186.251 337.896 186.057 338.069 185.884C338.245 185.702 338.441 185.553 338.657 185.435C338.877 185.309 339.109 185.22 339.354 185.17C339.599 185.12 339.835 185.113 340.064 185.149C340.142 185.209 340.229 185.329 340.325 185.508C340.432 185.682 340.529 185.871 340.615 186.074C340.7 186.277 340.769 186.478 340.819 186.676C340.873 186.866 340.893 187.014 340.878 187.12ZM334.675 191.002C334.9 191 335.128 190.957 335.359 190.873C335.597 190.792 335.82 190.681 336.026 190.54C336.233 190.4 336.416 190.236 336.577 190.048C336.745 189.864 336.871 189.667 336.956 189.458C336.786 189.417 336.578 189.422 336.333 189.472C336.092 189.515 335.851 189.59 335.61 189.698C335.373 189.799 335.161 189.918 334.974 190.058C334.786 190.197 334.665 190.335 334.61 190.471C334.538 190.648 334.56 190.825 334.675 191.002Z" fill="#1533CF"/>
<defs>
<filter id="filter0_d" x="6" y="20" width="360" height="360" filterUnits="userSpaceOnUse" color-interpolation-filters="sRGB">
<feFlood flood-opacity="0" result="BackgroundImageFix"/>
<feColorMatrix in="SourceAlpha" type="matrix" values="0 0 0 0 0 0 0 0 0 0 0 0 0 0 0 0 0 0 127 0"/>
<feOffset dy="12"/>
<feGaussianBlur stdDeviation="15"/>
<feColorMatrix type="matrix" values="0 0 0 0 0 0 0 0 0 0 0 0 0 0 0 0 0 0 0.25 0"/>
<feBlend mode="normal" in2="BackgroundImageFix" result="effect1_dropShadow"/>
<feBlend mode="normal" in="SourceGraphic" in2="effect1_dropShadow" result="shape"/>
</filter>
<filter id="filter1_d" x="77" y="98" width="140.984" height="166.984" filterUnits="userSpaceOnUse" color-interpolation-filters="sRGB">
<feFlood flood-opacity="0" result="BackgroundImageFix"/>
<feColorMatrix in="SourceAlpha" type="matrix" values="0 0 0 0 0 0 0 0 0 0 0 0 0 0 0 0 0 0 127 0"/>
<feOffset dy="38"/>
<feGaussianBlur stdDeviation="6"/>
<feColorMatrix type="matrix" values="0 0 0 0 0 0 0 0 0 0 0 0 0 0 0 0 0 0 0.25 0"/>
<feBlend mode="normal" in2="BackgroundImageFix" result="effect1_dropShadow"/>
<feBlend mode="normal" in="SourceGraphic" in2="effect1_dropShadow" result="shape"/>
</filter>
<filter id="filter2_d" x="165" y="171" width="126.181" height="114.36" filterUnits="userSpaceOnUse" color-interpolation-filters="sRGB">
<feFlood flood-opacity="0" result="BackgroundImageFix"/>
<feColorMatrix in="SourceAlpha" type="matrix" values="0 0 0 0 0 0 0 0 0 0 0 0 0 0 0 0 0 0 127 0"/>
<feOffset dy="38"/>
<feGaussianBlur stdDeviation="6"/>
<feColorMatrix type="matrix" values="0 0 0 0 0 0 0 0 0 0 0 0 0 0 0 0 0 0 0.25 0"/>
<feBlend mode="normal" in2="BackgroundImageFix" result="effect1_dropShadow"/>
<feBlend mode="normal" in="SourceGraphic" in2="effect1_dropShadow" result="shape"/>
</filter>
<filter id="filter3_d" x="136.92" y="269.824" width="100.602" height="27.416" filterUnits="userSpaceOnUse" color-interpolation-filters="sRGB">
<feFlood flood-opacity="0" result="BackgroundImageFix"/>
<feColorMatrix in="SourceAlpha" type="matrix" values="0 0 0 0 0 0 0 0 0 0 0 0 0 0 0 0 0 0 127 0"/>
<feOffset dy="1"/>
<feGaussianBlur stdDeviation="2"/>
<feColorMatrix type="matrix" values="0 0 0 0 0 0 0 0 0 0 0 0 0 0 0 0 0 0 0.25 0"/>
<feBlend mode="normal" in2="BackgroundImageFix" result="effect1_dropShadow"/>
<feBlend mode="normal" in="SourceGraphic" in2="effect1_dropShadow" result="shape"/>
</filter>
<filter id="filter4_d" x="145" y="0" width="82" height="82" filterUnits="userSpaceOnUse" color-interpolation-filters="sRGB">
<feFlood flood-opacity="0" result="BackgroundImageFix"/>
<feColorMatrix in="SourceAlpha" type="matrix" values="0 0 0 0 0 0 0 0 0 0 0 0 0 0 0 0 0 0 127 0"/>
<feOffset dy="4"/>
<feGaussianBlur stdDeviation="3"/>
<feColorMatrix type="matrix" values="0 0 0 0 0 0 0 0 0 0 0 0 0 0 0 0 0 0 0.25 0"/>
<feBlend mode="normal" in2="BackgroundImageFix" result="effect1_dropShadow"/>
<feBlend mode="normal" in="SourceGraphic" in2="effect1_dropShadow" result="shape"/>
</filter>
<filter id="filter5_d" x="0" y="165" width="72" height="72" filterUnits="userSpaceOnUse" color-interpolation-filters="sRGB">
<feFlood flood-opacity="0" result="BackgroundImageFix"/>
<feColorMatrix in="SourceAlpha" type="matrix" values="0 0 0 0 0 0 0 0 0 0 0 0 0 0 0 0 0 0 127 0"/>
<feOffset dy="4"/>
<feGaussianBlur stdDeviation="3"/>
<feColorMatrix type="matrix" values="0 0 0 0 0 0 0 0 0 0 0 0 0 0 0 0 0 0 0.25 0"/>
<feBlend mode="normal" in2="BackgroundImageFix" result="effect1_dropShadow"/>
<feBlend mode="normal" in="SourceGraphic" in2="effect1_dropShadow" result="shape"/>
</filter>
<filter id="filter6_d" x="280.674" y="140.673" width="96.1739" height="96.1739" filterUnits="userSpaceOnUse" color-interpolation-filters="sRGB">
<feFlood flood-opacity="0" result="BackgroundImageFix"/>
<feColorMatrix in="SourceAlpha" type="matrix" values="0 0 0 0 0 0 0 0 0 0 0 0 0 0 0 0 0 0 127 0"/>
<feOffset dy="4"/>
<feGaussianBlur stdDeviation="3"/>
<feColorMatrix type="matrix" values="0 0 0 0 0 0 0 0 0 0 0 0 0 0 0 0 0 0 0.25 0"/>
<feBlend mode="normal" in2="BackgroundImageFix" result="effect1_dropShadow"/>
<feBlend mode="normal" in="SourceGraphic" in2="effect1_dropShadow" result="shape"/>
</filter>
<linearGradient id="paint0_linear" x1="74.5" y1="91" x2="301" y2="286.5" gradientUnits="userSpaceOnUse">
<stop stop-color="#54A67F"/>
<stop offset="1" stop-color="#92FECA"/>
</linearGradient>
<linearGradient id="paint1_linear" x1="191.5" y1="268" x2="191.5" y2="298" gradientUnits="userSpaceOnUse">
<stop stop-color="#25148E"/>
<stop offset="1" stop-color="#8E1991"/>
</linearGradient>
<linearGradient id="paint2_linear" x1="167" y1="12" x2="198" y2="65.5" gradientUnits="userSpaceOnUse">
<stop stop-color="#B6EF88"/>
<stop offset="1" stop-color="#8EEAF0"/>
</linearGradient>
<linearGradient id="paint3_linear" x1="22.2857" y1="179" x2="54.4286" y2="210.714" gradientUnits="userSpaceOnUse">
<stop stop-color="#C0A9DD"/>
<stop offset="1" stop-color="#7885CC"/>
</linearGradient>
<linearGradient id="paint4_linear" x1="315.046" y1="166.76" x2="347.189" y2="198.475" gradientUnits="userSpaceOnUse">
<stop stop-color="#E7BC95"/>
<stop offset="1" stop-color="#E093E1"/>
</linearGradient>
</defs>
</svg>
