<svg width="146" height="502" viewBox="0 0 146 502" fill="none" xmlns="http://www.w3.org/2000/svg">
<path d="M145 16.1637H2L32 501.5H123.5L145 16.1637Z" fill="#FDFDFD" fill-opacity="0.88"/>
<path d="M145 16.1637H2L32 501.5H123.5L145 16.1637Z" fill="url(#paint0_linear)"/>
<path d="M25 0L0 16.1637H146L127 0H25Z" fill="white"/>
<path d="M92.9875 132.285V140.148H58.9875V132.285H71.44V96.4576C71.44 95.0409 71.4825 93.5817 71.5675 92.0801L62.7275 99.4751C62.2175 99.8717 61.7075 100.127 61.1975 100.24C60.7158 100.325 60.2483 100.325 59.795 100.24C59.37 100.155 58.9875 100.013 58.6475 99.8151C58.3075 99.5884 58.0525 99.3476 57.8825 99.0926L54.5675 94.5451L73.31 78.6076H81.9375V132.285H92.9875Z" fill="#FDEAF5"/>
<defs>
<linearGradient id="paint0_linear" x1="30" y1="23.3948" x2="61.534" y2="502.288" gradientUnits="userSpaceOnUse">
<stop stop-color="#AA20FE" stop-opacity="0.31"/>
<stop offset="0.296875" stop-color="#D5C21A" stop-opacity="0.33"/>
<stop offset="0.776042" stop-color="#FB0E71" stop-opacity="0"/>
<stop offset="1" stop-color="white" stop-opacity="0"/>
</linearGradient>
</defs>
</svg>
