<svg width="144" height="449" viewBox="0 0 144 449" fill="none" xmlns="http://www.w3.org/2000/svg">
<path d="M0 18.3192H120.5L143.5 451H76L0 18.3192Z" fill="#F9E2F4"/>
<path d="M0 18.3192H120.5L143.5 451H76L0 18.3192Z" fill="url(#paint0_linear)"/>
<path d="M29.0889 0L0 18.3191H119V0H29.0889Z" fill="white"/>
<path d="M92.3972 122.423C93.5258 122.32 94.4535 122.562 95.1804 123.149C95.9321 123.706 96.3707 124.505 96.4961 125.546L97.2485 131.791L55.2646 135.64L54.8477 132.18C54.763 131.477 54.816 130.732 55.0066 129.947C55.2221 129.131 55.617 128.384 56.1914 127.705L72.534 107.436C73.8961 105.719 75.0973 104.087 76.1377 102.541C77.2063 100.992 78.065 99.4775 78.7137 97.996C79.3625 96.5145 79.8121 95.037 80.0625 93.5636C80.3377 92.0594 80.3787 90.5056 80.1855 88.9022C80.0092 87.4395 79.6434 86.179 79.088 85.1207C78.5292 84.0343 77.8091 83.1476 76.9275 82.4605C76.0742 81.7709 75.0753 81.2936 73.9309 81.0288C72.8113 80.7333 71.5743 80.6477 70.22 80.7718C68.9785 80.8856 67.8437 81.1746 66.8156 81.6386C65.8123 82.0718 64.9406 82.6495 64.2003 83.3715C63.4566 84.0654 62.8535 84.8601 62.3908 85.7557C61.9282 86.6514 61.6168 87.6185 61.4567 88.657C61.1329 89.995 60.6156 90.9098 59.9046 91.4016C59.1937 91.8934 58.1051 92.0928 56.6391 91.9997L51.0202 91.5336C51.0909 88.5693 51.6008 85.9345 52.5496 83.6291C53.4951 81.2956 54.7826 79.3147 56.4122 77.6864C58.0665 76.0274 60.0205 74.7248 62.2743 73.7787C64.5528 72.8019 67.0464 72.1893 69.7551 71.941C72.5765 71.6823 75.2091 71.8675 77.6526 72.4967C80.0927 73.0978 82.2366 74.0815 84.0843 75.4479C85.932 76.8142 87.4502 78.5237 88.6389 80.5762C89.8276 82.6287 90.5795 84.963 90.8947 87.5791C91.1659 89.8295 91.0781 91.9421 90.6314 93.917C90.2129 95.8894 89.5444 97.7993 88.626 99.6468C87.7357 101.492 86.6412 103.299 85.3424 105.067C84.0436 106.836 82.6776 108.639 81.2445 110.477L69.1403 125.793C70.4189 125.277 71.6953 124.862 72.9695 124.546C74.2685 124.199 75.5105 123.972 76.6955 123.863L92.3972 122.423Z" fill="#FDEAF5"/>
<defs>
<linearGradient id="paint0_linear" x1="131.5" y1="239.894" x2="39" y2="239.894" gradientUnits="userSpaceOnUse">
<stop stop-color="#FA9ECF"/>
<stop offset="1" stop-color="#FA9FD0" stop-opacity="0.33"/>
</linearGradient>
</defs>
</svg>
