<svg width="136" height="428" viewBox="0 0 136 428" fill="none" xmlns="http://www.w3.org/2000/svg">
<path d="M135.056 22.0588H11.831L0.5 427.5H55.7387L135.056 22.0588Z" fill="#F9E2F4"/>
<path d="M135.056 22.0588H11.831L0.5 427.5H55.7387L135.056 22.0588Z" fill="url(#paint0_linear)"/>
<path d="M95.2265 0L136 22.0588H15.1359V0H95.2265Z" fill="white"/>
<path d="M42.3336 83.9902C43.0859 81.1035 44.1918 78.6217 45.6513 76.5446C47.114 74.4394 48.83 72.7433 50.7993 71.4565C52.8 70.1442 55.0117 69.237 57.4345 68.7348C59.8886 68.2073 62.4691 68.0764 65.1761 68.3423C67.9959 68.6192 70.4878 69.2767 72.6517 70.3148C74.8471 71.3275 76.6676 72.6307 78.1134 74.2245C79.5623 75.7902 80.602 77.5718 81.2326 79.5695C81.8914 81.5699 82.0957 83.6823 81.8455 85.9066C81.627 87.8494 81.2082 89.5447 80.5892 90.9927C80.0016 92.4152 79.2371 93.6354 78.2959 94.6532C77.3547 95.6709 76.235 96.5004 74.937 97.1415C73.639 97.7826 72.2002 98.2818 70.6205 98.639C74.1564 100.153 76.6936 102.182 78.2322 104.724C79.7709 107.266 80.3391 110.326 79.9369 113.901C79.5949 116.942 78.7285 119.576 77.3377 121.802C75.947 124.028 74.2026 125.849 72.1046 127.266C70.0099 128.654 67.6477 129.632 65.018 130.199C62.4166 130.769 59.706 130.916 56.8862 130.639C53.8127 130.337 51.1735 129.722 48.9686 128.794C46.7638 127.866 44.893 126.629 43.3564 125.083C41.8197 123.537 40.5716 121.706 39.6122 119.591C38.6527 117.476 37.8973 115.067 37.3459 112.366L42.17 110.918C43.4395 110.53 44.5816 110.514 45.5964 110.87C46.6426 111.201 47.3547 111.84 47.7327 112.788C48.1294 113.823 48.57 114.849 49.0545 115.864C49.5672 116.882 50.2037 117.813 50.9642 118.656C51.7278 119.472 52.6466 120.174 53.7206 120.763C54.8261 121.327 56.1683 121.687 57.7474 121.842C59.5239 122.016 61.1064 121.887 62.495 121.454C63.8868 120.993 65.072 120.341 66.0507 119.498C67.0575 118.657 67.8357 117.695 68.3854 116.61C68.9664 115.5 69.3218 114.368 69.4517 113.213C69.6163 111.749 69.6101 110.41 69.4329 109.197C69.2589 107.956 68.726 106.865 67.8341 105.923C66.9421 104.982 65.5926 104.18 63.7854 103.519C62.0064 102.86 59.566 102.378 56.4642 102.074L57.3003 94.6407C59.8695 94.8646 62.0253 94.8343 63.7678 94.55C65.5104 94.2657 66.9194 93.7778 67.995 93.0864C69.102 92.3695 69.9162 91.4674 70.4376 90.3799C70.9591 89.2925 71.2958 88.073 71.4478 86.7215C71.7708 83.8496 71.2126 81.5886 69.7732 79.9385C68.3338 78.2884 66.2747 77.3318 63.5959 77.0687C62.3552 76.9469 61.1926 77.0177 60.1081 77.2813C59.0268 77.5167 58.0268 77.9166 57.108 78.4811C56.2206 79.0202 55.4474 79.6844 54.7885 80.4737C54.1295 81.263 53.602 82.1506 53.206 83.1365C52.581 84.3846 51.85 85.181 51.0129 85.5258C50.2041 85.8734 49.1074 85.8653 47.7228 85.5016L42.3336 83.9902Z" fill="white" fill-opacity="0.69"/>
<defs>
<linearGradient id="paint0_linear" x1="12.7753" y1="185.294" x2="94.7776" y2="205.854" gradientUnits="userSpaceOnUse">
<stop stop-color="#FC1383" stop-opacity="0.33"/>
<stop offset="0.9999" stop-color="#FC1383" stop-opacity="0"/>
<stop offset="1" stop-color="white" stop-opacity="0"/>
</linearGradient>
</defs>
</svg>
