<svg width="98" height="81" viewBox="0 0 98 81" fill="none" xmlns="http://www.w3.org/2000/svg">
<circle cx="76.8106" cy="3.08207" r="4" transform="rotate(28.9843 76.8106 3.08207)" fill="#17182D"/>
<circle cx="92.5562" cy="11.8044" r="4" transform="rotate(28.9843 92.5562 11.8044)" fill="#17182D"/>
<circle cx="39.5047" cy="-3.86544" r="4" transform="rotate(28.9843 39.5047 -3.86544)" fill="#17182D"/>
<circle cx="55.2503" cy="4.85685" r="4" transform="rotate(28.9843 55.2503 4.85685)" fill="#17182D"/>
<circle cx="70.9958" cy="13.5791" r="4" transform="rotate(28.9843 70.9958 13.5791)" fill="#17182D"/>
<circle cx="86.7414" cy="22.3013" r="4" transform="rotate(28.9843 86.7414 22.3013)" fill="#17182D"/>
<circle cx="-5.315" cy="39.8975" r="4" transform="rotate(28.9843 -5.315 39.8975)" fill="#17182D"/>
<circle cx="10.4305" cy="48.6197" r="4" transform="rotate(28.9843 10.4305 48.6197)" fill="#17182D"/>
<circle cx="26.1761" cy="57.342" r="4" transform="rotate(28.9843 26.1761 57.342)" fill="#17182D"/>
<circle cx="41.9216" cy="66.0642" r="4" transform="rotate(28.9843 41.9216 66.0642)" fill="#17182D"/>
<circle cx="57.6672" cy="74.7865" r="4" transform="rotate(28.9843 57.6672 74.7865)" fill="#17182D"/>
<circle cx="0.499816" cy="29.4004" r="4" transform="rotate(28.9843 0.499816 29.4004)" fill="#17182D"/>
<circle cx="16.2454" cy="38.1227" r="4" transform="rotate(28.9843 16.2454 38.1227)" fill="#17182D"/>
<circle cx="31.9909" cy="46.8449" r="4" transform="rotate(28.9843 31.9909 46.8449)" fill="#17182D"/>
<circle cx="47.7365" cy="55.5672" r="4" transform="rotate(28.9843 47.7365 55.5672)" fill="#17182D"/>
<circle cx="63.482" cy="64.2895" r="4" transform="rotate(28.9843 63.482 64.2895)" fill="#17182D"/>
<circle cx="6.31464" cy="18.9034" r="4" transform="rotate(28.9843 6.31464 18.9034)" fill="#17182D"/>
<circle cx="22.0602" cy="27.6256" r="4" transform="rotate(28.9843 22.0602 27.6256)" fill="#17182D"/>
<circle cx="37.8057" cy="36.3479" r="4" transform="rotate(28.9843 37.8057 36.3479)" fill="#17182D"/>
<circle cx="53.5513" cy="45.0701" r="4" transform="rotate(28.9843 53.5513 45.0701)" fill="#17182D"/>
<circle cx="69.2968" cy="53.7924" r="4" transform="rotate(28.9843 69.2968 53.7924)" fill="#17182D"/>
<circle cx="-3.61603" cy="-0.315884" r="4" transform="rotate(28.9843 -3.61603 -0.315884)" fill="#17182D"/>
<circle cx="12.1295" cy="8.40641" r="4" transform="rotate(28.9843 12.1295 8.40641)" fill="#17182D"/>
<circle cx="27.8751" cy="17.1286" r="4" transform="rotate(28.9843 27.8751 17.1286)" fill="#17182D"/>
<circle cx="43.6205" cy="25.8509" r="4" transform="rotate(28.9843 43.6205 25.8509)" fill="#17182D"/>
<circle cx="59.3661" cy="34.5732" r="4" transform="rotate(28.9843 59.3661 34.5732)" fill="#17182D"/>
<circle cx="75.1116" cy="43.2954" r="4" transform="rotate(28.9843 75.1116 43.2954)" fill="#17182D"/>
<circle cx="17.9444" cy="-2.09066" r="4" transform="rotate(28.9843 17.9444 -2.09066)" fill="#17182D"/>
<circle cx="33.6899" cy="6.63163" r="4" transform="rotate(28.9843 33.6899 6.63163)" fill="#17182D"/>
<circle cx="49.4355" cy="15.3538" r="4" transform="rotate(28.9843 49.4355 15.3538)" fill="#17182D"/>
<circle cx="65.181" cy="24.0761" r="4" transform="rotate(28.9843 65.181 24.0761)" fill="#17182D"/>
<circle cx="80.9266" cy="32.7984" r="4" transform="rotate(28.9843 80.9266 32.7984)" fill="#17182D"/>
</svg>
