<svg width="62" height="116" viewBox="0 0 62 116" fill="none" xmlns="http://www.w3.org/2000/svg">
<circle cx="4" cy="112" r="4" transform="rotate(-90 4 112)" fill="#161727"/>
<circle cx="4" cy="94" r="4" transform="rotate(-90 4 94)" fill="#161727"/>
<circle cx="4" cy="76" r="4" transform="rotate(-90 4 76)" fill="#161727"/>
<circle cx="4" cy="58" r="4" transform="rotate(-90 4 58)" fill="#161727"/>
<circle cx="4" cy="40" r="4" transform="rotate(-90 4 40)" fill="#161727"/>
<circle cx="4" cy="22" r="4" transform="rotate(-90 4 22)" fill="#161727"/>
<circle cx="4" cy="4" r="4" transform="rotate(-90 4 4)" fill="#161727"/>
<circle cx="16" cy="112" r="4" transform="rotate(-90 16 112)" fill="#161727"/>
<circle cx="16" cy="94" r="4" transform="rotate(-90 16 94)" fill="#161727"/>
<circle cx="16" cy="76" r="4" transform="rotate(-90 16 76)" fill="#161727"/>
<circle cx="16" cy="58" r="4" transform="rotate(-90 16 58)" fill="#161727"/>
<circle cx="16" cy="40" r="4" transform="rotate(-90 16 40)" fill="#161727"/>
<circle cx="16" cy="22" r="4" transform="rotate(-90 16 22)" fill="#161727"/>
<circle cx="16" cy="4" r="4" transform="rotate(-90 16 4)" fill="#161727"/>
<circle cx="64" cy="112" r="4" transform="rotate(-90 64 112)" fill="#161727"/>
<circle cx="64" cy="94" r="4" transform="rotate(-90 64 94)" fill="#161727"/>
<circle cx="64" cy="76" r="4" transform="rotate(-90 64 76)" fill="#161727"/>
<circle cx="64" cy="58" r="4" transform="rotate(-90 64 58)" fill="#161727"/>
<circle cx="64" cy="40" r="4" transform="rotate(-90 64 40)" fill="#161727"/>
<circle cx="64" cy="22" r="4" transform="rotate(-90 64 22)" fill="#161727"/>
<circle cx="64" cy="4" r="4" transform="rotate(-90 64 4)" fill="#161727"/>
<circle cx="52" cy="112" r="4" transform="rotate(-90 52 112)" fill="#161727"/>
<circle cx="52" cy="94" r="4" transform="rotate(-90 52 94)" fill="#161727"/>
<circle cx="52" cy="76" r="4" transform="rotate(-90 52 76)" fill="#161727"/>
<circle cx="52" cy="58" r="4" transform="rotate(-90 52 58)" fill="#161727"/>
<circle cx="52" cy="40" r="4" transform="rotate(-90 52 40)" fill="#161727"/>
<circle cx="52" cy="22" r="4" transform="rotate(-90 52 22)" fill="#161727"/>
<circle cx="52" cy="4" r="4" transform="rotate(-90 52 4)" fill="#161727"/>
<circle cx="40" cy="112" r="4" transform="rotate(-90 40 112)" fill="#161727"/>
<circle cx="40" cy="94" r="4" transform="rotate(-90 40 94)" fill="#161727"/>
<circle cx="40" cy="76" r="4" transform="rotate(-90 40 76)" fill="#161727"/>
<circle cx="40" cy="58" r="4" transform="rotate(-90 40 58)" fill="#161727"/>
<circle cx="40" cy="40" r="4" transform="rotate(-90 40 40)" fill="#161727"/>
<circle cx="40" cy="22" r="4" transform="rotate(-90 40 22)" fill="#161727"/>
<circle cx="40" cy="4" r="4" transform="rotate(-90 40 4)" fill="#161727"/>
<circle cx="28" cy="112" r="4" transform="rotate(-90 28 112)" fill="#161727"/>
<circle cx="28" cy="94" r="4" transform="rotate(-90 28 94)" fill="#161727"/>
<circle cx="28" cy="76" r="4" transform="rotate(-90 28 76)" fill="#161727"/>
<circle cx="28" cy="58" r="4" transform="rotate(-90 28 58)" fill="#161727"/>
<circle cx="28" cy="40" r="4" transform="rotate(-90 28 40)" fill="#161727"/>
<circle cx="28" cy="22" r="4" transform="rotate(-90 28 22)" fill="#161727"/>
<circle cx="28" cy="4" r="4" transform="rotate(-90 28 4)" fill="#161727"/>
</svg>
