<svg width="588" height="429" viewBox="0 0 588 429" fill="none" xmlns="http://www.w3.org/2000/svg">
<circle cx="422" cy="213" r="150" fill="url(#paint0_linear)"/>
<circle cx="168" cy="213" r="150" fill="url(#paint1_linear)"/>
<g clip-path="url(#clip0)">
<path d="M369.108 99.1702L369.107 99.1664C335.613 99.1664 313.741 99.1664 279.91 99.1702H228.712H224.567H140C140 128.568 160.888 155.002 193.862 165.129L228.453 165.427C231.151 173.258 235.019 180.614 241.284 187.969C246.753 193.318 251.537 198.132 259.056 201.877C263.84 204.017 268.625 206.157 274.094 207.761C274.957 207.93 275.82 208.099 276.682 208.268V224.377H287.568V297.317L287.567 297.645C270.896 300.945 258.558 312.761 258.558 326.834H335.503C335.503 312.916 323.437 301.206 307.044 297.756L307.044 297.317V224.376H317.982V208.128C324.953 206.617 331.454 204.277 337.663 200.806C344.499 196.527 349.967 191.712 354.751 185.828C357.486 182.619 359.536 178.874 361.587 175.664C363.274 172.171 364.708 168.61 365.928 164.997L400.137 165.128C433.112 155.002 454 128.568 454 99.1702H369.108ZM224.879 148.382C224.879 148.801 224.879 149.137 224.879 149.456H195.407C178.155 141.336 165.003 127.255 162.125 113.174H224.703L224.879 148.382ZM369.903 113.174H431.875C428.996 127.255 415.843 141.335 398.593 149.456H369.833L369.903 113.174Z" fill="#FFCF00"/>
<path d="M224.703 149.441H196.073V271.219L209.372 261.344L224.412 271.478L224.703 149.441Z" fill="#0088FF"/>
<path d="M369.108 99.1702L369.107 99.1664C341.588 99.1664 321.908 99.1664 297 99.1683V326.834H335.504C335.504 312.915 323.437 301.205 307.045 297.756L307.044 297.316V224.376H317.982V208.129C324.954 206.618 331.454 204.278 337.664 200.807C344.499 196.527 349.968 191.713 354.752 185.828C357.487 182.619 359.536 178.874 361.588 175.664C363.274 172.171 364.709 168.61 365.929 164.997L400.137 165.129C433.112 155.002 454 128.568 454 99.1702H369.108ZM369.903 113.174H431.875C428.996 127.255 415.843 141.335 398.593 149.456H369.833L369.903 113.174Z" fill="#ECB300"/>
<path d="M307.043 224.373H287.568V229.041H307.043V224.373Z" fill="#ECB300"/>
<path d="M398.535 149.441H369.902V271.219L383.204 261.344L398.244 271.478L398.535 149.441Z" fill="#005FD3"/>
</g>
<g clip-path="url(#clip1)">
<path d="M109.015 176.173L105.168 185.872L110.977 194.54C111.889 195.9 110.845 197.716 109.21 197.612L98.7973 196.951L92.3488 205.154C91.3368 206.442 89.2875 206.01 88.8812 204.423L86.2927 194.315L76.4982 190.717C74.961 190.152 74.7386 188.07 76.1218 187.193L84.9349 181.608L85.33 171.181C85.3921 169.545 87.3037 168.69 88.5648 169.734L96.6004 176.39L106.639 173.544C108.215 173.097 109.619 174.651 109.015 176.173Z" fill="#FC4C59"/>
<path d="M116.908 217.712L113.668 222.775L116.003 228.315C116.37 229.184 115.58 230.097 114.667 229.859L108.85 228.342L104.303 232.275C103.589 232.892 102.478 232.423 102.422 231.481L102.066 225.48L96.9216 222.371C96.114 221.883 96.2166 220.681 97.0954 220.337L102.693 218.144L104.06 212.291C104.275 211.372 105.45 211.098 106.049 211.827L109.863 216.473L115.853 215.964C116.792 215.884 117.416 216.917 116.908 217.712Z" fill="#3CC247"/>
<path d="M71.3376 164.355L69.3987 170.045L72.9869 174.869C73.55 175.625 73.0006 176.7 72.0574 176.686L66.0467 176.6L62.5685 181.503C62.0225 182.273 60.8312 182.082 60.5524 181.181L58.7767 175.438L53.0387 173.645C52.1381 173.364 51.9511 172.172 52.7224 171.628L57.6358 168.165L57.5678 162.153C57.5571 161.21 58.633 160.664 59.3882 161.229L64.2006 164.831L69.8965 162.909C70.79 162.608 71.6418 163.462 71.3376 164.355Z" fill="#3CC247"/>
<path d="M67.3608 198.692C41.8628 222.89 24.7326 255.82 20.7598 292.692C20.6049 294.13 22.6651 294.531 23.0571 293.139C32.2429 260.487 52.0396 232.28 78.4905 212.473L67.3608 198.692Z" fill="#FFDB6C"/>
<path d="M44.8338 179.093C25.2254 199.834 17.5107 230.157 15.9123 260.227C15.85 261.399 17.5382 261.634 17.7946 260.488C23.8053 233.611 33.8896 206.999 54.4641 189.777L44.8338 179.093Z" fill="#FFDB6C"/>
<path d="M85.9672 225.266C61.596 240.123 48.959 253.626 38.1761 280.775C37.7428 281.866 39.2191 282.461 39.9233 281.522C56.6194 259.247 68.0717 249.314 92.4499 238.106L85.9672 225.266Z" fill="#FFDB6C"/>
<path d="M107.17 188.859L103.354 188.616C101.716 188.512 100.131 189.221 99.1168 190.512L96.3835 193.989C94.5145 196.366 90.7308 195.569 89.9806 192.639L88.8831 188.355C88.4758 186.764 87.312 185.476 85.7714 184.91L81.9427 183.504L76.1219 187.193C74.7384 188.07 74.9612 190.152 76.4983 190.717L86.2924 194.315L88.8813 204.423C89.2875 206.009 91.3368 206.441 92.3489 205.154L98.7973 196.95L109.21 197.612C110.845 197.716 111.889 195.9 110.977 194.54L107.17 188.859Z" fill="#E83A64"/>
<path d="M114.036 223.649L113.476 223.503C111.887 223.089 110.196 223.483 108.955 224.557C107.192 226.081 104.448 224.923 104.31 222.597C104.213 220.958 103.315 219.472 101.91 218.623L101.736 218.518L97.0936 220.337C96.2153 220.681 96.1125 221.883 96.9198 222.371L102.065 225.48L102.42 231.481C102.476 232.423 103.587 232.892 104.301 232.275L108.848 228.343L114.665 229.859C115.578 230.097 116.368 229.185 116.001 228.315L114.036 223.649Z" fill="#2DA85F"/>
<path d="M69.8624 170.669C68.221 170.645 66.673 171.431 65.7233 172.77C64.3752 174.67 61.4336 174.2 60.745 171.974C60.26 170.406 59.0344 169.177 57.4675 168.687L57.0706 168.563L52.7221 171.628C51.9509 172.172 52.1379 173.364 53.0385 173.645L58.7762 175.438L60.5519 181.181C60.8307 182.083 62.0222 182.273 62.568 181.504L66.0462 176.601L72.0572 176.686C73.0007 176.7 73.5498 175.626 72.9866 174.869L69.8624 170.669Z" fill="#2DA85F"/>
<path d="M74.5878 207.641C51.4367 225.16 33.4511 249.141 23.3081 276.9C22.1919 282.072 21.3357 287.34 20.7593 292.692C20.6044 294.13 22.6646 294.531 23.0566 293.139C32.2424 260.487 52.0389 232.28 78.4897 212.473L74.5878 207.641Z" fill="#FFB966"/>
<path d="M51.4739 186.459C32.3638 202.886 22.4639 227.514 16.4391 252.761C16.2196 255.247 16.0445 257.738 15.9123 260.227C15.85 261.399 17.5382 261.634 17.7946 260.488C23.8053 233.611 33.8896 207 54.4641 189.777L51.4739 186.459Z" fill="#FFB966"/>
<path d="M90.0985 233.448C68.0896 243.681 56.7119 252.998 42.0255 271.844C40.7072 274.653 39.4292 277.621 38.1766 280.775C37.7433 281.867 39.2196 282.461 39.9238 281.522C56.6199 259.247 68.0722 249.315 92.4504 238.106L90.0985 233.448Z" fill="#FFB966"/>
</g>
<path d="M478.985 176.173L482.832 185.872L477.023 194.54C476.111 195.9 477.155 197.716 478.79 197.612L489.203 196.951L495.651 205.154C496.663 206.442 498.712 206.01 499.119 204.423L501.707 194.315L511.502 190.717C513.039 190.152 513.261 188.07 511.878 187.193L503.065 181.608L502.67 171.181C502.608 169.545 500.696 168.69 499.435 169.734L491.4 176.39L481.361 173.544C479.785 173.097 478.381 174.651 478.985 176.173Z" fill="#FC4C59"/>
<path d="M471.092 217.712L474.332 222.775L471.997 228.315C471.63 229.184 472.42 230.097 473.333 229.859L479.15 228.342L483.697 232.275C484.411 232.892 485.522 232.423 485.578 231.481L485.934 225.48L491.078 222.371C491.886 221.883 491.783 220.681 490.905 220.337L485.307 218.144L483.94 212.291C483.725 211.372 482.55 211.098 481.951 211.827L478.137 216.473L472.147 215.964C471.208 215.884 470.584 216.917 471.092 217.712Z" fill="#3CC247"/>
<path d="M516.662 164.355L518.601 170.045L515.013 174.869C514.45 175.625 514.999 176.7 515.943 176.686L521.953 176.6L525.432 181.503C525.978 182.273 527.169 182.082 527.448 181.181L529.223 175.438L534.961 173.645C535.862 173.364 536.049 172.172 535.278 171.628L530.364 168.165L530.432 162.153C530.443 161.21 529.367 160.664 528.612 161.229L523.799 164.831L518.104 162.909C517.21 162.608 516.358 163.462 516.662 164.355Z" fill="#3CC247"/>
<path d="M520.639 198.692C546.137 222.89 563.267 255.82 567.24 292.692C567.395 294.13 565.335 294.531 564.943 293.139C555.757 260.487 535.96 232.28 509.51 212.473L520.639 198.692Z" fill="#FFDB6C"/>
<path d="M543.166 179.093C562.775 199.834 570.489 230.157 572.088 260.227C572.15 261.399 570.462 261.634 570.205 260.488C564.195 233.611 554.11 206.999 533.536 189.777L543.166 179.093Z" fill="#FFDB6C"/>
<path d="M502.033 225.266C526.404 240.123 539.041 253.626 549.824 280.775C550.257 281.866 548.781 282.461 548.077 281.522C531.381 259.247 519.928 249.314 495.55 238.106L502.033 225.266Z" fill="#FFDB6C"/>
<path d="M480.83 188.859L484.646 188.616C486.284 188.512 487.869 189.221 488.883 190.512L491.616 193.989C493.485 196.366 497.269 195.569 498.019 192.639L499.117 188.355C499.524 186.764 500.688 185.476 502.229 184.91L506.057 183.504L511.878 187.193C513.262 188.07 513.039 190.152 511.502 190.717L501.708 194.315L499.119 204.423C498.712 206.009 496.663 206.441 495.651 205.154L489.203 196.95L478.79 197.612C477.155 197.716 476.111 195.9 477.023 194.54L480.83 188.859Z" fill="#E83A64"/>
<path d="M473.964 223.649L474.524 223.503C476.113 223.089 477.804 223.483 479.045 224.557C480.808 226.081 483.552 224.923 483.69 222.597C483.787 220.958 484.685 219.472 486.09 218.623L486.264 218.518L490.906 220.337C491.785 220.681 491.888 221.883 491.08 222.371L485.935 225.48L485.58 231.481C485.524 232.423 484.413 232.892 483.699 232.275L479.152 228.343L473.335 229.859C472.422 230.097 471.632 229.185 471.999 228.315L473.964 223.649Z" fill="#2DA85F"/>
<path d="M518.138 170.669C519.779 170.645 521.327 171.431 522.277 172.77C523.625 174.67 526.566 174.2 527.255 171.974C527.74 170.406 528.966 169.177 530.533 168.687L530.929 168.563L535.278 171.628C536.049 172.172 535.862 173.364 534.961 173.645L529.224 175.438L527.448 181.181C527.169 182.083 525.978 182.273 525.432 181.504L521.954 176.601L515.943 176.686C514.999 176.7 514.45 175.626 515.013 174.869L518.138 170.669Z" fill="#2DA85F"/>
<path d="M513.412 207.641C536.563 225.16 554.549 249.141 564.692 276.9C565.808 282.072 566.664 287.34 567.241 292.692C567.396 294.13 565.335 294.531 564.943 293.139C555.758 260.487 535.961 232.28 509.51 212.473L513.412 207.641Z" fill="#FFB966"/>
<path d="M536.526 186.459C555.636 202.886 565.536 227.514 571.561 252.761C571.78 255.247 571.955 257.738 572.088 260.227C572.15 261.399 570.462 261.634 570.205 260.488C564.195 233.611 554.11 207 533.536 189.777L536.526 186.459Z" fill="#FFB966"/>
<path d="M497.902 233.448C519.91 243.681 531.288 252.998 545.974 271.844C547.293 274.653 548.571 277.621 549.823 280.775C550.257 281.867 548.78 282.461 548.076 281.522C531.38 259.247 519.928 249.315 495.55 238.106L497.902 233.448Z" fill="#FFB966"/>
<path d="M146 285H214.311L297 390H228.689L146 285Z" fill="#AEA930"/>
<path d="M214 284.887V249L313 371.2L297.508 391L214 284.887Z" fill="#9B9729"/>
<path d="M448 285H379.689L297 391H365.311L448 285Z" fill="#AEA930"/>
<path d="M380 284.403V247L297 349.234V391L380 284.403Z" fill="#9B9729"/>
<rect x="146" y="247" width="68" height="38" fill="#E3DD47"/>
<rect x="380" y="247" width="68" height="38" fill="#E3DD47"/>
<path d="M272.383 250H325L321.617 360.253L297.188 391L269 354.974L272.383 250Z" fill="#AEA930"/>
<path d="M272 218H325V253H272V218Z" fill="#E3DD47"/>
<path d="M303.08 247H298V227.418L291.936 229.299V225.168L302.535 221.371H303.08V247Z" fill="#F24444"/>
<path d="M187.283 280H169.74V276.52L178.02 267.695C179.156 266.453 179.994 265.369 180.533 264.443C181.084 263.518 181.359 262.639 181.359 261.807C181.359 260.67 181.072 259.779 180.498 259.135C179.924 258.479 179.104 258.15 178.037 258.15C176.889 258.15 175.98 258.549 175.312 259.346C174.656 260.131 174.328 261.168 174.328 262.457H169.23C169.23 260.898 169.6 259.475 170.338 258.186C171.088 256.896 172.143 255.889 173.502 255.162C174.861 254.424 176.402 254.055 178.125 254.055C180.762 254.055 182.807 254.688 184.26 255.953C185.725 257.219 186.457 259.006 186.457 261.314C186.457 262.58 186.129 263.869 185.473 265.182C184.816 266.494 183.691 268.023 182.098 269.77L176.279 275.904H187.283V280Z" fill="#F24444"/>
<path d="M412.908 264.953H415.615C416.904 264.953 417.859 264.631 418.48 263.986C419.102 263.342 419.412 262.486 419.412 261.42C419.412 260.389 419.102 259.586 418.48 259.012C417.871 258.438 417.027 258.15 415.949 258.15C414.977 258.15 414.162 258.42 413.506 258.959C412.85 259.486 412.521 260.178 412.521 261.033H407.441C407.441 259.697 407.799 258.502 408.514 257.447C409.24 256.381 410.248 255.549 411.537 254.951C412.838 254.354 414.268 254.055 415.826 254.055C418.533 254.055 420.654 254.705 422.189 256.006C423.725 257.295 424.492 259.076 424.492 261.35C424.492 262.521 424.135 263.6 423.42 264.584C422.705 265.568 421.768 266.324 420.607 266.852C422.049 267.367 423.121 268.141 423.824 269.172C424.539 270.203 424.896 271.422 424.896 272.828C424.896 275.102 424.064 276.924 422.4 278.295C420.748 279.666 418.557 280.352 415.826 280.352C413.271 280.352 411.18 279.678 409.551 278.33C407.934 276.982 407.125 275.201 407.125 272.986H412.205C412.205 273.947 412.562 274.732 413.277 275.342C414.004 275.951 414.895 276.256 415.949 276.256C417.156 276.256 418.1 275.939 418.779 275.307C419.471 274.662 419.816 273.812 419.816 272.758C419.816 270.203 418.41 268.926 415.598 268.926H412.908V264.953Z" fill="#F24444"/>
<path d="M216.355 394.062V406.035H163.972V389.962H216.355V394.062Z" fill="#DDB200"/>
<path d="M446.156 394.062V406.035H393.773V389.962H446.156V394.062Z" fill="#DDB200"/>
<path d="M437.451 394.062H172.422V339.249C172.422 337.993 176.229 336.965 180.883 336.965H428.99C433.645 336.965 437.452 337.993 437.452 339.249L437.451 394.062Z" fill="#FFE477"/>
<path d="M172.422 356.24H92.1272L112.381 381.137L92.1272 406.035H216.354L172.422 394.062V356.24Z" fill="#FFEB99"/>
<path d="M437.706 356.24H518L497.746 381.137L518 406.035H393.773L437.451 394.062L437.706 356.24Z" fill="#FFEB99"/>
<path d="M212.486 336.965V352.603C212.486 353.571 209.58 354.356 205.993 354.356C202.406 354.356 199.5 353.571 199.5 352.603V336.965H212.486Z" fill="#FFEB99"/>
<path d="M205.993 388.342C202.406 388.342 199.5 387.557 199.5 386.589V369.813C199.5 368.845 202.406 368.06 205.993 368.06C209.58 368.06 212.486 368.845 212.486 369.813V386.589C212.486 387.557 209.58 388.342 205.993 388.342Z" fill="#FFEB99"/>
<path d="M393.773 386.13C390.186 386.13 387.28 385.345 387.28 384.377V373.978C387.28 373.01 390.186 372.225 393.773 372.225C397.36 372.225 400.266 373.01 400.266 373.978V384.377C400.266 385.345 397.36 386.13 393.773 386.13Z" fill="#FFEB99"/>
<path d="M295.625 366.998L287 359.165L299.32 357.573L305.198 348L310.741 357.724L323 359.64L314.106 367.242L315.804 378L304.764 372.974L293.555 377.706L295.625 366.998Z" fill="#DDB200"/>
<g opacity="0.33">
<path opacity="0.33" d="M99.7612 396.495L92 406.035H163.845H216.227V396.495H163.845H99.7612Z" fill="#DDB200"/>
<path opacity="0.33" d="M437.453 384.52H172.42V394.061H437.453V384.52Z" fill="#DDB200"/>
<path opacity="0.33" d="M446.029 396.495H393.646V406.035H446.029H517.873L510.112 396.495H446.029Z" fill="#DDB200"/>
</g>
<path d="M69.1133 28.3564C68.057 28.446 67.0902 28.5444 66.2129 28.6519C65.3356 28.7414 64.4941 28.8398 63.6885 28.9473V56.125C64.8701 56.2861 66.1771 56.4294 67.6094 56.5547C69.0417 56.68 70.5993 56.7695 72.2822 56.8232C72.8193 56.859 73.3475 56.877 73.8667 56.877C74.3859 56.877 74.9141 56.877 75.4512 56.877C75.9883 56.877 76.5254 56.877 77.0625 56.877C77.5996 56.877 78.1367 56.859 78.6738 56.8232C80.679 56.7695 82.4604 56.6711 84.0181 56.5278C85.5936 56.3667 87.0169 56.1608 88.2881 55.9102C88.6104 54.1377 88.8789 51.9893 89.0938 49.4648H95.2168C95.1094 51.3805 94.9572 53.341 94.7603 55.3462C94.5633 57.3335 94.2858 59.3835 93.9277 61.4961C90.526 62.069 87.2855 62.4539 84.2061 62.6509C81.1445 62.8478 78.262 62.9463 75.5586 62.9463C72.7835 62.9463 69.8473 62.8478 66.75 62.6509C63.6527 62.4539 60.43 62.069 57.082 61.4961V23.5225C59.2126 23.1465 61.2715 22.869 63.2588 22.6899C65.264 22.493 67.2155 22.3408 69.1133 22.2334V28.3564ZM118.366 22.126C121.123 22.126 124.042 22.2244 127.121 22.4214C130.218 22.6183 133.441 23.0033 136.789 23.5762V30.3975C135.285 29.9678 133.763 29.6187 132.224 29.3501C130.684 29.0636 129.135 28.8398 127.578 28.6787C126.038 28.5176 124.498 28.4012 122.958 28.3296C121.419 28.258 119.888 28.2132 118.366 28.1953C117.632 28.1953 116.818 28.2132 115.922 28.249C115.045 28.2669 114.105 28.3027 113.103 28.3564C112.118 28.4102 111.079 28.4907 109.987 28.5981C108.895 28.7056 107.785 28.8398 106.657 29.001V38.7764H130.129V45.3828H106.657V56.1787C108.394 56.4294 110.202 56.6174 112.082 56.7427C113.962 56.868 116.057 56.9307 118.366 56.9307C121.481 56.9307 124.579 56.7785 127.658 56.4741C130.738 56.1698 133.781 55.5879 136.789 54.7285V61.5498C133.441 62.1227 130.227 62.5076 127.148 62.7046C124.069 62.9015 121.177 63 118.474 63C115.716 63 112.789 62.9015 109.692 62.7046C106.612 62.5076 103.381 62.1227 99.9971 61.5498V23.5762C103.381 23.0033 106.612 22.6183 109.692 22.4214C112.771 22.2244 115.663 22.126 118.366 22.126ZM162.678 21.0518C163.788 21.0518 164.916 21.1681 166.062 21.4009C167.207 21.6157 168.228 21.9111 169.123 22.2871C170.699 25.0443 172.131 27.8551 173.42 30.7197C174.727 33.5664 175.891 36.5026 176.911 39.5283C177.609 39.6178 178.317 39.7163 179.033 39.8237C179.749 39.9132 180.474 40.0117 181.208 40.1191V46.9941L178.898 46.3496C179.543 49.0173 180.089 51.7386 180.537 54.5137C180.984 57.2887 181.315 60.1175 181.53 63H175.139C174.87 59.9206 174.423 56.877 173.796 53.8691C173.169 50.8613 172.453 47.9788 171.647 45.2217C169.911 45.0785 168.255 44.971 166.679 44.8994C165.122 44.8278 163.788 44.792 162.678 44.792C161.192 44.792 159.715 44.8188 158.247 44.8726C156.778 44.9263 155.301 45.0247 153.815 45.168C153.01 47.9251 152.285 50.8076 151.64 53.8154C151.014 56.8232 150.575 59.8848 150.324 63H143.933C144.13 60.1175 144.443 57.2977 144.873 54.5405C145.32 51.7834 145.866 49.071 146.511 46.4033L144.416 46.9941V40.1191L148.552 39.5283C149.554 36.5026 150.7 33.5664 151.989 30.7197C153.296 27.8551 154.746 25.0443 156.34 22.2871C157.235 21.9111 158.247 21.6157 159.375 21.4009C160.502 21.1681 161.604 21.0518 162.678 21.0518ZM162.678 38.7227C163.752 38.7227 164.862 38.7406 166.008 38.7764C167.154 38.7943 168.335 38.848 169.553 38.9375C168.64 36.4489 167.736 34.2915 166.84 32.4653C165.963 30.6213 165.202 29.1979 164.558 28.1953C164.235 28.0521 163.931 27.9536 163.645 27.8999C163.358 27.8462 163.036 27.8193 162.678 27.8193C162.105 27.8193 161.514 27.9447 160.905 28.1953C160.261 29.1979 159.491 30.6213 158.596 32.4653C157.701 34.2915 156.805 36.4489 155.91 38.9375C157.092 38.848 158.247 38.7943 159.375 38.7764C160.52 38.7406 161.621 38.7227 162.678 38.7227ZM205.861 22.0723C208.618 22.0723 211.215 22.314 213.649 22.7974C216.084 23.2808 218.215 23.9521 220.041 24.8115C221.867 25.6709 223.308 26.7093 224.365 27.9268C225.421 29.1263 225.949 30.4512 225.949 31.9014V53.2783C225.949 54.7285 225.421 56.0623 224.365 57.2798C223.308 58.4793 221.867 59.5088 220.041 60.3682C218.215 61.2275 216.084 61.8989 213.649 62.3823C211.215 62.8657 208.618 63.1074 205.861 63.1074C204.322 63.1074 202.746 63.0537 201.135 62.9463C199.523 62.821 197.957 62.6688 196.435 62.4897C194.931 62.2928 193.517 62.069 192.192 61.8184C190.867 61.5677 189.73 61.2992 188.781 61.0127V24.167C189.73 23.8805 190.867 23.612 192.192 23.3613C193.517 23.1107 194.931 22.8958 196.435 22.7168C197.957 22.5199 199.523 22.3677 201.135 22.2603C202.746 22.1349 204.322 22.0723 205.861 22.0723ZM205.969 28.1416C204.34 28.1416 202.925 28.1953 201.726 28.3027C200.526 28.3923 199.497 28.5176 198.637 28.6787C197.778 28.8219 197.062 28.9831 196.489 29.1621C195.934 29.3232 195.477 29.4665 195.119 29.5918V55.5879C195.477 55.7311 195.934 55.8833 196.489 56.0444C197.062 56.2056 197.778 56.3667 198.637 56.5278C199.497 56.6711 200.526 56.7964 201.726 56.9038C202.925 56.9933 204.34 57.0381 205.969 57.0381C207.974 57.0381 209.773 56.877 211.367 56.5547C212.978 56.2324 214.33 55.8027 215.422 55.2656C216.532 54.7285 217.382 54.1108 217.973 53.4126C218.564 52.6965 218.859 51.9535 218.859 51.1836V33.9961C218.859 33.2262 218.564 32.4922 217.973 31.7939C217.382 31.0778 216.532 30.4512 215.422 29.9141C214.33 29.377 212.978 28.9473 211.367 28.625C209.773 28.3027 207.974 28.1416 205.969 28.1416ZM251.623 22.126C254.38 22.126 257.299 22.2244 260.378 22.4214C263.475 22.6183 266.698 23.0033 270.046 23.5762V30.3975C268.542 29.9678 267.02 29.6187 265.48 29.3501C263.941 29.0636 262.392 28.8398 260.834 28.6787C259.295 28.5176 257.755 28.4012 256.215 28.3296C254.676 28.258 253.145 28.2132 251.623 28.1953C250.889 28.1953 250.074 28.2132 249.179 28.249C248.302 28.2669 247.362 28.3027 246.359 28.3564C245.375 28.4102 244.336 28.4907 243.244 28.5981C242.152 28.7056 241.042 28.8398 239.914 29.001V38.7764H263.386V45.3828H239.914V56.1787C241.651 56.4294 243.459 56.6174 245.339 56.7427C247.219 56.868 249.313 56.9307 251.623 56.9307C254.738 56.9307 257.836 56.7785 260.915 56.4741C263.994 56.1698 267.038 55.5879 270.046 54.7285V61.5498C266.698 62.1227 263.484 62.5076 260.405 62.7046C257.325 62.9015 254.434 63 251.73 63C248.973 63 246.046 62.9015 242.949 62.7046C239.869 62.5076 236.638 62.1227 233.254 61.5498V23.5762C236.638 23.0033 239.869 22.6183 242.949 22.4214C246.028 22.2244 248.92 22.126 251.623 22.126ZM292.282 21.9648C294.073 21.9648 295.899 22.0544 297.761 22.2334C299.641 22.3945 301.467 22.6899 303.239 23.1196C305.012 23.5314 306.677 24.1133 308.234 24.8652C309.792 25.5993 311.153 26.5392 312.316 27.6851C313.498 28.813 314.429 30.1737 315.109 31.7671C315.79 33.3426 316.13 35.1956 316.13 37.3262C316.13 40.2624 315.602 42.742 314.545 44.7651C313.489 46.7703 312.048 48.3906 310.222 49.626C310.992 50.8076 311.654 52.043 312.209 53.332C312.764 54.6211 313.212 55.8743 313.552 57.0918C313.91 58.2913 314.169 59.4103 314.331 60.4487C314.492 61.4871 314.572 62.3555 314.572 63.0537H307.697C307.697 61.9616 307.608 60.9321 307.429 59.9653C307.25 58.9806 306.999 58.0496 306.677 57.1724C306.354 56.2772 305.979 55.4357 305.549 54.6479C305.137 53.8602 304.689 53.0993 304.206 52.3652C302.505 52.8486 300.706 53.1978 298.808 53.4126C296.91 53.6095 294.932 53.708 292.873 53.708C291.638 53.708 290.384 53.6722 289.113 53.6006C287.842 53.529 286.589 53.4395 285.354 53.332V62.9463H278.693V23.5225C279.087 23.3971 279.714 23.245 280.573 23.0659C281.451 22.8869 282.48 22.7168 283.662 22.5557C284.861 22.3945 286.195 22.2603 287.663 22.1528C289.131 22.0275 290.671 21.9648 292.282 21.9648ZM294.216 27.873C293.034 27.873 291.906 27.9268 290.832 28.0342C289.758 28.1237 288.818 28.2311 288.012 28.3564C287.045 28.4997 286.159 28.6608 285.354 28.8398V47.209C285.926 47.3343 286.562 47.4417 287.26 47.5312C287.851 47.6208 288.54 47.7013 289.328 47.7729C290.116 47.8267 290.957 47.8535 291.853 47.8535C293.016 47.8535 294.243 47.8267 295.532 47.7729C296.839 47.7013 298.128 47.5492 299.399 47.3164C300.688 47.0837 301.905 46.7435 303.051 46.2959C304.215 45.8304 305.236 45.2217 306.113 44.4697C307.008 43.6999 307.715 42.751 308.234 41.623C308.771 40.4951 309.04 39.1344 309.04 37.541C309.04 36.2161 308.825 35.0524 308.396 34.0498C307.966 33.0472 307.384 32.1878 306.65 31.4717C305.916 30.7555 305.056 30.1647 304.072 29.6992C303.105 29.2337 302.067 28.8667 300.957 28.5981C299.864 28.3296 298.736 28.1416 297.573 28.0342C296.427 27.9268 295.308 27.873 294.216 27.873ZM340.139 21.6963C342.896 21.6963 345.349 21.938 347.497 22.4214C349.663 22.9048 351.49 23.5762 352.976 24.4355C354.479 25.2949 355.625 26.3333 356.413 27.5508C357.201 28.7503 357.595 30.0752 357.595 31.5254V35.4463C357.595 36.986 357.29 38.2303 356.682 39.1792C356.091 40.1281 355.267 40.889 354.211 41.4619C355.088 41.7126 355.894 42.0348 356.628 42.4287C357.38 42.8226 358.015 43.306 358.535 43.8789C359.072 44.4339 359.484 45.0874 359.77 45.8394C360.074 46.5734 360.227 47.4238 360.227 48.3906V53.6543C360.227 55.1045 359.698 56.4383 358.642 57.6558C357.586 58.8553 356.145 59.8937 354.318 60.771C352.492 61.6483 350.362 62.3286 347.927 62.812C345.492 63.2954 342.896 63.5371 340.139 63.5371C338.599 63.5371 337.023 63.4744 335.412 63.3491C333.801 63.2417 332.234 63.0895 330.712 62.8926C329.208 62.6956 327.794 62.4718 326.469 62.2212C325.144 61.9705 324.007 61.7109 323.059 61.4424V23.7373C324.007 23.4688 325.144 23.2181 326.469 22.9854C327.794 22.7347 329.208 22.5199 330.712 22.3408C332.234 22.1439 333.801 21.9917 335.412 21.8843C337.023 21.759 338.599 21.6963 340.139 21.6963ZM339.924 45.168C338.957 45.168 337.99 45.1769 337.023 45.1948C336.057 45.1948 335.117 45.2217 334.204 45.2754C333.308 45.3112 332.449 45.3739 331.625 45.4634C330.802 45.5529 330.059 45.6693 329.396 45.8125V56.0176C329.755 56.1429 330.211 56.2861 330.766 56.4473C331.339 56.6084 332.055 56.7606 332.915 56.9038C333.774 57.047 334.803 57.1724 336.003 57.2798C337.202 57.3693 338.617 57.4141 340.246 57.4141C342.251 57.4141 344.051 57.2529 345.644 56.9307C347.255 56.6084 348.607 56.1787 349.699 55.6416C350.809 55.1045 351.66 54.4868 352.25 53.7886C352.841 53.0724 353.137 52.3294 353.137 51.5596V49.25C353.137 48.4085 352.761 47.7192 352.009 47.1821C351.257 46.645 350.263 46.2332 349.028 45.9468C347.792 45.6424 346.378 45.4365 344.785 45.3291C343.209 45.2217 341.589 45.168 339.924 45.168ZM329.396 38.5078C330.507 38.7227 331.769 38.8659 333.183 38.9375C334.615 39.0091 336.236 39.0449 338.044 39.0449C339.602 39.0449 341.15 38.9912 342.69 38.8838C344.23 38.7585 345.617 38.5615 346.853 38.293C348.088 38.0065 349.09 37.6305 349.86 37.165C350.63 36.6816 351.024 36.0729 351.042 35.3389V33.6201C351.042 32.8503 350.854 32.1162 350.478 31.418C350.12 30.7018 349.511 30.0752 348.652 29.5381C347.81 29.001 346.7 28.5713 345.322 28.249C343.943 27.9268 342.251 27.7656 340.246 27.7656C338.617 27.7656 337.202 27.8193 336.003 27.9268C334.803 28.0163 333.774 28.1326 332.915 28.2759C332.055 28.4191 331.339 28.5713 330.766 28.7324C330.211 28.8936 329.755 29.0368 329.396 29.1621V38.5078ZM386.491 21.4277C388.282 21.4277 390.018 21.5352 391.701 21.75C393.384 21.9648 394.96 22.2782 396.428 22.6899C397.896 23.0838 399.239 23.5672 400.456 24.1401C401.674 24.6951 402.712 25.3307 403.571 26.0469C404.431 26.763 405.102 27.5508 405.585 28.4102C406.069 29.2516 406.311 30.1468 406.311 31.0957V54.1377C406.311 55.0866 406.069 55.9907 405.585 56.8501C405.102 57.6916 404.431 58.4704 403.571 59.1865C402.712 59.9027 401.674 60.5472 400.456 61.1201C399.239 61.6751 397.896 62.1585 396.428 62.5703C394.96 62.9642 393.384 63.2686 391.701 63.4834C390.018 63.6982 388.282 63.8057 386.491 63.8057C384.701 63.8057 382.964 63.6982 381.281 63.4834C379.616 63.2686 378.05 62.9642 376.582 62.5703C375.131 62.1585 373.798 61.6751 372.58 61.1201C371.363 60.5472 370.315 59.9027 369.438 59.1865C368.579 58.4704 367.907 57.6916 367.424 56.8501C366.958 55.9907 366.726 55.0866 366.726 54.1377V31.0957C366.726 30.1468 366.958 29.2516 367.424 28.4102C367.907 27.5508 368.579 26.763 369.438 26.0469C370.315 25.3307 371.363 24.6951 372.58 24.1401C373.798 23.5672 375.131 23.0838 376.582 22.6899C378.05 22.2782 379.616 21.9648 381.281 21.75C382.964 21.5352 384.701 21.4277 386.491 21.4277ZM399.274 33.1367C399.274 32.3669 398.979 31.6418 398.388 30.9614C397.797 30.2632 396.947 29.6545 395.837 29.1353C394.745 28.5981 393.411 28.1774 391.835 27.873C390.26 27.5508 388.479 27.3896 386.491 27.3896C384.576 27.3896 382.839 27.5418 381.281 27.8462C379.724 28.1326 378.381 28.5355 377.253 29.0547C376.143 29.5739 375.284 30.1826 374.675 30.8809C374.066 31.5791 373.762 32.3311 373.762 33.1367V52.0967C373.762 52.8844 374.066 53.6274 374.675 54.3257C375.284 55.0239 376.143 55.6326 377.253 56.1519C378.381 56.6711 379.724 57.0828 381.281 57.3872C382.839 57.6916 384.576 57.8438 386.491 57.8438C388.479 57.8438 390.26 57.6916 391.835 57.3872C393.411 57.0649 394.745 56.6353 395.837 56.0981C396.947 55.561 397.797 54.9523 398.388 54.272C398.979 53.5737 399.274 52.8486 399.274 52.0967V33.1367ZM432.468 21.0518C433.578 21.0518 434.706 21.1681 435.852 21.4009C436.997 21.6157 438.018 21.9111 438.913 22.2871C440.489 25.0443 441.921 27.8551 443.21 30.7197C444.517 33.5664 445.681 36.5026 446.701 39.5283C447.399 39.6178 448.107 39.7163 448.823 39.8237C449.539 39.9132 450.264 40.0117 450.998 40.1191V46.9941L448.688 46.3496C449.333 49.0173 449.879 51.7386 450.327 54.5137C450.774 57.2887 451.105 60.1175 451.32 63H444.929C444.66 59.9206 444.213 56.877 443.586 53.8691C442.959 50.8613 442.243 47.9788 441.438 45.2217C439.701 45.0785 438.045 44.971 436.469 44.8994C434.912 44.8278 433.578 44.792 432.468 44.792C430.982 44.792 429.505 44.8188 428.037 44.8726C426.569 44.9263 425.091 45.0247 423.605 45.168C422.8 47.9251 422.075 50.8076 421.43 53.8154C420.804 56.8232 420.365 59.8848 420.114 63H413.723C413.92 60.1175 414.233 57.2977 414.663 54.5405C415.11 51.7834 415.656 49.071 416.301 46.4033L414.206 46.9941V40.1191L418.342 39.5283C419.344 36.5026 420.49 33.5664 421.779 30.7197C423.086 27.8551 424.536 25.0443 426.13 22.2871C427.025 21.9111 428.037 21.6157 429.165 21.4009C430.292 21.1681 431.394 21.0518 432.468 21.0518ZM432.468 38.7227C433.542 38.7227 434.652 38.7406 435.798 38.7764C436.944 38.7943 438.125 38.848 439.343 38.9375C438.43 36.4489 437.526 34.2915 436.63 32.4653C435.753 30.6213 434.992 29.1979 434.348 28.1953C434.025 28.0521 433.721 27.9536 433.435 27.8999C433.148 27.8462 432.826 27.8193 432.468 27.8193C431.895 27.8193 431.304 27.9447 430.695 28.1953C430.051 29.1979 429.281 30.6213 428.386 32.4653C427.491 34.2915 426.595 36.4489 425.7 38.9375C426.882 38.848 428.037 38.7943 429.165 38.7764C430.31 38.7406 431.411 38.7227 432.468 38.7227ZM474.094 21.9648C475.884 21.9648 477.71 22.0544 479.572 22.2334C481.452 22.3945 483.278 22.6899 485.051 23.1196C486.823 23.5314 488.488 24.1133 490.046 24.8652C491.604 25.5993 492.964 26.5392 494.128 27.6851C495.31 28.813 496.241 30.1737 496.921 31.7671C497.601 33.3426 497.941 35.1956 497.941 37.3262C497.941 40.2624 497.413 42.742 496.357 44.7651C495.301 46.7703 493.859 48.3906 492.033 49.626C492.803 50.8076 493.465 52.043 494.021 53.332C494.576 54.6211 495.023 55.8743 495.363 57.0918C495.721 58.2913 495.981 59.4103 496.142 60.4487C496.303 61.4871 496.384 62.3555 496.384 63.0537H489.509C489.509 61.9616 489.419 60.9321 489.24 59.9653C489.061 58.9806 488.811 58.0496 488.488 57.1724C488.166 56.2772 487.79 55.4357 487.36 54.6479C486.949 53.8602 486.501 53.0993 486.018 52.3652C484.317 52.8486 482.517 53.1978 480.62 53.4126C478.722 53.6095 476.743 53.708 474.685 53.708C473.449 53.708 472.196 53.6722 470.925 53.6006C469.654 53.529 468.4 53.4395 467.165 53.332V62.9463H460.505V23.5225C460.899 23.3971 461.525 23.245 462.385 23.0659C463.262 22.8869 464.292 22.7168 465.473 22.5557C466.673 22.3945 468.007 22.2603 469.475 22.1528C470.943 22.0275 472.482 21.9648 474.094 21.9648ZM476.027 27.873C474.846 27.873 473.718 27.9268 472.644 28.0342C471.569 28.1237 470.629 28.2311 469.824 28.3564C468.857 28.4997 467.971 28.6608 467.165 28.8398V47.209C467.738 47.3343 468.374 47.4417 469.072 47.5312C469.663 47.6208 470.352 47.7013 471.14 47.7729C471.927 47.8267 472.769 47.8535 473.664 47.8535C474.828 47.8535 476.054 47.8267 477.343 47.7729C478.65 47.7013 479.939 47.5492 481.21 47.3164C482.5 47.0837 483.717 46.7435 484.863 46.2959C486.027 45.8304 487.047 45.2217 487.924 44.4697C488.819 43.6999 489.527 42.751 490.046 41.623C490.583 40.4951 490.852 39.1344 490.852 37.541C490.852 36.2161 490.637 35.0524 490.207 34.0498C489.777 33.0472 489.195 32.1878 488.461 31.4717C487.727 30.7555 486.868 30.1647 485.883 29.6992C484.917 29.2337 483.878 28.8667 482.768 28.5981C481.676 28.3296 480.548 28.1416 479.384 28.0342C478.238 27.9268 477.119 27.873 476.027 27.873ZM520.93 22.0723C523.687 22.0723 526.283 22.314 528.718 22.7974C531.153 23.2808 533.283 23.9521 535.109 24.8115C536.936 25.6709 538.377 26.7093 539.433 27.9268C540.489 29.1263 541.018 30.4512 541.018 31.9014V53.2783C541.018 54.7285 540.489 56.0623 539.433 57.2798C538.377 58.4793 536.936 59.5088 535.109 60.3682C533.283 61.2275 531.153 61.8989 528.718 62.3823C526.283 62.8657 523.687 63.1074 520.93 63.1074C519.39 63.1074 517.814 63.0537 516.203 62.9463C514.592 62.821 513.025 62.6688 511.503 62.4897C510 62.2928 508.585 62.069 507.26 61.8184C505.935 61.5677 504.799 61.2992 503.85 61.0127V24.167C504.799 23.8805 505.935 23.612 507.26 23.3613C508.585 23.1107 510 22.8958 511.503 22.7168C513.025 22.5199 514.592 22.3677 516.203 22.2603C517.814 22.1349 519.39 22.0723 520.93 22.0723ZM521.037 28.1416C519.408 28.1416 517.993 28.1953 516.794 28.3027C515.594 28.3923 514.565 28.5176 513.706 28.6787C512.846 28.8219 512.13 28.9831 511.557 29.1621C511.002 29.3232 510.546 29.4665 510.188 29.5918V55.5879C510.546 55.7311 511.002 55.8833 511.557 56.0444C512.13 56.2056 512.846 56.3667 513.706 56.5278C514.565 56.6711 515.594 56.7964 516.794 56.9038C517.993 56.9933 519.408 57.0381 521.037 57.0381C523.042 57.0381 524.842 56.877 526.435 56.5547C528.046 56.2324 529.398 55.8027 530.49 55.2656C531.6 54.7285 532.451 54.1108 533.042 53.4126C533.632 52.6965 533.928 51.9535 533.928 51.1836V33.9961C533.928 33.2262 533.632 32.4922 533.042 31.7939C532.451 31.0778 531.6 30.4512 530.49 29.9141C529.398 29.377 528.046 28.9473 526.435 28.625C524.842 28.3027 523.042 28.1416 521.037 28.1416Z" fill="url(#paint2_linear)"/>
<defs>
<linearGradient id="paint0_linear" x1="323.5" y1="111" x2="516" y2="330" gradientUnits="userSpaceOnUse">
<stop stop-color="#BBFFFB"/>
<stop offset="0.991366" stop-color="#5878A9" stop-opacity="0.65"/>
</linearGradient>
<linearGradient id="paint1_linear" x1="251.5" y1="90.5" x2="93.5" y2="340" gradientUnits="userSpaceOnUse">
<stop stop-color="#BBFFFB"/>
<stop offset="1" stop-color="#5878A9" stop-opacity="0.65"/>
</linearGradient>
<linearGradient id="paint2_linear" x1="53" y1="43.0667" x2="544" y2="41.9109" gradientUnits="userSpaceOnUse">
<stop stop-color="#E06EF2" stop-opacity="0.99"/>
<stop offset="1" stop-color="#182FFB" stop-opacity="0.72"/>
</linearGradient>
<clipPath id="clip0">
<rect width="314" height="246" fill="white" transform="translate(140 90)"/>
</clipPath>
<clipPath id="clip1">
<rect width="133" height="133" fill="white" transform="translate(0 161)"/>
</clipPath>
</defs>
</svg>
