<svg width="588" height="416" viewBox="0 0 588 416" fill="none" xmlns="http://www.w3.org/2000/svg">
<circle cx="422" cy="200" r="150" fill="url(#paint0_linear)"/>
<circle cx="168" cy="200" r="150" fill="url(#paint1_linear)"/>
<g clip-path="url(#clip0)">
<path d="M369.108 86.1702L369.107 86.1664C335.613 86.1664 313.741 86.1664 279.91 86.1702H228.712H224.567H140C140 115.568 160.888 142.002 193.862 152.129L228.453 152.427C231.151 160.258 235.019 167.614 241.284 174.969C246.753 180.318 251.537 185.132 259.056 188.877C263.84 191.017 268.625 193.157 274.094 194.761C274.957 194.93 275.82 195.099 276.682 195.268V211.377H287.568V284.317L287.567 284.645C270.896 287.945 258.558 299.761 258.558 313.834H335.503C335.503 299.916 323.437 288.206 307.044 284.756L307.044 284.317V211.376H317.982V195.128C324.953 193.617 331.454 191.277 337.663 187.806C344.499 183.527 349.967 178.712 354.751 172.828C357.486 169.619 359.536 165.874 361.587 162.664C363.274 159.171 364.708 155.61 365.928 151.997L400.137 152.128C433.112 142.002 454 115.568 454 86.1702H369.108ZM224.879 135.382C224.879 135.801 224.879 136.137 224.879 136.456H195.407C178.155 128.336 165.003 114.255 162.125 100.174H224.703L224.879 135.382ZM369.903 100.174H431.875C428.996 114.255 415.843 128.335 398.593 136.456H369.833L369.903 100.174Z" fill="#FFCF00"/>
<path d="M224.703 136.441H196.072V258.219L209.372 248.344L224.412 258.478L224.703 136.441Z" fill="#0088FF"/>
<path d="M369.108 86.1702L369.107 86.1664C341.588 86.1664 321.908 86.1664 297 86.1683V313.834H335.504C335.504 299.915 323.437 288.205 307.045 284.756L307.044 284.316V211.376H317.982V195.129C324.954 193.618 331.454 191.278 337.664 187.807C344.499 183.527 349.968 178.713 354.752 172.828C357.487 169.619 359.536 165.874 361.588 162.664C363.274 159.171 364.709 155.61 365.929 151.997L400.137 152.129C433.112 142.002 454 115.568 454 86.1702H369.108ZM369.903 100.174H431.875C428.996 114.255 415.843 128.335 398.593 136.456H369.833L369.903 100.174Z" fill="#ECB300"/>
<path d="M307.043 211.373H287.568V216.041H307.043V211.373Z" fill="#ECB300"/>
<path d="M398.535 136.441H369.902V258.219L383.204 248.344L398.245 258.478L398.535 136.441Z" fill="#005FD3"/>
</g>
<g clip-path="url(#clip1)">
<path d="M109.015 163.173L105.168 172.872L110.977 181.54C111.889 182.9 110.845 184.716 109.211 184.612L98.7973 183.951L92.3489 192.154C91.3369 193.442 89.2876 193.01 88.8813 191.423L86.2928 181.315L76.4983 177.717C74.961 177.152 74.7387 175.07 76.1219 174.193L84.935 168.608L85.3301 158.181C85.3922 156.545 87.3038 155.69 88.5649 156.734L96.6005 163.39L106.639 160.544C108.215 160.097 109.619 161.651 109.015 163.173Z" fill="#FC4C59"/>
<path d="M116.908 204.712L113.668 209.775L116.003 215.315C116.37 216.184 115.58 217.097 114.667 216.859L108.85 215.342L104.303 219.275C103.589 219.892 102.478 219.423 102.422 218.481L102.066 212.48L96.9214 209.371C96.1138 208.883 96.2164 207.681 97.0952 207.337L102.693 205.144L104.06 199.291C104.275 198.372 105.45 198.098 106.049 198.827L109.863 203.473L115.853 202.964C116.792 202.884 117.416 203.917 116.908 204.712Z" fill="#3CC247"/>
<path d="M71.3376 151.355L69.3987 157.045L72.9868 161.869C73.55 162.625 73.0006 163.7 72.0574 163.686L66.0467 163.6L62.5684 168.503C62.0224 169.273 60.8311 169.082 60.5524 168.181L58.7766 162.438L53.0387 160.645C52.1381 160.364 51.9511 159.172 52.7223 158.628L57.6357 155.165L57.5677 149.153C57.557 148.21 58.633 147.664 59.3881 148.229L64.2005 151.831L69.8964 149.909C70.79 149.608 71.6418 150.462 71.3376 151.355Z" fill="#3CC247"/>
<path d="M67.3607 185.692C41.8627 209.89 24.7324 242.82 20.7596 279.692C20.6048 281.13 22.665 281.531 23.057 280.139C32.2428 247.487 52.0395 219.28 78.4903 199.473L67.3607 185.692Z" fill="#FFDB6C"/>
<path d="M44.8337 166.093C25.2254 186.834 17.5106 217.157 15.9123 247.227C15.8499 248.399 17.5381 248.634 17.7945 247.488C23.8052 220.611 33.8896 193.999 54.464 176.777L44.8337 166.093Z" fill="#FFDB6C"/>
<path d="M85.9672 212.266C61.596 227.123 48.959 240.626 38.1761 267.775C37.7429 268.866 39.2191 269.461 39.9233 268.522C56.6195 246.247 68.0717 236.314 92.4499 225.106L85.9672 212.266Z" fill="#FFDB6C"/>
<path d="M107.17 175.859L103.354 175.616C101.716 175.512 100.131 176.221 99.1168 177.512L96.3835 180.989C94.5145 183.366 90.7308 182.569 89.9806 179.639L88.8831 175.355C88.4758 173.764 87.312 172.476 85.7714 171.91L81.9427 170.504L76.1219 174.193C74.7384 175.07 74.9612 177.152 76.4983 177.717L86.2924 181.315L88.8813 191.423C89.2875 193.009 91.3368 193.441 92.3489 192.154L98.7973 183.95L109.21 184.612C110.845 184.716 111.889 182.9 110.977 181.54L107.17 175.859Z" fill="#E83A64"/>
<path d="M114.036 210.649L113.476 210.503C111.887 210.089 110.196 210.483 108.955 211.557C107.192 213.081 104.448 211.923 104.31 209.597C104.213 207.958 103.315 206.472 101.91 205.623L101.736 205.518L97.0936 207.337C96.2153 207.681 96.1124 208.883 96.9198 209.371L102.065 212.48L102.42 218.481C102.476 219.423 103.587 219.892 104.301 219.275L108.848 215.343L114.665 216.859C115.578 217.097 116.368 216.185 116.001 215.315L114.036 210.649Z" fill="#2DA85F"/>
<path d="M69.8624 157.669C68.221 157.645 66.673 158.431 65.7233 159.77C64.3752 161.67 61.4336 161.2 60.745 158.974C60.26 157.406 59.0344 156.177 57.4675 155.687L57.0706 155.563L52.7221 158.628C51.9509 159.172 52.1379 160.364 53.0385 160.645L58.7762 162.438L60.5519 168.181C60.8307 169.083 62.0222 169.273 62.568 168.504L66.0462 163.601L72.0572 163.686C73.0007 163.7 73.5498 162.626 72.9866 161.869L69.8624 157.669Z" fill="#2DA85F"/>
<path d="M74.5878 194.641C51.4367 212.16 33.4511 236.141 23.308 263.9C22.1918 269.072 21.3357 274.34 20.7592 279.692C20.6044 281.13 22.6646 281.531 23.0566 280.139C32.2424 247.487 52.0389 219.28 78.4897 199.473L74.5878 194.641Z" fill="#FFB966"/>
<path d="M51.4739 173.459C32.3637 189.886 22.4638 214.514 16.4391 239.761C16.2196 242.247 16.0445 244.738 15.9123 247.227C15.8499 248.399 17.5381 248.634 17.7945 247.488C23.8052 220.611 33.8896 194 54.464 176.777L51.4739 173.459Z" fill="#FFB966"/>
<path d="M90.0984 220.448C68.0895 230.681 56.7118 239.998 42.0255 258.844C40.7071 261.653 39.4291 264.621 38.1765 267.775C37.7432 268.867 39.2195 269.461 39.9237 268.522C56.6198 246.247 68.0721 236.315 92.4503 225.106L90.0984 220.448Z" fill="#FFB966"/>
</g>
<path d="M478.985 163.173L482.832 172.872L477.023 181.54C476.111 182.9 477.155 184.716 478.789 184.612L489.203 183.951L495.651 192.154C496.663 193.442 498.712 193.01 499.119 191.423L501.707 181.315L511.502 177.717C513.039 177.152 513.261 175.07 511.878 174.193L503.065 168.608L502.67 158.181C502.608 156.545 500.696 155.69 499.435 156.734L491.4 163.39L481.361 160.544C479.785 160.097 478.381 161.651 478.985 163.173Z" fill="#FC4C59"/>
<path d="M471.092 204.712L474.332 209.775L471.997 215.315C471.63 216.184 472.42 217.097 473.333 216.859L479.15 215.342L483.697 219.275C484.411 219.892 485.522 219.423 485.578 218.481L485.934 212.48L491.079 209.371C491.886 208.883 491.784 207.681 490.905 207.337L485.307 205.144L483.94 199.291C483.725 198.372 482.55 198.098 481.951 198.827L478.137 203.473L472.147 202.964C471.208 202.884 470.584 203.917 471.092 204.712Z" fill="#3CC247"/>
<path d="M516.662 151.355L518.601 157.045L515.013 161.869C514.45 162.625 514.999 163.7 515.943 163.686L521.953 163.6L525.432 168.503C525.978 169.273 527.169 169.082 527.448 168.181L529.223 162.438L534.961 160.645C535.862 160.364 536.049 159.172 535.278 158.628L530.364 155.165L530.432 149.153C530.443 148.21 529.367 147.664 528.612 148.229L523.799 151.831L518.104 149.909C517.21 149.608 516.358 150.462 516.662 151.355Z" fill="#3CC247"/>
<path d="M520.639 185.692C546.137 209.89 563.268 242.82 567.24 279.692C567.395 281.13 565.335 281.531 564.943 280.139C555.757 247.487 535.961 219.28 509.51 199.473L520.639 185.692Z" fill="#FFDB6C"/>
<path d="M543.166 166.093C562.775 186.834 570.489 217.157 572.088 247.227C572.15 248.399 570.462 248.634 570.205 247.488C564.195 220.611 554.11 193.999 533.536 176.777L543.166 166.093Z" fill="#FFDB6C"/>
<path d="M502.033 212.266C526.404 227.123 539.041 240.626 549.824 267.775C550.257 268.866 548.781 269.461 548.077 268.522C531.381 246.247 519.928 236.314 495.55 225.106L502.033 212.266Z" fill="#FFDB6C"/>
<path d="M480.83 175.859L484.646 175.616C486.284 175.512 487.869 176.221 488.883 177.512L491.616 180.989C493.485 183.366 497.269 182.569 498.019 179.639L499.117 175.355C499.524 173.764 500.688 172.476 502.229 171.91L506.057 170.504L511.878 174.193C513.262 175.07 513.039 177.152 511.502 177.717L501.708 181.315L499.119 191.423C498.712 193.009 496.663 193.441 495.651 192.154L489.203 183.95L478.79 184.612C477.155 184.716 476.111 182.9 477.023 181.54L480.83 175.859Z" fill="#E83A64"/>
<path d="M473.964 210.649L474.524 210.503C476.113 210.089 477.804 210.483 479.045 211.557C480.808 213.081 483.552 211.923 483.69 209.597C483.787 207.958 484.685 206.472 486.09 205.623L486.264 205.518L490.906 207.337C491.785 207.681 491.888 208.883 491.08 209.371L485.935 212.48L485.58 218.481C485.524 219.423 484.413 219.892 483.699 219.275L479.152 215.343L473.335 216.859C472.422 217.097 471.632 216.185 471.999 215.315L473.964 210.649Z" fill="#2DA85F"/>
<path d="M518.138 157.669C519.779 157.645 521.327 158.431 522.277 159.77C523.625 161.67 526.566 161.2 527.255 158.974C527.74 157.406 528.966 156.177 530.533 155.687L530.929 155.563L535.278 158.628C536.049 159.172 535.862 160.364 534.961 160.645L529.224 162.438L527.448 168.181C527.169 169.083 525.978 169.273 525.432 168.504L521.954 163.601L515.943 163.686C514.999 163.7 514.45 162.626 515.013 161.869L518.138 157.669Z" fill="#2DA85F"/>
<path d="M513.412 194.641C536.563 212.16 554.549 236.141 564.692 263.9C565.808 269.072 566.664 274.34 567.241 279.692C567.396 281.13 565.335 281.531 564.943 280.139C555.758 247.487 535.961 219.28 509.51 199.473L513.412 194.641Z" fill="#FFB966"/>
<path d="M536.526 173.459C555.636 189.886 565.536 214.514 571.561 239.761C571.78 242.247 571.956 244.738 572.088 247.227C572.15 248.399 570.462 248.634 570.205 247.488C564.195 220.611 554.11 194 533.536 176.777L536.526 173.459Z" fill="#FFB966"/>
<path d="M497.902 220.448C519.911 230.681 531.288 239.998 545.975 258.844C547.293 261.653 548.571 264.621 549.824 267.775C550.257 268.867 548.781 269.461 548.076 268.522C531.38 246.247 519.928 236.315 495.55 225.106L497.902 220.448Z" fill="#FFB966"/>
<path d="M146 272H214.311L297 377H228.689L146 272Z" fill="#AEA930"/>
<path d="M214 271.887V236L313 358.2L297.508 378L214 271.887Z" fill="#9B9729"/>
<path d="M448 272H379.689L297 378H365.311L448 272Z" fill="#AEA930"/>
<path d="M380 271.403V234L297 336.234V378L380 271.403Z" fill="#9B9729"/>
<rect x="146" y="234" width="68" height="38" fill="#E3DD47"/>
<rect x="380" y="234" width="68" height="38" fill="#E3DD47"/>
<path d="M272.383 237H325L321.617 347.253L297.188 378L269 341.974L272.383 237Z" fill="#AEA930"/>
<path d="M272 205H325V240H272V205Z" fill="#E3DD47"/>
<path d="M303.08 234H298V214.418L291.936 216.299V212.168L302.535 208.371H303.08V234Z" fill="#F24444"/>
<path d="M187.283 267H169.74V263.52L178.02 254.695C179.156 253.453 179.994 252.369 180.533 251.443C181.084 250.518 181.359 249.639 181.359 248.807C181.359 247.67 181.072 246.779 180.498 246.135C179.924 245.479 179.104 245.15 178.037 245.15C176.889 245.15 175.98 245.549 175.312 246.346C174.656 247.131 174.328 248.168 174.328 249.457H169.23C169.23 247.898 169.6 246.475 170.338 245.186C171.088 243.896 172.143 242.889 173.502 242.162C174.861 241.424 176.402 241.055 178.125 241.055C180.762 241.055 182.807 241.688 184.26 242.953C185.725 244.219 186.457 246.006 186.457 248.314C186.457 249.58 186.129 250.869 185.473 252.182C184.816 253.494 183.691 255.023 182.098 256.77L176.279 262.904H187.283V267Z" fill="#F24444"/>
<path d="M412.908 251.953H415.615C416.904 251.953 417.859 251.631 418.48 250.986C419.102 250.342 419.412 249.486 419.412 248.42C419.412 247.389 419.102 246.586 418.48 246.012C417.871 245.438 417.027 245.15 415.949 245.15C414.977 245.15 414.162 245.42 413.506 245.959C412.85 246.486 412.521 247.178 412.521 248.033H407.441C407.441 246.697 407.799 245.502 408.514 244.447C409.24 243.381 410.248 242.549 411.537 241.951C412.838 241.354 414.268 241.055 415.826 241.055C418.533 241.055 420.654 241.705 422.189 243.006C423.725 244.295 424.492 246.076 424.492 248.35C424.492 249.521 424.135 250.6 423.42 251.584C422.705 252.568 421.768 253.324 420.607 253.852C422.049 254.367 423.121 255.141 423.824 256.172C424.539 257.203 424.896 258.422 424.896 259.828C424.896 262.102 424.064 263.924 422.4 265.295C420.748 266.666 418.557 267.352 415.826 267.352C413.271 267.352 411.18 266.678 409.551 265.33C407.934 263.982 407.125 262.201 407.125 259.986H412.205C412.205 260.947 412.562 261.732 413.277 262.342C414.004 262.951 414.895 263.256 415.949 263.256C417.156 263.256 418.1 262.939 418.779 262.307C419.471 261.662 419.816 260.812 419.816 259.758C419.816 257.203 418.41 255.926 415.598 255.926H412.908V251.953Z" fill="#F24444"/>
<path d="M216.355 381.062V393.035H163.972V376.962H216.355V381.062Z" fill="#DDB200"/>
<path d="M446.156 381.062V393.035H393.773V376.962H446.156V381.062Z" fill="#DDB200"/>
<path d="M437.451 381.062H172.422V326.249C172.422 324.993 176.229 323.965 180.883 323.965H428.99C433.645 323.965 437.452 324.993 437.452 326.249L437.451 381.062Z" fill="#FFE477"/>
<path d="M172.422 343.24H92.1273L112.381 368.137L92.1273 393.035H216.355L172.422 381.062V343.24Z" fill="#FFEB99"/>
<path d="M437.706 343.24H518L497.746 368.137L518 393.035H393.773L437.451 381.062L437.706 343.24Z" fill="#FFEB99"/>
<path d="M212.486 323.965V339.603C212.486 340.571 209.58 341.356 205.993 341.356C202.406 341.356 199.5 340.571 199.5 339.603V323.965H212.486Z" fill="#FFEB99"/>
<path d="M205.993 375.342C202.406 375.342 199.5 374.557 199.5 373.589V356.813C199.5 355.845 202.406 355.06 205.993 355.06C209.58 355.06 212.486 355.845 212.486 356.813V373.589C212.486 374.557 209.58 375.342 205.993 375.342Z" fill="#FFEB99"/>
<path d="M393.773 373.13C390.186 373.13 387.28 372.345 387.28 371.377V360.978C387.28 360.01 390.186 359.225 393.773 359.225C397.36 359.225 400.266 360.01 400.266 360.978V371.377C400.266 372.345 397.36 373.13 393.773 373.13Z" fill="#FFEB99"/>
<path d="M295.625 353.998L287 346.165L299.32 344.573L305.198 335L310.741 344.724L323 346.64L314.106 354.242L315.804 365L304.764 359.974L293.555 364.706L295.625 353.998Z" fill="#DDB200"/>
<g opacity="0.33">
<path opacity="0.33" d="M99.7612 383.495L92 393.035H163.845H216.227V383.495H163.845H99.7612Z" fill="#DDB200"/>
<path opacity="0.33" d="M437.453 371.52H172.42V381.061H437.453V371.52Z" fill="#DDB200"/>
<path opacity="0.33" d="M446.028 383.495H393.645V393.035H446.028H517.873L510.111 383.495H446.028Z" fill="#DDB200"/>
</g>
<path d="M104.062 24.7656C103.141 24.8438 102.297 24.9297 101.531 25.0234C100.766 25.1016 100.031 25.1875 99.3281 25.2812V49C100.359 49.1406 101.5 49.2656 102.75 49.375C104 49.4844 105.359 49.5625 106.828 49.6094C107.297 49.6406 107.758 49.6562 108.211 49.6562C108.664 49.6562 109.125 49.6562 109.594 49.6562C110.062 49.6562 110.531 49.6562 111 49.6562C111.469 49.6562 111.938 49.6406 112.406 49.6094C114.156 49.5625 115.711 49.4766 117.07 49.3516C118.445 49.2109 119.688 49.0312 120.797 48.8125C121.078 47.2656 121.312 45.3906 121.5 43.1875H126.844C126.75 44.8594 126.617 46.5703 126.445 48.3203C126.273 50.0547 126.031 51.8438 125.719 53.6875C122.75 54.1875 119.922 54.5234 117.234 54.6953C114.562 54.8672 112.047 54.9531 109.688 54.9531C107.266 54.9531 104.703 54.8672 102 54.6953C99.2969 54.5234 96.4844 54.1875 93.5625 53.6875V20.5469C95.4219 20.2188 97.2188 19.9766 98.9531 19.8203C100.703 19.6484 102.406 19.5156 104.062 19.4219V24.7656ZM147.047 19.3281C149.453 19.3281 152 19.4141 154.688 19.5859C157.391 19.7578 160.203 20.0938 163.125 20.5938V26.5469C161.812 26.1719 160.484 25.8672 159.141 25.6328C157.797 25.3828 156.445 25.1875 155.086 25.0469C153.742 24.9062 152.398 24.8047 151.055 24.7422C149.711 24.6797 148.375 24.6406 147.047 24.625C146.406 24.625 145.695 24.6406 144.914 24.6719C144.148 24.6875 143.328 24.7188 142.453 24.7656C141.594 24.8125 140.688 24.8828 139.734 24.9766C138.781 25.0703 137.812 25.1875 136.828 25.3281V33.8594H157.312V39.625H136.828V49.0469C138.344 49.2656 139.922 49.4297 141.562 49.5391C143.203 49.6484 145.031 49.7031 147.047 49.7031C149.766 49.7031 152.469 49.5703 155.156 49.3047C157.844 49.0391 160.5 48.5312 163.125 47.7812V53.7344C160.203 54.2344 157.398 54.5703 154.711 54.7422C152.023 54.9141 149.5 55 147.141 55C144.734 55 142.18 54.9141 139.477 54.7422C136.789 54.5703 133.969 54.2344 131.016 53.7344V20.5938C133.969 20.0938 136.789 19.7578 139.477 19.5859C142.164 19.4141 144.688 19.3281 147.047 19.3281ZM185.719 18.3906C186.688 18.3906 187.672 18.4922 188.672 18.6953C189.672 18.8828 190.562 19.1406 191.344 19.4688C192.719 21.875 193.969 24.3281 195.094 26.8281C196.234 29.3125 197.25 31.875 198.141 34.5156C198.75 34.5938 199.367 34.6797 199.992 34.7734C200.617 34.8516 201.25 34.9375 201.891 35.0312V41.0312L199.875 40.4688C200.438 42.7969 200.914 45.1719 201.305 47.5938C201.695 50.0156 201.984 52.4844 202.172 55H196.594C196.359 52.3125 195.969 49.6562 195.422 47.0312C194.875 44.4062 194.25 41.8906 193.547 39.4844C192.031 39.3594 190.586 39.2656 189.211 39.2031C187.852 39.1406 186.688 39.1094 185.719 39.1094C184.422 39.1094 183.133 39.1328 181.852 39.1797C180.57 39.2266 179.281 39.3125 177.984 39.4375C177.281 41.8438 176.648 44.3594 176.086 46.9844C175.539 49.6094 175.156 52.2812 174.938 55H169.359C169.531 52.4844 169.805 50.0234 170.18 47.6172C170.57 45.2109 171.047 42.8438 171.609 40.5156L169.781 41.0312V35.0312L173.391 34.5156C174.266 31.875 175.266 29.3125 176.391 26.8281C177.531 24.3281 178.797 21.875 180.188 19.4688C180.969 19.1406 181.852 18.8828 182.836 18.6953C183.82 18.4922 184.781 18.3906 185.719 18.3906ZM185.719 33.8125C186.656 33.8125 187.625 33.8281 188.625 33.8594C189.625 33.875 190.656 33.9219 191.719 34C190.922 31.8281 190.133 29.9453 189.352 28.3516C188.586 26.7422 187.922 25.5 187.359 24.625C187.078 24.5 186.812 24.4141 186.562 24.3672C186.312 24.3203 186.031 24.2969 185.719 24.2969C185.219 24.2969 184.703 24.4062 184.172 24.625C183.609 25.5 182.938 26.7422 182.156 28.3516C181.375 29.9453 180.594 31.8281 179.812 34C180.844 33.9219 181.852 33.875 182.836 33.8594C183.836 33.8281 184.797 33.8125 185.719 33.8125ZM223.406 19.2812C225.812 19.2812 228.078 19.4922 230.203 19.9141C232.328 20.3359 234.188 20.9219 235.781 21.6719C237.375 22.4219 238.633 23.3281 239.555 24.3906C240.477 25.4375 240.938 26.5938 240.938 27.8594V46.5156C240.938 47.7812 240.477 48.9453 239.555 50.0078C238.633 51.0547 237.375 51.9531 235.781 52.7031C234.188 53.4531 232.328 54.0391 230.203 54.4609C228.078 54.8828 225.812 55.0938 223.406 55.0938C222.062 55.0938 220.688 55.0469 219.281 54.9531C217.875 54.8438 216.508 54.7109 215.18 54.5547C213.867 54.3828 212.633 54.1875 211.477 53.9688C210.32 53.75 209.328 53.5156 208.5 53.2656V21.1094C209.328 20.8594 210.32 20.625 211.477 20.4062C212.633 20.1875 213.867 20 215.18 19.8438C216.508 19.6719 217.875 19.5391 219.281 19.4453C220.688 19.3359 222.062 19.2812 223.406 19.2812ZM223.5 24.5781C222.078 24.5781 220.844 24.625 219.797 24.7188C218.75 24.7969 217.852 24.9062 217.102 25.0469C216.352 25.1719 215.727 25.3125 215.227 25.4688C214.742 25.6094 214.344 25.7344 214.031 25.8438V48.5312C214.344 48.6562 214.742 48.7891 215.227 48.9297C215.727 49.0703 216.352 49.2109 217.102 49.3516C217.852 49.4766 218.75 49.5859 219.797 49.6797C220.844 49.7578 222.078 49.7969 223.5 49.7969C225.25 49.7969 226.82 49.6562 228.211 49.375C229.617 49.0938 230.797 48.7188 231.75 48.25C232.719 47.7812 233.461 47.2422 233.977 46.6328C234.492 46.0078 234.75 45.3594 234.75 44.6875V29.6875C234.75 29.0156 234.492 28.375 233.977 27.7656C233.461 27.1406 232.719 26.5938 231.75 26.125C230.797 25.6562 229.617 25.2812 228.211 25C226.82 24.7188 225.25 24.5781 223.5 24.5781ZM263.344 19.3281C265.75 19.3281 268.297 19.4141 270.984 19.5859C273.688 19.7578 276.5 20.0938 279.422 20.5938V26.5469C278.109 26.1719 276.781 25.8672 275.438 25.6328C274.094 25.3828 272.742 25.1875 271.383 25.0469C270.039 24.9062 268.695 24.8047 267.352 24.7422C266.008 24.6797 264.672 24.6406 263.344 24.625C262.703 24.625 261.992 24.6406 261.211 24.6719C260.445 24.6875 259.625 24.7188 258.75 24.7656C257.891 24.8125 256.984 24.8828 256.031 24.9766C255.078 25.0703 254.109 25.1875 253.125 25.3281V33.8594H273.609V39.625H253.125V49.0469C254.641 49.2656 256.219 49.4297 257.859 49.5391C259.5 49.6484 261.328 49.7031 263.344 49.7031C266.062 49.7031 268.766 49.5703 271.453 49.3047C274.141 49.0391 276.797 48.5312 279.422 47.7812V53.7344C276.5 54.2344 273.695 54.5703 271.008 54.7422C268.32 54.9141 265.797 55 263.438 55C261.031 55 258.477 54.9141 255.773 54.7422C253.086 54.5703 250.266 54.2344 247.312 53.7344V20.5938C250.266 20.0938 253.086 19.7578 255.773 19.5859C258.461 19.4141 260.984 19.3281 263.344 19.3281ZM298.828 19.1875C300.391 19.1875 301.984 19.2656 303.609 19.4219C305.25 19.5625 306.844 19.8203 308.391 20.1953C309.938 20.5547 311.391 21.0625 312.75 21.7188C314.109 22.3594 315.297 23.1797 316.312 24.1797C317.344 25.1641 318.156 26.3516 318.75 27.7422C319.344 29.1172 319.641 30.7344 319.641 32.5938C319.641 35.1562 319.18 37.3203 318.258 39.0859C317.336 40.8359 316.078 42.25 314.484 43.3281C315.156 44.3594 315.734 45.4375 316.219 46.5625C316.703 47.6875 317.094 48.7812 317.391 49.8438C317.703 50.8906 317.93 51.8672 318.07 52.7734C318.211 53.6797 318.281 54.4375 318.281 55.0469H312.281C312.281 54.0938 312.203 53.1953 312.047 52.3516C311.891 51.4922 311.672 50.6797 311.391 49.9141C311.109 49.1328 310.781 48.3984 310.406 47.7109C310.047 47.0234 309.656 46.3594 309.234 45.7188C307.75 46.1406 306.18 46.4453 304.523 46.6328C302.867 46.8047 301.141 46.8906 299.344 46.8906C298.266 46.8906 297.172 46.8594 296.062 46.7969C294.953 46.7344 293.859 46.6562 292.781 46.5625V54.9531H286.969V20.5469C287.312 20.4375 287.859 20.3047 288.609 20.1484C289.375 19.9922 290.273 19.8438 291.305 19.7031C292.352 19.5625 293.516 19.4453 294.797 19.3516C296.078 19.2422 297.422 19.1875 298.828 19.1875ZM300.516 24.3438C299.484 24.3438 298.5 24.3906 297.562 24.4844C296.625 24.5625 295.805 24.6562 295.102 24.7656C294.258 24.8906 293.484 25.0312 292.781 25.1875V41.2188C293.281 41.3281 293.836 41.4219 294.445 41.5C294.961 41.5781 295.562 41.6484 296.25 41.7109C296.938 41.7578 297.672 41.7812 298.453 41.7812C299.469 41.7812 300.539 41.7578 301.664 41.7109C302.805 41.6484 303.93 41.5156 305.039 41.3125C306.164 41.1094 307.227 40.8125 308.227 40.4219C309.242 40.0156 310.133 39.4844 310.898 38.8281C311.68 38.1562 312.297 37.3281 312.75 36.3438C313.219 35.3594 313.453 34.1719 313.453 32.7812C313.453 31.625 313.266 30.6094 312.891 29.7344C312.516 28.8594 312.008 28.1094 311.367 27.4844C310.727 26.8594 309.977 26.3438 309.117 25.9375C308.273 25.5312 307.367 25.2109 306.398 24.9766C305.445 24.7422 304.461 24.5781 303.445 24.4844C302.445 24.3906 301.469 24.3438 300.516 24.3438ZM340.594 18.9531C343 18.9531 345.141 19.1641 347.016 19.5859C348.906 20.0078 350.5 20.5938 351.797 21.3438C353.109 22.0938 354.109 23 354.797 24.0625C355.484 25.1094 355.828 26.2656 355.828 27.5312V30.9531C355.828 32.2969 355.562 33.3828 355.031 34.2109C354.516 35.0391 353.797 35.7031 352.875 36.2031C353.641 36.4219 354.344 36.7031 354.984 37.0469C355.641 37.3906 356.195 37.8125 356.648 38.3125C357.117 38.7969 357.477 39.3672 357.727 40.0234C357.992 40.6641 358.125 41.4062 358.125 42.25V46.8438C358.125 48.1094 357.664 49.2734 356.742 50.3359C355.82 51.3828 354.562 52.2891 352.969 53.0547C351.375 53.8203 349.516 54.4141 347.391 54.8359C345.266 55.2578 343 55.4688 340.594 55.4688C339.25 55.4688 337.875 55.4141 336.469 55.3047C335.062 55.2109 333.695 55.0781 332.367 54.9062C331.055 54.7344 329.82 54.5391 328.664 54.3203C327.508 54.1016 326.516 53.875 325.688 53.6406V20.7344C326.516 20.5 327.508 20.2812 328.664 20.0781C329.82 19.8594 331.055 19.6719 332.367 19.5156C333.695 19.3438 335.062 19.2109 336.469 19.1172C337.875 19.0078 339.25 18.9531 340.594 18.9531ZM340.406 39.4375C339.562 39.4375 338.719 39.4453 337.875 39.4609C337.031 39.4609 336.211 39.4844 335.414 39.5312C334.633 39.5625 333.883 39.6172 333.164 39.6953C332.445 39.7734 331.797 39.875 331.219 40V48.9062C331.531 49.0156 331.93 49.1406 332.414 49.2812C332.914 49.4219 333.539 49.5547 334.289 49.6797C335.039 49.8047 335.938 49.9141 336.984 50.0078C338.031 50.0859 339.266 50.125 340.688 50.125C342.438 50.125 344.008 49.9844 345.398 49.7031C346.805 49.4219 347.984 49.0469 348.938 48.5781C349.906 48.1094 350.648 47.5703 351.164 46.9609C351.68 46.3359 351.938 45.6875 351.938 45.0156V43C351.938 42.2656 351.609 41.6641 350.953 41.1953C350.297 40.7266 349.43 40.3672 348.352 40.1172C347.273 39.8516 346.039 39.6719 344.648 39.5781C343.273 39.4844 341.859 39.4375 340.406 39.4375ZM331.219 33.625C332.188 33.8125 333.289 33.9375 334.523 34C335.773 34.0625 337.188 34.0938 338.766 34.0938C340.125 34.0938 341.477 34.0469 342.82 33.9531C344.164 33.8438 345.375 33.6719 346.453 33.4375C347.531 33.1875 348.406 32.8594 349.078 32.4531C349.75 32.0312 350.094 31.5 350.109 30.8594V29.3594C350.109 28.6875 349.945 28.0469 349.617 27.4375C349.305 26.8125 348.773 26.2656 348.023 25.7969C347.289 25.3281 346.32 24.9531 345.117 24.6719C343.914 24.3906 342.438 24.25 340.688 24.25C339.266 24.25 338.031 24.2969 336.984 24.3906C335.938 24.4688 335.039 24.5703 334.289 24.6953C333.539 24.8203 332.914 24.9531 332.414 25.0938C331.93 25.2344 331.531 25.3594 331.219 25.4688V33.625ZM381.047 18.7188C382.609 18.7188 384.125 18.8125 385.594 19C387.062 19.1875 388.438 19.4609 389.719 19.8203C391 20.1641 392.172 20.5859 393.234 21.0859C394.297 21.5703 395.203 22.125 395.953 22.75C396.703 23.375 397.289 24.0625 397.711 24.8125C398.133 25.5469 398.344 26.3281 398.344 27.1562V47.2656C398.344 48.0938 398.133 48.8828 397.711 49.6328C397.289 50.3672 396.703 51.0469 395.953 51.6719C395.203 52.2969 394.297 52.8594 393.234 53.3594C392.172 53.8438 391 54.2656 389.719 54.625C388.438 54.9688 387.062 55.2344 385.594 55.4219C384.125 55.6094 382.609 55.7031 381.047 55.7031C379.484 55.7031 377.969 55.6094 376.5 55.4219C375.047 55.2344 373.68 54.9688 372.398 54.625C371.133 54.2656 369.969 53.8438 368.906 53.3594C367.844 52.8594 366.93 52.2969 366.164 51.6719C365.414 51.0469 364.828 50.3672 364.406 49.6328C364 48.8828 363.797 48.0938 363.797 47.2656V27.1562C363.797 26.3281 364 25.5469 364.406 24.8125C364.828 24.0625 365.414 23.375 366.164 22.75C366.93 22.125 367.844 21.5703 368.906 21.0859C369.969 20.5859 371.133 20.1641 372.398 19.8203C373.68 19.4609 375.047 19.1875 376.5 19C377.969 18.8125 379.484 18.7188 381.047 18.7188ZM392.203 28.9375C392.203 28.2656 391.945 27.6328 391.43 27.0391C390.914 26.4297 390.172 25.8984 389.203 25.4453C388.25 24.9766 387.086 24.6094 385.711 24.3438C384.336 24.0625 382.781 23.9219 381.047 23.9219C379.375 23.9219 377.859 24.0547 376.5 24.3203C375.141 24.5703 373.969 24.9219 372.984 25.375C372.016 25.8281 371.266 26.3594 370.734 26.9688C370.203 27.5781 369.938 28.2344 369.938 28.9375V45.4844C369.938 46.1719 370.203 46.8203 370.734 47.4297C371.266 48.0391 372.016 48.5703 372.984 49.0234C373.969 49.4766 375.141 49.8359 376.5 50.1016C377.859 50.3672 379.375 50.5 381.047 50.5C382.781 50.5 384.336 50.3672 385.711 50.1016C387.086 49.8203 388.25 49.4453 389.203 48.9766C390.172 48.5078 390.914 47.9766 391.43 47.3828C391.945 46.7734 392.203 46.1406 392.203 45.4844V28.9375ZM421.172 18.3906C422.141 18.3906 423.125 18.4922 424.125 18.6953C425.125 18.8828 426.016 19.1406 426.797 19.4688C428.172 21.875 429.422 24.3281 430.547 26.8281C431.688 29.3125 432.703 31.875 433.594 34.5156C434.203 34.5938 434.82 34.6797 435.445 34.7734C436.07 34.8516 436.703 34.9375 437.344 35.0312V41.0312L435.328 40.4688C435.891 42.7969 436.367 45.1719 436.758 47.5938C437.148 50.0156 437.438 52.4844 437.625 55H432.047C431.812 52.3125 431.422 49.6562 430.875 47.0312C430.328 44.4062 429.703 41.8906 429 39.4844C427.484 39.3594 426.039 39.2656 424.664 39.2031C423.305 39.1406 422.141 39.1094 421.172 39.1094C419.875 39.1094 418.586 39.1328 417.305 39.1797C416.023 39.2266 414.734 39.3125 413.438 39.4375C412.734 41.8438 412.102 44.3594 411.539 46.9844C410.992 49.6094 410.609 52.2812 410.391 55H404.812C404.984 52.4844 405.258 50.0234 405.633 47.6172C406.023 45.2109 406.5 42.8438 407.062 40.5156L405.234 41.0312V35.0312L408.844 34.5156C409.719 31.875 410.719 29.3125 411.844 26.8281C412.984 24.3281 414.25 21.875 415.641 19.4688C416.422 19.1406 417.305 18.8828 418.289 18.6953C419.273 18.4922 420.234 18.3906 421.172 18.3906ZM421.172 33.8125C422.109 33.8125 423.078 33.8281 424.078 33.8594C425.078 33.875 426.109 33.9219 427.172 34C426.375 31.8281 425.586 29.9453 424.805 28.3516C424.039 26.7422 423.375 25.5 422.812 24.625C422.531 24.5 422.266 24.4141 422.016 24.3672C421.766 24.3203 421.484 24.2969 421.172 24.2969C420.672 24.2969 420.156 24.4062 419.625 24.625C419.062 25.5 418.391 26.7422 417.609 28.3516C416.828 29.9453 416.047 31.8281 415.266 34C416.297 33.9219 417.305 33.875 418.289 33.8594C419.289 33.8281 420.25 33.8125 421.172 33.8125ZM457.5 19.1875C459.062 19.1875 460.656 19.2656 462.281 19.4219C463.922 19.5625 465.516 19.8203 467.062 20.1953C468.609 20.5547 470.062 21.0625 471.422 21.7188C472.781 22.3594 473.969 23.1797 474.984 24.1797C476.016 25.1641 476.828 26.3516 477.422 27.7422C478.016 29.1172 478.312 30.7344 478.312 32.5938C478.312 35.1562 477.852 37.3203 476.93 39.0859C476.008 40.8359 474.75 42.25 473.156 43.3281C473.828 44.3594 474.406 45.4375 474.891 46.5625C475.375 47.6875 475.766 48.7812 476.062 49.8438C476.375 50.8906 476.602 51.8672 476.742 52.7734C476.883 53.6797 476.953 54.4375 476.953 55.0469H470.953C470.953 54.0938 470.875 53.1953 470.719 52.3516C470.562 51.4922 470.344 50.6797 470.062 49.9141C469.781 49.1328 469.453 48.3984 469.078 47.7109C468.719 47.0234 468.328 46.3594 467.906 45.7188C466.422 46.1406 464.852 46.4453 463.195 46.6328C461.539 46.8047 459.812 46.8906 458.016 46.8906C456.938 46.8906 455.844 46.8594 454.734 46.7969C453.625 46.7344 452.531 46.6562 451.453 46.5625V54.9531H445.641V20.5469C445.984 20.4375 446.531 20.3047 447.281 20.1484C448.047 19.9922 448.945 19.8438 449.977 19.7031C451.023 19.5625 452.188 19.4453 453.469 19.3516C454.75 19.2422 456.094 19.1875 457.5 19.1875ZM459.188 24.3438C458.156 24.3438 457.172 24.3906 456.234 24.4844C455.297 24.5625 454.477 24.6562 453.773 24.7656C452.93 24.8906 452.156 25.0312 451.453 25.1875V41.2188C451.953 41.3281 452.508 41.4219 453.117 41.5C453.633 41.5781 454.234 41.6484 454.922 41.7109C455.609 41.7578 456.344 41.7812 457.125 41.7812C458.141 41.7812 459.211 41.7578 460.336 41.7109C461.477 41.6484 462.602 41.5156 463.711 41.3125C464.836 41.1094 465.898 40.8125 466.898 40.4219C467.914 40.0156 468.805 39.4844 469.57 38.8281C470.352 38.1562 470.969 37.3281 471.422 36.3438C471.891 35.3594 472.125 34.1719 472.125 32.7812C472.125 31.625 471.938 30.6094 471.562 29.7344C471.188 28.8594 470.68 28.1094 470.039 27.4844C469.398 26.8594 468.648 26.3438 467.789 25.9375C466.945 25.5312 466.039 25.2109 465.07 24.9766C464.117 24.7422 463.133 24.5781 462.117 24.4844C461.117 24.3906 460.141 24.3438 459.188 24.3438ZM498.375 19.2812C500.781 19.2812 503.047 19.4922 505.172 19.9141C507.297 20.3359 509.156 20.9219 510.75 21.6719C512.344 22.4219 513.602 23.3281 514.523 24.3906C515.445 25.4375 515.906 26.5938 515.906 27.8594V46.5156C515.906 47.7812 515.445 48.9453 514.523 50.0078C513.602 51.0547 512.344 51.9531 510.75 52.7031C509.156 53.4531 507.297 54.0391 505.172 54.4609C503.047 54.8828 500.781 55.0938 498.375 55.0938C497.031 55.0938 495.656 55.0469 494.25 54.9531C492.844 54.8438 491.477 54.7109 490.148 54.5547C488.836 54.3828 487.602 54.1875 486.445 53.9688C485.289 53.75 484.297 53.5156 483.469 53.2656V21.1094C484.297 20.8594 485.289 20.625 486.445 20.4062C487.602 20.1875 488.836 20 490.148 19.8438C491.477 19.6719 492.844 19.5391 494.25 19.4453C495.656 19.3359 497.031 19.2812 498.375 19.2812ZM498.469 24.5781C497.047 24.5781 495.812 24.625 494.766 24.7188C493.719 24.7969 492.82 24.9062 492.07 25.0469C491.32 25.1719 490.695 25.3125 490.195 25.4688C489.711 25.6094 489.312 25.7344 489 25.8438V48.5312C489.312 48.6562 489.711 48.7891 490.195 48.9297C490.695 49.0703 491.32 49.2109 492.07 49.3516C492.82 49.4766 493.719 49.5859 494.766 49.6797C495.812 49.7578 497.047 49.7969 498.469 49.7969C500.219 49.7969 501.789 49.6562 503.18 49.375C504.586 49.0938 505.766 48.7188 506.719 48.25C507.688 47.7812 508.43 47.2422 508.945 46.6328C509.461 46.0078 509.719 45.3594 509.719 44.6875V29.6875C509.719 29.0156 509.461 28.375 508.945 27.7656C508.43 27.1406 507.688 26.5938 506.719 26.125C505.766 25.6562 504.586 25.2812 503.18 25C501.789 24.7188 500.219 24.5781 498.469 24.5781Z" fill="url(#paint2_linear)"/>
<defs>
<linearGradient id="paint0_linear" x1="323.5" y1="98" x2="516" y2="317" gradientUnits="userSpaceOnUse">
<stop stop-color="#BBFFFB"/>
<stop offset="0.991366" stop-color="#5878A9" stop-opacity="0.65"/>
</linearGradient>
<linearGradient id="paint1_linear" x1="251.5" y1="77.5" x2="93.5" y2="327" gradientUnits="userSpaceOnUse">
<stop stop-color="#BBFFFB"/>
<stop offset="1" stop-color="#5878A9" stop-opacity="0.65"/>
</linearGradient>
<linearGradient id="paint2_linear" x1="90" y1="38.0001" x2="519" y2="37" gradientUnits="userSpaceOnUse">
<stop stop-color="#8F469B" stop-opacity="0.99"/>
<stop offset="1" stop-color="#2735B3" stop-opacity="0.72"/>
</linearGradient>
<clipPath id="clip0">
<rect width="314" height="246" fill="white" transform="translate(140 77)"/>
</clipPath>
<clipPath id="clip1">
<rect width="133" height="133" fill="white" transform="translate(0 148)"/>
</clipPath>
</defs>
</svg>
