<svg width="1440" height="1024" viewBox="0 0 1440 1024" fill="none" xmlns="http://www.w3.org/2000/svg">
<g clip-path="url(#clip0)">
<rect width="1440" height="1024" fill="url(#paint0_linear)"/>
<rect x="845" y="267.5" width="129" height="778" fill="#0F0D4A" stroke="black"/>
<path d="M765.5 1045.5V304.817L844 267.789V1045.5H765.5Z" fill="url(#paint1_linear)" stroke="black"/>
<rect x="144.5" y="291.5" width="80" height="732" fill="#0F0D4A" stroke="black"/>
<path d="M113.5 1023.5V312.797L143.211 292.472V1023.5H113.5Z" fill="url(#paint2_linear)" stroke="black"/>
<rect x="1061.5" y="290.5" width="80" height="733" fill="#0F0D4A" stroke="black"/>
<path d="M1011.5 1023.5V307.66L1060.21 291.221V1023.5H1011.5Z" fill="url(#paint3_linear)" stroke="black"/>
<rect x="1307.5" y="312.5" width="60" height="733" fill="#0F0D4A" stroke="black"/>
<path d="M1237.5 1045.5V329.698L1306.5 313.63V1045.5H1237.5Z" fill="url(#paint4_linear)" stroke="black"/>
<rect x="1192.5" y="484.5" width="80" height="733" fill="#0F0D4A" stroke="black"/>
<path d="M1142.5 1217.5V501.66L1191.21 485.221V1217.5H1142.5Z" fill="url(#paint5_linear)" stroke="black"/>
<rect x="1382.5" y="394.5" width="80" height="733" fill="#0F0D4A" stroke="black"/>
<path d="M1332.5 1127.5V411.66L1381.21 395.221V1127.5H1332.5Z" fill="url(#paint6_linear)" stroke="black"/>
<rect x="480.5" y="312.5" width="80" height="749" fill="#0F0D4A" stroke="black"/>
<path d="M430.5 1061.5V330.035L479.211 313.237V1061.5H430.5Z" fill="url(#paint7_linear)" stroke="black"/>
<rect x="603.5" y="219.5" width="80" height="818" fill="#0F0D4A" stroke="black"/>
<path d="M553.5 1037.5V238.651L602.211 220.308V1037.5H553.5Z" fill="url(#paint8_linear)" stroke="black"/>
<path d="M691.5 461.5H791V1239.5H691.5V461.5Z" fill="#0F0D4A" stroke="black"/>
<path d="M582.5 1239.5V498.863L696.5 461.689V1239.5H582.5Z" fill="url(#paint9_linear)" stroke="black"/>
<rect x="283.5" y="585.5" width="216" height="438" fill="url(#paint10_linear)" stroke="black"/>
<path d="M500.5 1023.5V585.381L557.5 569.657V1023.5H500.5Z" fill="#0F0D4A" stroke="black"/>
<line x1="283" y1="633" x2="500" y2="633" stroke="#945419" stroke-width="4"/>
<line x1="283" y1="669" x2="500" y2="669" stroke="#945419" stroke-width="4"/>
<line x1="283" y1="705" x2="500" y2="705" stroke="#945419" stroke-width="4"/>
<line x1="283" y1="741" x2="500" y2="741" stroke="#945419" stroke-width="4"/>
<line x1="283" y1="777" x2="500" y2="777" stroke="#945419" stroke-width="4"/>
<line x1="283" y1="813" x2="500" y2="813" stroke="#945419" stroke-width="4"/>
<line x1="283" y1="849" x2="500" y2="849" stroke="#945419" stroke-width="4"/>
<line x1="283" y1="885" x2="500" y2="885" stroke="#945419" stroke-width="4"/>
<line x1="283" y1="921" x2="500" y2="921" stroke="#945419" stroke-width="4"/>
<line x1="283" y1="957" x2="500" y2="957" stroke="#945419" stroke-width="4"/>
<line x1="283" y1="993" x2="500" y2="993" stroke="#945419" stroke-width="4"/>
<rect x="1190.51" y="711.5" width="45.9924" height="318" fill="#0F0D4A" stroke="black"/>
<path d="M1161.5 1029.5V718.909L1189.34 711.87V1029.5H1161.5Z" fill="url(#paint11_linear)" stroke="black"/>
<path d="M1091.5 723.5H1124.5V1029.5H1091.5V723.5Z" fill="#0F0D4A" stroke="black"/>
<path d="M1049.5 1029.5V735.676L1090.5 723.667V1029.5H1049.5Z" fill="url(#paint12_linear)" stroke="black"/>
<line x1="1047.87" y1="754.518" x2="1090.87" y2="742.518" stroke="black"/>
<line x1="1048.87" y1="772.518" x2="1091.87" y2="760.518" stroke="black"/>
<line x1="1049.87" y1="790.518" x2="1092.87" y2="778.518" stroke="black"/>
<line x1="1048.87" y1="809.518" x2="1091.87" y2="797.518" stroke="black"/>
<line x1="1049.87" y1="829.518" x2="1092.87" y2="817.518" stroke="black"/>
<line x1="1048.87" y1="845.518" x2="1091.87" y2="833.518" stroke="black"/>
<line x1="1048.87" y1="862.518" x2="1091.87" y2="850.518" stroke="black"/>
<line x1="1048.87" y1="881.518" x2="1091.87" y2="869.518" stroke="black"/>
<line x1="1047.87" y1="899.518" x2="1090.87" y2="887.518" stroke="black"/>
<line x1="1048.87" y1="916.518" x2="1091.87" y2="904.518" stroke="black"/>
<line x1="1049.87" y1="934.518" x2="1092.87" y2="922.518" stroke="black"/>
<line x1="1049.87" y1="950.518" x2="1092.87" y2="938.518" stroke="black"/>
<line x1="1048.87" y1="972.518" x2="1091.87" y2="960.518" stroke="black"/>
<line x1="1049.87" y1="989.518" x2="1092.87" y2="977.518" stroke="black"/>
<line x1="1049.87" y1="1008.52" x2="1092.87" y2="996.518" stroke="black"/>
<rect x="984.659" y="711.5" width="44.8413" height="318" fill="#0F0D4A" stroke="black"/>
<path d="M954.5 1029.5V718.912L983.485 711.864V1029.5H954.5Z" fill="url(#paint13_linear)" stroke="black"/>
<rect x="24.5" y="600.5" width="216" height="438" fill="url(#paint14_linear)" stroke="black"/>
<path d="M241.5 1038.5V600.381L298.5 584.657V1038.5H241.5Z" fill="#0F0D4A" stroke="black"/>
<rect x="52.5" y="558.463" width="181.28" height="41.0371" fill="#E2664A" stroke="black"/>
<path d="M234.78 599.5V558.398L276.5 552.575V599.5H234.78Z" fill="#0F0D4A" stroke="black"/>
<line x1="24" y1="648" x2="241" y2="648" stroke="#945419" stroke-width="4"/>
<line x1="24" y1="684" x2="241" y2="684" stroke="#945419" stroke-width="4"/>
<line x1="24" y1="720" x2="241" y2="720" stroke="#945419" stroke-width="4"/>
<line x1="24" y1="756" x2="241" y2="756" stroke="#945419" stroke-width="4"/>
<line x1="24" y1="792" x2="241" y2="792" stroke="#945419" stroke-width="4"/>
<line x1="24" y1="828" x2="241" y2="828" stroke="#945419" stroke-width="4"/>
<line x1="24" y1="864" x2="241" y2="864" stroke="#945419" stroke-width="4"/>
<line x1="24" y1="900" x2="241" y2="900" stroke="#945419" stroke-width="4"/>
<line x1="24" y1="936" x2="241" y2="936" stroke="#945419" stroke-width="4"/>
<line x1="24" y1="972" x2="241" y2="972" stroke="#945419" stroke-width="4"/>
<line x1="24" y1="1008" x2="241" y2="1008" stroke="#945419" stroke-width="4"/>
<rect x="325.5" y="380.955" width="164.709" height="203.545" fill="url(#paint15_linear)" stroke="black"/>
<path d="M491.5 584.353V380.886L540.5 373.58V571.613L491.5 584.353Z" fill="#0F0D4A" stroke="black"/>
<path d="M1203.83 481.36V484.604H1196.21V483.232L1200.93 480.725L1203.83 481.36Z" fill="#333333"/>
<path d="M1220.12 478.284C1220.51 479.282 1221.42 481.869 1221.42 481.869L1217.61 484.632H1214.17L1213.76 483.105L1218.09 479.276L1220.12 478.284Z" fill="#333333"/>
<path d="M1214.13 408.087H1203.77C1203.06 408.087 1202.48 408.757 1202.48 409.584V434.41C1202.48 435.237 1203.06 435.907 1203.77 435.907H1214.13C1214.84 435.907 1215.42 435.237 1215.42 434.41V409.584C1215.42 408.757 1214.84 408.087 1214.13 408.087Z" fill="#FD7512"/>
<path d="M1206.95 407.466C1208.72 407.466 1210.16 405.368 1210.16 402.782C1210.16 400.195 1208.72 398.098 1206.95 398.098C1205.18 398.098 1203.74 400.195 1203.74 402.782C1203.74 405.368 1205.18 407.466 1206.95 407.466Z" fill="#DE8E68"/>
<path d="M1204.61 394.416C1204.19 393.748 1203 393.899 1201.96 394.768C1201.56 395.091 1201.23 395.501 1200.97 395.975C1200.93 395.957 1200.9 395.947 1200.86 395.946C1200.35 395.946 1191.92 401.16 1192 403.565C1192.08 405.971 1194.91 409.829 1195.9 410.568C1195.9 410.568 1200.35 408.163 1200.11 407.391C1199.87 406.619 1197.31 404.147 1196.86 403.658C1197.39 403.338 1201.62 398.49 1202.1 397.941C1202.6 397.817 1203.07 397.57 1203.48 397.216C1204.53 396.345 1205.03 395.093 1204.61 394.416Z" fill="#DE8E68"/>
<path d="M1202.19 414.789C1203.16 413.886 1201.55 406.311 1199.83 406.125C1198.1 405.939 1195.1 409.694 1195.22 410.759C1195.34 411.825 1199.73 417.06 1202.19 414.789Z" fill="#02FF86"/>
<path d="M1198.4 432.793C1198.4 434.041 1198.94 477.21 1199.92 480.953C1200.78 481.452 1203.05 481.577 1203.8 481.202C1204.56 480.828 1209.38 433.477 1209.38 431.398C1209.38 429.32 1198.4 432.793 1198.4 432.793Z" fill="#3485FE"/>
<path d="M1217.69 479.735C1216.66 477.863 1203.24 441.522 1202.18 432.561C1203.29 431.574 1211.49 430.001 1212.15 431.792C1212.81 433.584 1220.78 477.88 1220.51 478.455C1220.24 479.03 1218.46 479.927 1217.69 479.735Z" fill="#1A30F5"/>
<path d="M1207 408.844C1213.96 408.844 1213.53 431.115 1212.01 432.487C1210.5 433.86 1198.69 433.922 1197.93 432.924C1197.17 431.926 1195.39 408.844 1207 408.844Z" fill="#7DFF9A"/>
<path d="M1212.06 401.191C1212.06 400.241 1211.28 399.556 1211.28 399.03C1211.28 398.503 1211.54 397.56 1210.94 396.885C1210.21 396.066 1209.05 396.407 1208.01 396.407C1207.03 396.407 1206.49 395.091 1205.15 395.091C1204.26 395.091 1204.37 396.429 1204.04 396.76C1203.79 397.01 1201.86 397.489 1201.86 398.507C1201.86 399.645 1201.89 401.172 1203.93 401.172C1204.07 400.626 1204.58 399.425 1205.16 398.891C1205.46 399.041 1207.11 399.825 1207.51 399.963C1207.92 400.102 1208.51 402.115 1209.14 402.359C1209.77 402.602 1209.81 403.943 1210.28 403.886C1210.74 403.829 1212.06 403.604 1212.06 401.191Z" fill="black"/>
<path d="M1209.72 404.133C1210.19 404.133 1210.57 403.693 1210.57 403.151C1210.57 402.609 1210.19 402.169 1209.72 402.169C1209.25 402.169 1208.87 402.609 1208.87 403.151C1208.87 403.693 1209.25 404.133 1209.72 404.133Z" fill="#DE8E68"/>
<path d="M1208.56 410.591C1208.42 411.134 1205.57 410.475 1205.62 409.861L1206.11 404.409L1209.55 405.265C1209.55 405.265 1208.69 410.051 1208.56 410.591Z" fill="#DE8E68"/>
<path d="M1228 413.515L1215.93 482.694" stroke="#333333" stroke-width="7" stroke-miterlimit="10" stroke-linecap="round"/>
<path d="M1226.06 432.604C1225.74 432.229 1225.33 431.978 1224.88 431.887C1223.44 429.201 1218.54 420.921 1216.39 417.913C1214.83 419.205 1212.93 421.463 1212.93 421.463C1213.73 422.491 1219.67 430.617 1222.83 433.803C1222.83 434.137 1222.88 434.468 1223 434.776C1223.11 435.084 1223.27 435.363 1223.48 435.596C1224.28 436.522 1225.5 436.602 1226.22 435.777C1226.93 434.953 1226.86 433.53 1226.06 432.604Z" fill="#DE8E68"/>
<path d="M1209.73 412.493C1212.52 410.094 1217.12 415.896 1217.05 417.422C1216.97 418.948 1213.44 422.331 1212.23 422.335C1210.75 422.338 1207.35 414.536 1209.73 412.493Z" fill="#02FF86"/>
<path d="M1212.95 427.043C1207.36 420.648 1206.29 416.807 1209.57 409.717L1211.03 411.421C1208.51 416.254 1208.45 419.044 1212.77 422.309L1212.95 424.581V427.043Z" fill="#FD7512" stroke="#FD7512"/>
<path d="M1199.32 415.113C1201.23 413.147 1203.07 410.001 1203.07 410.001L1205.17 409.054C1203.6 413.024 1202.07 414.846 1198.5 417.575L1199.32 415.113Z" fill="#FD7512" stroke="#FD7512"/>
</g>
<defs>
<linearGradient id="paint0_linear" x1="720" y1="0" x2="720" y2="1024" gradientUnits="userSpaceOnUse">
<stop stop-color="#FC7D5D"/>
<stop offset="0.453125" stop-color="#FFBA68" stop-opacity="0.49"/>
<stop offset="1" stop-color="white" stop-opacity="0"/>
</linearGradient>
<linearGradient id="paint1_linear" x1="804.75" y1="267" x2="804.75" y2="1046" gradientUnits="userSpaceOnUse">
<stop stop-color="#FFBA68"/>
<stop offset="0.807292" stop-color="#F70000" stop-opacity="0.614583"/>
<stop offset="1" stop-color="#5E2005" stop-opacity="0.9"/>
</linearGradient>
<linearGradient id="paint2_linear" x1="118.856" y1="291.524" x2="118.856" y2="1024" gradientUnits="userSpaceOnUse">
<stop stop-color="#FFB567"/>
<stop offset="0.489583" stop-color="#FB725B"/>
<stop offset="0.645833" stop-color="#803A25"/>
</linearGradient>
<linearGradient id="paint3_linear" x1="1035.86" y1="290.524" x2="1035.86" y2="1024" gradientUnits="userSpaceOnUse">
<stop stop-color="#FFB567"/>
<stop offset="0.489583" stop-color="#FB725B"/>
<stop offset="0.645833" stop-color="#803A25"/>
</linearGradient>
<linearGradient id="paint4_linear" x1="1261.86" y1="312.524" x2="1261.86" y2="1046" gradientUnits="userSpaceOnUse">
<stop stop-color="#FFB567"/>
<stop offset="0.489583" stop-color="#FB725B"/>
<stop offset="0.645833" stop-color="#803A25"/>
</linearGradient>
<linearGradient id="paint5_linear" x1="1166.86" y1="484.524" x2="1166.86" y2="1218" gradientUnits="userSpaceOnUse">
<stop stop-color="#FFB567"/>
<stop offset="0.489583" stop-color="#FB725B"/>
<stop offset="0.645833" stop-color="#803A25"/>
</linearGradient>
<linearGradient id="paint6_linear" x1="1356.86" y1="394.524" x2="1356.86" y2="1128" gradientUnits="userSpaceOnUse">
<stop stop-color="#FFB567"/>
<stop offset="0.489583" stop-color="#FB725B"/>
<stop offset="0.645833" stop-color="#803A25"/>
</linearGradient>
<linearGradient id="paint7_linear" x1="454.856" y1="312.536" x2="454.856" y2="1062" gradientUnits="userSpaceOnUse">
<stop stop-color="#FFB567"/>
<stop offset="0.489583" stop-color="#FB725B"/>
<stop offset="1" stop-color="#803A25"/>
</linearGradient>
<linearGradient id="paint8_linear" x1="577.856" y1="219.585" x2="577.856" y2="1038" gradientUnits="userSpaceOnUse">
<stop stop-color="#FFB567"/>
<stop offset="0.489583" stop-color="#FB725B"/>
<stop offset="1" stop-color="#803A25"/>
</linearGradient>
<linearGradient id="paint9_linear" x1="621.75" y1="461" x2="621.75" y2="1240" gradientUnits="userSpaceOnUse">
<stop stop-color="#FFBA68"/>
<stop offset="0.807292" stop-color="#F70000" stop-opacity="0.614583"/>
<stop offset="1" stop-color="#5E2005" stop-opacity="0.9"/>
</linearGradient>
<linearGradient id="paint10_linear" x1="391.5" y1="585" x2="391.5" y2="1024" gradientUnits="userSpaceOnUse">
<stop stop-color="#FFBE80"/>
<stop offset="0.145833" stop-color="#FC795D"/>
<stop offset="1" stop-color="#9A3115"/>
</linearGradient>
<linearGradient id="paint11_linear" x1="1175.42" y1="711.228" x2="1175.42" y2="1030" gradientUnits="userSpaceOnUse">
<stop stop-color="#FFB567"/>
<stop offset="0.302083" stop-color="#E70707"/>
<stop offset="0.583333" stop-color="#681D10"/>
<stop offset="0.885417" stop-color="#803A25"/>
</linearGradient>
<linearGradient id="paint12_linear" x1="1063.42" y1="715.813" x2="1063.42" y2="1030" gradientUnits="userSpaceOnUse">
<stop stop-color="#FFB567"/>
<stop offset="0.489583" stop-color="#FB725B"/>
<stop offset="1" stop-color="#803A25"/>
</linearGradient>
<linearGradient id="paint13_linear" x1="968.992" y1="711.228" x2="968.992" y2="1030" gradientUnits="userSpaceOnUse">
<stop stop-color="#FFB567"/>
<stop offset="0.489583" stop-color="#FB725B"/>
<stop offset="1" stop-color="#803A25"/>
</linearGradient>
<linearGradient id="paint14_linear" x1="132.5" y1="600" x2="132.5" y2="1039" gradientUnits="userSpaceOnUse">
<stop stop-color="#FFBE80"/>
<stop offset="0.145833" stop-color="#FC795D"/>
<stop offset="1" stop-color="#9A3115"/>
</linearGradient>
<linearGradient id="paint15_linear" x1="407.855" y1="380.455" x2="407.855" y2="585" gradientUnits="userSpaceOnUse">
<stop stop-color="#FFBE80"/>
<stop offset="0.145833" stop-color="#FC795D"/>
<stop offset="1" stop-color="#9A3115"/>
</linearGradient>
<clipPath id="clip0">
<rect width="1440" height="1024" fill="white"/>
</clipPath>
</defs>
</svg>
