<?xml version="1.0" standalone="no"?><svg xmlns:xlink="http://www.w3.org/1999/xlink" xmlns="http://www.w3.org/2000/svg" viewBox="0 0 1000 666.6666666666666" preserveAspectRatio="xMaxYMax slice"><g transform="scale(0.7993605115907274)"><rect x="0" y="0" width="1251" height="834" fill="#000000"/><rect x="0" y="0" width="83.4" height="83.4" fill="#000000"/><rect x="0" y="0" width="41.7" height="41.7" fill="#3d039c"/><polygon points="0,0 41.7,41.7 0,41.7" fill="#320380"/><rect x="41.7" y="0" width="41.7" height="41.7" fill="#4103a6"/><polygon points="41.7,0 83.4,0 83.4,41.7" fill="#390392"/><rect x="0" y="41.7" width="41.7" height="41.7" fill="#4b04bf"/><polygon points="0,41.7 41.7,41.7 0,83.4" fill="#2c0271"/><rect x="41.7" y="41.7" width="41.7" height="41.7" fill="#05000c"/><polygon points="41.7,41.7 83.4,41.7 41.7,83.4" fill="#220258"/><rect x="83.4" y="0" width="83.4" height="83.4" fill="#100128"/><polygon points="83.4,0 166.8,0 83.4,83.4" fill="#13012f"/><rect x="166.8" y="0" width="83.4" height="83.4" fill="#000000"/><rect x="166.8" y="0" width="41.7" height="41.7" fill="#30027b"/><polygon points="166.8,0 208.5,0 208.5,41.7" fill="#5905e3"/><rect x="208.5" y="0" width="41.7" height="41.7" fill="#1a0143"/><polygon points="208.5,0 250.2,41.7 208.5,41.7" fill="#0c0120"/><rect x="166.8" y="41.7" width="41.7" height="41.7" fill="#38038f"/><polygon points="166.8,41.7 208.5,41.7 208.5,83.4" fill="#5905e3"/><rect x="208.5" y="41.7" width="41.7" height="41.7" fill="#3b0396"/><polygon points="208.5,41.7 250.2,41.7 250.2,83.4" fill="#5704df"/><rect x="250.2" y="0" width="83.4" height="83.4" fill="#4604b4"/><polygon points="250.2,0 333.6,0 333.6,83.4" fill="#04000b"/><rect x="333.6" y="0" width="83.4" height="83.4" fill="#070012"/><polygon points="333.6,0 417,0 417,83.4" fill="#0f0125"/><rect x="417" y="0" width="83.4" height="83.4" fill="#30027a"/><polygon points="500.4,0 500.4,83.4 417,83.4" fill="#2f0277"/><rect x="500.4" y="0" width="83.4" height="83.4" fill="#040009"/><polygon points="500.4,0 583.8,0 583.8,83.4" fill="#1a0143"/><rect x="583.8" y="0" width="83.4" height="83.4" fill="#4c04c3"/><polygon points="667.1999999999999,0 667.1999999999999,83.4 583.8,83.4" fill="#5404d7"/><rect x="667.2" y="0" width="83.4" height="83.4" fill="#160138"/><polygon points="667.2,0 750.6,83.4 667.2,83.4" fill="#270262"/><rect x="750.6" y="0" width="83.4" height="83.4" fill="#000000"/><rect x="750.6" y="0" width="41.7" height="41.7" fill="#5304d4"/><polygon points="792.3000000000001,0 792.3000000000001,41.7 750.6,41.7" fill="#30027a"/><rect x="792.3" y="0" width="41.7" height="41.7" fill="#060010"/><polygon points="792.3,0 834,41.7 792.3,41.7" fill="#220256"/><rect x="750.6" y="41.7" width="41.7" height="41.7" fill="#5905e3"/><polygon points="792.3000000000001,41.7 792.3000000000001,83.4 750.6,83.4" fill="#030008"/><rect x="792.3" y="41.7" width="41.7" height="41.7" fill="#5404d6"/><polygon points="792.3,41.7 834,41.7 834,83.4" fill="#30027a"/><rect x="834" y="0" width="83.4" height="83.4" fill="#000000"/><rect x="834" y="0" width="41.7" height="41.7" fill="#4804b7"/><polygon points="834,0 875.7,0 834,41.7" fill="#11012c"/><rect x="875.7" y="0" width="41.7" height="41.7" fill="#1c0148"/><polygon points="875.7,0 917.4000000000001,41.7 875.7,41.7" fill="#5104ce"/><rect x="834" y="41.7" width="41.7" height="41.7" fill="#0e0124"/><polygon points="875.7,41.7 875.7,83.4 834,83.4" fill="#3b0396"/><rect x="875.7" y="41.7" width="41.7" height="41.7" fill="#4303ac"/><polygon points="917.4000000000001,41.7 917.4000000000001,83.4 875.7,83.4" fill="#040009"/><rect x="917.4" y="0" width="83.4" height="83.4" fill="#4d04c5"/><polygon points="917.4,0 1000.8,0 917.4,83.4" fill="#4a04bd"/><rect x="1000.8" y="0" width="83.4" height="83.4" fill="#4604b3"/><polygon points="1000.8,0 1084.2,0 1000.8,83.4" fill="#290269"/><rect x="1084.2" y="0" width="83.4" height="83.4" fill="#000000"/><rect x="1084.2" y="0" width="41.7" height="41.7" fill="#3a0393"/><polygon points="1084.2,0 1125.9,0 1125.9,41.7" fill="#160138"/><rect x="1125.9" y="0" width="41.7" height="41.7" fill="#5004cd"/><polygon points="1167.6000000000001,0 1167.6000000000001,41.7 1125.9,41.7" fill="#0e0123"/><rect x="1084.2" y="41.7" width="41.7" height="41.7" fill="#330383"/><polygon points="1084.2,41.7 1125.9,41.7 1125.9,83.4" fill="#090018"/><rect x="1125.9" y="41.7" width="41.7" height="41.7" fill="#5c05ea"/><polygon points="1167.6000000000001,41.7 1167.6000000000001,83.4 1125.9,83.4" fill="#140133"/><rect x="1167.6" y="0" width="83.4" height="83.4" fill="#25025e"/><polygon points="1251,0 1251,83.4 1167.6,83.4" fill="#38038e"/><rect x="0" y="83.4" width="83.4" height="83.4" fill="#0b011d"/><polygon points="0,83.4 83.4,83.4 0,166.8" fill="#260261"/><rect x="83.4" y="83.4" width="83.4" height="83.4" fill="#6005f4"/><polygon points="83.4,83.4 166.8,83.4 166.8,166.8" fill="#340385"/><rect x="166.8" y="83.4" width="83.4" height="83.4" fill="#2a026c"/><polygon points="166.8,83.4 250.20000000000002,83.4 166.8,166.8" fill="#3b0397"/><rect x="250.2" y="83.4" width="83.4" height="83.4" fill="#2e0275"/><polygon points="333.6,83.4 333.6,166.8 250.2,166.8" fill="#5004cb"/><rect x="333.6" y="83.4" width="83.4" height="83.4" fill="#000000"/><rect x="333.6" y="83.4" width="41.7" height="41.7" fill="#160137"/><polygon points="333.6,83.4 375.3,125.10000000000001 333.6,125.10000000000001" fill="#4e04c6"/><rect x="375.3" y="83.4" width="41.7" height="41.7" fill="#3f03a1"/><polygon points="417,83.4 417,125.10000000000001 375.3,125.10000000000001" fill="#220257"/><rect x="333.6" y="125.1" width="41.7" height="41.7" fill="#4e04c7"/><polygon points="375.3,125.1 375.3,166.8 333.6,166.8" fill="#4504af"/><rect x="375.3" y="125.1" width="41.7" height="41.7" fill="#5a05e7"/><polygon points="375.3,125.1 417,166.8 375.3,166.8" fill="#270263"/><rect x="417" y="83.4" width="83.4" height="83.4" fill="#4f04c9"/><polygon points="417,83.4 500.4,83.4 500.4,166.8" fill="#290268"/><rect x="500.4" y="83.4" width="83.4" height="83.4" fill="#4403ae"/><polygon points="500.4,83.4 583.8,83.4 583.8,166.8" fill="#36038b"/><rect x="583.8000000000001" y="83.4" width="83.4" height="83.4" fill="#000000"/><rect x="583.8" y="83.4" width="41.7" height="41.7" fill="#1b0144"/><polygon points="625.5,83.4 625.5,125.10000000000001 583.8,125.10000000000001" fill="#4804b8"/><rect x="625.5" y="83.4" width="41.7" height="41.7" fill="#5004cc"/><polygon points="625.5,83.4 667.2,83.4 625.5,125.10000000000001" fill="#4303aa"/><rect x="583.8" y="125.1" width="41.7" height="41.7" fill="#220258"/><polygon points="625.5,125.1 625.5,166.8 583.8,166.8" fill="#260261"/><rect x="625.5" y="125.1" width="41.7" height="41.7" fill="#090017"/><polygon points="625.5,125.1 667.2,125.1 667.2,166.8" fill="#31037d"/><rect x="667.2" y="83.4" width="83.4" height="83.4" fill="#000000"/><rect x="667.2" y="83.4" width="41.7" height="41.7" fill="#3a0394"/><polygon points="667.2,83.4 708.9000000000001,125.10000000000001 667.2,125.10000000000001" fill="#270263"/><rect x="708.9" y="83.4" width="41.7" height="41.7" fill="#0c011e"/><polygon points="750.6,83.4 750.6,125.10000000000001 708.9,125.10000000000001" fill="#5e05f0"/><rect x="667.2" y="125.1" width="41.7" height="41.7" fill="#330383"/><polygon points="667.2,125.1 708.9000000000001,166.8 667.2,166.8" fill="#6005f4"/><rect x="708.9" y="125.1" width="41.7" height="41.7" fill="#150136"/><polygon points="708.9,125.1 750.6,125.1 750.6,166.8" fill="#5c05eb"/><rect x="750.6" y="83.4" width="83.4" height="83.4" fill="#4e04c8"/><polygon points="750.6,83.4 834,83.4 750.6,166.8" fill="#5f05f3"/><rect x="834" y="83.4" width="83.4" height="83.4" fill="#5804e0"/><polygon points="834,83.4 917.4,166.8 834,166.8" fill="#0d0122"/><rect x="917.4000000000001" y="83.4" width="83.4" height="83.4" fill="#000000"/><rect x="917.4" y="83.4" width="41.7" height="41.7" fill="#4704b5"/><polygon points="917.4,83.4 959.1,83.4 917.4,125.10000000000001" fill="#10012a"/><rect x="959.1" y="83.4" width="41.7" height="41.7" fill="#5d05ee"/><polygon points="1000.8000000000001,83.4 1000.8000000000001,125.10000000000001 959.1,125.10000000000001" fill="#2b026d"/><rect x="917.4" y="125.1" width="41.7" height="41.7" fill="#1b0145"/><polygon points="959.1,125.1 959.1,166.8 917.4,166.8" fill="#4504b1"/><rect x="959.1" y="125.1" width="41.7" height="41.7" fill="#04000b"/><polygon points="959.1,125.1 1000.8000000000001,125.1 959.1,166.8" fill="#5a05e5"/><rect x="1000.8000000000001" y="83.4" width="83.4" height="83.4" fill="#000000"/><rect x="1000.8" y="83.4" width="41.7" height="41.7" fill="#020005"/><polygon points="1042.5,83.4 1042.5,125.10000000000001 1000.8,125.10000000000001" fill="#1f024e"/><rect x="1042.5" y="83.4" width="41.7" height="41.7" fill="#0c0120"/><polygon points="1084.2,83.4 1084.2,125.10000000000001 1042.5,125.10000000000001" fill="#5e05f1"/><rect x="1000.8" y="125.1" width="41.7" height="41.7" fill="#330382"/><polygon points="1000.8,125.1 1042.5,125.1 1000.8,166.8" fill="#37038c"/><rect x="1042.5" y="125.1" width="41.7" height="41.7" fill="#340384"/><polygon points="1042.5,125.1 1084.2,125.1 1084.2,166.8" fill="#5104d0"/><rect x="1084.2" y="83.4" width="83.4" height="83.4" fill="#3b0396"/><polygon points="1084.2,83.4 1167.6000000000001,83.4 1167.6000000000001,166.8" fill="#0d0121"/><rect x="1167.6" y="83.4" width="83.4" height="83.4" fill="#210254"/><polygon points="1167.6,83.4 1251,166.8 1167.6,166.8" fill="#5404d7"/><rect x="0" y="166.8" width="83.4" height="83.4" fill="#000000"/><rect x="0" y="166.8" width="41.7" height="41.7" fill="#140133"/><polygon points="0,166.8 41.7,166.8 0,208.5" fill="#4203a8"/><rect x="41.7" y="166.8" width="41.7" height="41.7" fill="#260260"/><polygon points="41.7,166.8 83.4,166.8 41.7,208.5" fill="#0a011a"/><rect x="0" y="208.5" width="41.7" height="41.7" fill="#5104ce"/><polygon points="0,208.5 41.7,208.5 41.7,250.2" fill="#17013b"/><rect x="41.7" y="208.5" width="41.7" height="41.7" fill="#210254"/><polygon points="41.7,208.5 83.4,250.2 41.7,250.2" fill="#6105f8"/><rect x="83.4" y="166.8" width="83.4" height="83.4" fill="#070011"/><polygon points="83.4,166.8 166.8,250.20000000000002 83.4,250.20000000000002" fill="#5a05e6"/><rect x="166.8" y="166.8" width="83.4" height="83.4" fill="#0a011a"/><polygon points="250.20000000000002,166.8 250.20000000000002,250.20000000000002 166.8,250.20000000000002" fill="#3f03a0"/><rect x="250.2" y="166.8" width="83.4" height="83.4" fill="#4203a9"/><polygon points="250.2,166.8 333.6,250.20000000000002 250.2,250.20000000000002" fill="#5a05e5"/><rect x="333.6" y="166.8" width="83.4" height="83.4" fill="#280266"/><polygon points="333.6,166.8 417,166.8 417,250.20000000000002" fill="#6105f8"/><rect x="417" y="166.8" width="83.4" height="83.4" fill="#200252"/><polygon points="417,166.8 500.4,166.8 500.4,250.20000000000002" fill="#4f04c9"/><rect x="500.40000000000003" y="166.8" width="83.4" height="83.4" fill="#000000"/><rect x="500.4" y="166.8" width="41.7" height="41.7" fill="#190140"/><polygon points="500.4,166.8 542.1,166.8 542.1,208.5" fill="#3d039d"/><rect x="542.1" y="166.8" width="41.7" height="41.7" fill="#230259"/><polygon points="542.1,166.8 583.8000000000001,166.8 583.8000000000001,208.5" fill="#0a011a"/><rect x="500.4" y="208.5" width="41.7" height="41.7" fill="#0d0120"/><polygon points="500.4,208.5 542.1,208.5 500.4,250.2" fill="#330383"/><rect x="542.1" y="208.5" width="41.7" height="41.7" fill="#4b04c0"/><polygon points="583.8000000000001,208.5 583.8000000000001,250.2 542.1,250.2" fill="#4f04cb"/><rect x="583.8000000000001" y="166.8" width="83.4" height="83.4" fill="#000000"/><rect x="583.8" y="166.8" width="41.7" height="41.7" fill="#5704dd"/><polygon points="583.8,166.8 625.5,166.8 625.5,208.5" fill="#1c0147"/><rect x="625.5" y="166.8" width="41.7" height="41.7" fill="#5d05ee"/><polygon points="625.5,166.8 667.2,208.5 625.5,208.5" fill="#37038d"/><rect x="583.8" y="208.5" width="41.7" height="41.7" fill="#4303aa"/><polygon points="583.8,208.5 625.5,208.5 625.5,250.2" fill="#200252"/><rect x="625.5" y="208.5" width="41.7" height="41.7" fill="#5204d2"/><polygon points="625.5,208.5 667.2,250.2 625.5,250.2" fill="#2b026e"/><rect x="667.2" y="166.8" width="83.4" height="83.4" fill="#000000"/><rect x="667.2" y="166.8" width="41.7" height="41.7" fill="#5a05e6"/><polygon points="667.2,166.8 708.9000000000001,166.8 667.2,208.5" fill="#3d039c"/><rect x="708.9" y="166.8" width="41.7" height="41.7" fill="#360389"/><polygon points="708.9,166.8 750.6,166.8 708.9,208.5" fill="#36038a"/><rect x="667.2" y="208.5" width="41.7" height="41.7" fill="#140133"/><polygon points="708.9000000000001,208.5 708.9000000000001,250.2 667.2,250.2" fill="#4403ae"/><rect x="708.9" y="208.5" width="41.7" height="41.7" fill="#17013a"/><polygon points="750.6,208.5 750.6,250.2 708.9,250.2" fill="#4303aa"/><rect x="750.6" y="166.8" width="83.4" height="83.4" fill="#140134"/><polygon points="750.6,166.8 834,166.8 834,250.20000000000002" fill="#000001"/><rect x="834" y="166.8" width="83.4" height="83.4" fill="#000000"/><rect x="834" y="166.8" width="41.7" height="41.7" fill="#340386"/><polygon points="875.7,166.8 875.7,208.5 834,208.5" fill="#5304d3"/><rect x="875.7" y="166.8" width="41.7" height="41.7" fill="#130131"/><polygon points="875.7,166.8 917.4000000000001,208.5 875.7,208.5" fill="#4303aa"/><rect x="834" y="208.5" width="41.7" height="41.7" fill="#4804b7"/><polygon points="875.7,208.5 875.7,250.2 834,250.2" fill="#4504b0"/><rect x="875.7" y="208.5" width="41.7" height="41.7" fill="#5204d1"/><polygon points="875.7,208.5 917.4000000000001,250.2 875.7,250.2" fill="#2c0270"/><rect x="917.4" y="166.8" width="83.4" height="83.4" fill="#11012d"/><polygon points="917.4,166.8 1000.8,166.8 1000.8,250.20000000000002" fill="#24025d"/><rect x="1000.8000000000001" y="166.8" width="83.4" height="83.4" fill="#000000"/><rect x="1000.8" y="166.8" width="41.7" height="41.7" fill="#4a04bd"/><polygon points="1042.5,166.8 1042.5,208.5 1000.8,208.5" fill="#0b011d"/><rect x="1042.5" y="166.8" width="41.7" height="41.7" fill="#5f05f4"/><polygon points="1084.2,166.8 1084.2,208.5 1042.5,208.5" fill="#25025e"/><rect x="1000.8" y="208.5" width="41.7" height="41.7" fill="#3e039e"/><polygon points="1000.8,208.5 1042.5,208.5 1042.5,250.2" fill="#1f024f"/><rect x="1042.5" y="208.5" width="41.7" height="41.7" fill="#6005f5"/><polygon points="1042.5,208.5 1084.2,208.5 1084.2,250.2" fill="#130132"/><rect x="1084.2" y="166.8" width="83.4" height="83.4" fill="#330383"/><polygon points="1084.2,166.8 1167.6000000000001,166.8 1167.6000000000001,250.20000000000002" fill="#4804b8"/><rect x="1167.6000000000001" y="166.8" width="83.4" height="83.4" fill="#000000"/><rect x="1167.6" y="166.8" width="41.7" height="41.7" fill="#4e04c7"/><polygon points="1167.6,166.8 1209.3,166.8 1167.6,208.5" fill="#4604b2"/><rect x="1209.3" y="166.8" width="41.7" height="41.7" fill="#0f0126"/><polygon points="1251,166.8 1251,208.5 1209.3,208.5" fill="#280267"/><rect x="1167.6" y="208.5" width="41.7" height="41.7" fill="#05000d"/><polygon points="1167.6,208.5 1209.3,208.5 1209.3,250.2" fill="#4403ae"/><rect x="1209.3" y="208.5" width="41.7" height="41.7" fill="#5504d8"/><polygon points="1209.3,208.5 1251,208.5 1209.3,250.2" fill="#140133"/><rect x="0" y="250.20000000000002" width="83.4" height="83.4" fill="#000000"/><rect x="0" y="250.2" width="41.7" height="41.7" fill="#390390"/><polygon points="41.7,250.2 41.7,291.9 0,291.9" fill="#5704df"/><rect x="41.7" y="250.2" width="41.7" height="41.7" fill="#17013a"/><polygon points="41.7,250.2 83.4,250.2 41.7,291.9" fill="#3d039b"/><rect x="0" y="291.9" width="41.7" height="41.7" fill="#260260"/><polygon points="0,291.9 41.7,291.9 0,333.59999999999997" fill="#060010"/><rect x="41.7" y="291.9" width="41.7" height="41.7" fill="#05000d"/><polygon points="83.4,291.9 83.4,333.59999999999997 41.7,333.59999999999997" fill="#5104cd"/><rect x="83.4" y="250.2" width="83.4" height="83.4" fill="#020006"/><polygon points="83.4,250.2 166.8,333.6 83.4,333.6" fill="#31027c"/><rect x="166.8" y="250.20000000000002" width="83.4" height="83.4" fill="#000000"/><rect x="166.8" y="250.2" width="41.7" height="41.7" fill="#5805e1"/><polygon points="166.8,250.2 208.5,250.2 166.8,291.9" fill="#6105f8"/><rect x="208.5" y="250.2" width="41.7" height="41.7" fill="#6105f6"/><polygon points="208.5,250.2 250.2,291.9 208.5,291.9" fill="#0f0125"/><rect x="166.8" y="291.9" width="41.7" height="41.7" fill="#1c0148"/><polygon points="166.8,291.9 208.5,291.9 208.5,333.59999999999997" fill="#090018"/><rect x="208.5" y="291.9" width="41.7" height="41.7" fill="#13012f"/><polygon points="208.5,291.9 250.2,291.9 250.2,333.59999999999997" fill="#070012"/><rect x="250.20000000000002" y="250.20000000000002" width="83.4" height="83.4" fill="#000000"/><rect x="250.2" y="250.2" width="41.7" height="41.7" fill="#3a0394"/><polygon points="250.2,250.2 291.9,250.2 291.9,291.9" fill="#1b0144"/><rect x="291.9" y="250.2" width="41.7" height="41.7" fill="#5604dc"/><polygon points="291.9,250.2 333.59999999999997,250.2 291.9,291.9" fill="#5d05ed"/><rect x="250.2" y="291.9" width="41.7" height="41.7" fill="#130131"/><polygon points="291.9,291.9 291.9,333.59999999999997 250.2,333.59999999999997" fill="#010002"/><rect x="291.9" y="291.9" width="41.7" height="41.7" fill="#260262"/><polygon points="333.59999999999997,291.9 333.59999999999997,333.59999999999997 291.9,333.59999999999997" fill="#31027c"/><rect x="333.6" y="250.20000000000002" width="83.4" height="83.4" fill="#000000"/><rect x="333.6" y="250.2" width="41.7" height="41.7" fill="#5804e0"/><polygon points="333.6,250.2 375.3,291.9 333.6,291.9" fill="#010002"/><rect x="375.3" y="250.2" width="41.7" height="41.7" fill="#5404d6"/><polygon points="375.3,250.2 417,250.2 417,291.9" fill="#320380"/><rect x="333.6" y="291.9" width="41.7" height="41.7" fill="#1d0149"/><polygon points="375.3,291.9 375.3,333.59999999999997 333.6,333.59999999999997" fill="#4003a4"/><rect x="375.3" y="291.9" width="41.7" height="41.7" fill="#5e05ef"/><polygon points="375.3,291.9 417,333.59999999999997 375.3,333.59999999999997" fill="#31027c"/><rect x="417" y="250.20000000000002" width="83.4" height="83.4" fill="#000000"/><rect x="417" y="250.2" width="41.7" height="41.7" fill="#160139"/><polygon points="417,250.2 458.7,291.9 417,291.9" fill="#1d014a"/><rect x="458.7" y="250.2" width="41.7" height="41.7" fill="#6105f8"/><polygon points="500.4,250.2 500.4,291.9 458.7,291.9" fill="#4e04c6"/><rect x="417" y="291.9" width="41.7" height="41.7" fill="#2b026e"/><polygon points="458.7,291.9 458.7,333.59999999999997 417,333.59999999999997" fill="#1d014a"/><rect x="458.7" y="291.9" width="41.7" height="41.7" fill="#18013e"/><polygon points="458.7,291.9 500.4,291.9 458.7,333.59999999999997" fill="#04000b"/><rect x="500.40000000000003" y="250.20000000000002" width="83.4" height="83.4" fill="#000000"/><rect x="500.4" y="250.2" width="41.7" height="41.7" fill="#1f024f"/><polygon points="500.4,250.2 542.1,250.2 542.1,291.9" fill="#130131"/><rect x="542.1" y="250.2" width="41.7" height="41.7" fill="#5704dd"/><polygon points="542.1,250.2 583.8000000000001,250.2 542.1,291.9" fill="#5104ce"/><rect x="500.4" y="291.9" width="41.7" height="41.7" fill="#30027a"/><polygon points="500.4,291.9 542.1,291.9 542.1,333.59999999999997" fill="#4b04be"/><rect x="542.1" y="291.9" width="41.7" height="41.7" fill="#4403ad"/><polygon points="542.1,291.9 583.8000000000001,291.9 542.1,333.59999999999997" fill="#4604b4"/><rect x="583.8000000000001" y="250.20000000000002" width="83.4" height="83.4" fill="#000000"/><rect x="583.8" y="250.2" width="41.7" height="41.7" fill="#1e024e"/><polygon points="583.8,250.2 625.5,291.9 583.8,291.9" fill="#4804b7"/><rect x="625.5" y="250.2" width="41.7" height="41.7" fill="#2a026c"/><polygon points="625.5,250.2 667.2,250.2 625.5,291.9" fill="#6005f4"/><rect x="583.8" y="291.9" width="41.7" height="41.7" fill="#5905e4"/><polygon points="583.8,291.9 625.5,333.59999999999997 583.8,333.59999999999997" fill="#1e024c"/><rect x="625.5" y="291.9" width="41.7" height="41.7" fill="#2c026f"/><polygon points="625.5,291.9 667.2,291.9 625.5,333.59999999999997" fill="#05000e"/><rect x="667.2" y="250.20000000000002" width="83.4" height="83.4" fill="#000000"/><rect x="667.2" y="250.2" width="41.7" height="41.7" fill="#130131"/><polygon points="667.2,250.2 708.9000000000001,250.2 667.2,291.9" fill="#1e024c"/><rect x="708.9" y="250.2" width="41.7" height="41.7" fill="#4103a6"/><polygon points="750.6,250.2 750.6,291.9 708.9,291.9" fill="#25025e"/><rect x="667.2" y="291.9" width="41.7" height="41.7" fill="#030008"/><polygon points="667.2,291.9 708.9000000000001,291.9 667.2,333.59999999999997" fill="#30027b"/><rect x="708.9" y="291.9" width="41.7" height="41.7" fill="#330383"/><polygon points="708.9,291.9 750.6,291.9 750.6,333.59999999999997" fill="#5204d1"/><rect x="750.6" y="250.20000000000002" width="83.4" height="83.4" fill="#000000"/><rect x="750.6" y="250.2" width="41.7" height="41.7" fill="#5b05e8"/><polygon points="750.6,250.2 792.3000000000001,250.2 792.3000000000001,291.9" fill="#06000e"/><rect x="792.3" y="250.2" width="41.7" height="41.7" fill="#350386"/><polygon points="792.3,250.2 834,250.2 792.3,291.9" fill="#290269"/><rect x="750.6" y="291.9" width="41.7" height="41.7" fill="#5e05f0"/><polygon points="750.6,291.9 792.3000000000001,333.59999999999997 750.6,333.59999999999997" fill="#130131"/><rect x="792.3" y="291.9" width="41.7" height="41.7" fill="#5d05ed"/><polygon points="792.3,291.9 834,333.59999999999997 792.3,333.59999999999997" fill="#6205fa"/><rect x="834" y="250.2" width="83.4" height="83.4" fill="#25025f"/><polygon points="834,250.2 917.4,250.2 834,333.6" fill="#1c0147"/><rect x="917.4" y="250.2" width="83.4" height="83.4" fill="#4d04c4"/><polygon points="917.4,250.2 1000.8,250.2 1000.8,333.6" fill="#04000b"/><rect x="1000.8" y="250.2" width="83.4" height="83.4" fill="#000001"/><polygon points="1000.8,250.2 1084.2,250.2 1000.8,333.6" fill="#200250"/><rect x="1084.2" y="250.20000000000002" width="83.4" height="83.4" fill="#000000"/><rect x="1084.2" y="250.2" width="41.7" height="41.7" fill="#5704df"/><polygon points="1084.2,250.2 1125.9,291.9 1084.2,291.9" fill="#5504da"/><rect x="1125.9" y="250.2" width="41.7" height="41.7" fill="#280266"/><polygon points="1167.6000000000001,250.2 1167.6000000000001,291.9 1125.9,291.9" fill="#18013e"/><rect x="1084.2" y="291.9" width="41.7" height="41.7" fill="#2f0277"/><polygon points="1125.9,291.9 1125.9,333.59999999999997 1084.2,333.59999999999997" fill="#5704dd"/><rect x="1125.9" y="291.9" width="41.7" height="41.7" fill="#000000"/><polygon points="1125.9,291.9 1167.6000000000001,333.59999999999997 1125.9,333.59999999999997" fill="#3d039c"/><rect x="1167.6" y="250.2" width="83.4" height="83.4" fill="#290268"/><polygon points="1167.6,250.2 1251,250.2 1251,333.6" fill="#06000f"/><rect x="0" y="333.6" width="83.4" height="83.4" fill="#3c0398"/><polygon points="0,333.6 83.4,333.6 0,417" fill="#150136"/><rect x="83.4" y="333.6" width="83.4" height="83.4" fill="#200253"/><polygon points="83.4,333.6 166.8,333.6 166.8,417" fill="#010002"/><rect x="166.8" y="333.6" width="83.4" height="83.4" fill="#000000"/><rect x="166.8" y="333.6" width="41.7" height="41.7" fill="#100128"/><polygon points="166.8,333.6 208.5,375.3 166.8,375.3" fill="#2a026c"/><rect x="208.5" y="333.6" width="41.7" height="41.7" fill="#4804b9"/><polygon points="250.2,333.6 250.2,375.3 208.5,375.3" fill="#160138"/><rect x="166.8" y="375.3" width="41.7" height="41.7" fill="#5704de"/><polygon points="208.5,375.3 208.5,417 166.8,417" fill="#5004cc"/><rect x="208.5" y="375.3" width="41.7" height="41.7" fill="#5a05e5"/><polygon points="208.5,375.3 250.2,375.3 250.2,417" fill="#4f04c9"/><rect x="250.2" y="333.6" width="83.4" height="83.4" fill="#0b011d"/><polygon points="250.2,333.6 333.6,417 250.2,417" fill="#5c05eb"/><rect x="333.6" y="333.6" width="83.4" height="83.4" fill="#000000"/><rect x="333.6" y="333.6" width="41.7" height="41.7" fill="#2e0275"/><polygon points="333.6,333.6 375.3,333.6 333.6,375.3" fill="#5204d0"/><rect x="375.3" y="333.6" width="41.7" height="41.7" fill="#4c04c1"/><polygon points="375.3,333.6 417,333.6 417,375.3" fill="#5404d6"/><rect x="333.6" y="375.3" width="41.7" height="41.7" fill="#1c0148"/><polygon points="375.3,375.3 375.3,417 333.6,417" fill="#4c04c1"/><rect x="375.3" y="375.3" width="41.7" height="41.7" fill="#2b026d"/><polygon points="417,375.3 417,417 375.3,417" fill="#3f03a1"/><rect x="417" y="333.6" width="83.4" height="83.4" fill="#000000"/><rect x="417" y="333.6" width="41.7" height="41.7" fill="#2f0278"/><polygon points="417,333.6 458.7,333.6 417,375.3" fill="#4a04bc"/><rect x="458.7" y="333.6" width="41.7" height="41.7" fill="#5704de"/><polygon points="458.7,333.6 500.4,333.6 500.4,375.3" fill="#5b05e8"/><rect x="417" y="375.3" width="41.7" height="41.7" fill="#4303ab"/><polygon points="417,375.3 458.7,375.3 417,417" fill="#160139"/><rect x="458.7" y="375.3" width="41.7" height="41.7" fill="#12012f"/><polygon points="500.4,375.3 500.4,417 458.7,417" fill="#5b05e9"/><rect x="500.4" y="333.6" width="83.4" height="83.4" fill="#1c0149"/><polygon points="500.4,333.6 583.8,333.6 500.4,417" fill="#25025d"/><rect x="583.8" y="333.6" width="83.4" height="83.4" fill="#24025c"/><polygon points="583.8,333.6 667.1999999999999,417 583.8,417" fill="#320380"/><rect x="667.2" y="333.6" width="83.4" height="83.4" fill="#090018"/><polygon points="750.6,333.6 750.6,417 667.2,417" fill="#37038d"/><rect x="750.6" y="333.6" width="83.4" height="83.4" fill="#11012b"/><polygon points="750.6,333.6 834,333.6 750.6,417" fill="#05000c"/><rect x="834" y="333.6" width="83.4" height="83.4" fill="#4e04c7"/><polygon points="834,333.6 917.4,333.6 834,417" fill="#1c0147"/><rect x="917.4000000000001" y="333.6" width="83.4" height="83.4" fill="#000000"/><rect x="917.4" y="333.6" width="41.7" height="41.7" fill="#0c011f"/><polygon points="917.4,333.6 959.1,333.6 959.1,375.3" fill="#330383"/><rect x="959.1" y="333.6" width="41.7" height="41.7" fill="#37038d"/><polygon points="959.1,333.6 1000.8000000000001,375.3 959.1,375.3" fill="#0c011f"/><rect x="917.4" y="375.3" width="41.7" height="41.7" fill="#2e0276"/><polygon points="959.1,375.3 959.1,417 917.4,417" fill="#23025a"/><rect x="959.1" y="375.3" width="41.7" height="41.7" fill="#030007"/><polygon points="959.1,375.3 1000.8000000000001,375.3 1000.8000000000001,417" fill="#5004cb"/><rect x="1000.8000000000001" y="333.6" width="83.4" height="83.4" fill="#000000"/><rect x="1000.8" y="333.6" width="41.7" height="41.7" fill="#1b0146"/><polygon points="1000.8,333.6 1042.5,333.6 1042.5,375.3" fill="#36038b"/><rect x="1042.5" y="333.6" width="41.7" height="41.7" fill="#020006"/><polygon points="1084.2,333.6 1084.2,375.3 1042.5,375.3" fill="#4003a3"/><rect x="1000.8" y="375.3" width="41.7" height="41.7" fill="#6105f8"/><polygon points="1000.8,375.3 1042.5,417 1000.8,417" fill="#2d0272"/><rect x="1042.5" y="375.3" width="41.7" height="41.7" fill="#5a05e4"/><polygon points="1042.5,375.3 1084.2,375.3 1084.2,417" fill="#4f04ca"/><rect x="1084.2" y="333.6" width="83.4" height="83.4" fill="#000000"/><rect x="1084.2" y="333.6" width="41.7" height="41.7" fill="#0e0124"/><polygon points="1084.2,333.6 1125.9,375.3 1084.2,375.3" fill="#4d04c6"/><rect x="1125.9" y="333.6" width="41.7" height="41.7" fill="#38038f"/><polygon points="1125.9,333.6 1167.6000000000001,333.6 1167.6000000000001,375.3" fill="#220257"/><rect x="1084.2" y="375.3" width="41.7" height="41.7" fill="#1d024b"/><polygon points="1084.2,375.3 1125.9,417 1084.2,417" fill="#190141"/><rect x="1125.9" y="375.3" width="41.7" height="41.7" fill="#3b0397"/><polygon points="1125.9,375.3 1167.6000000000001,375.3 1167.6000000000001,417" fill="#4d04c4"/><rect x="1167.6000000000001" y="333.6" width="83.4" height="83.4" fill="#000000"/><rect x="1167.6" y="333.6" width="41.7" height="41.7" fill="#5c05eb"/><polygon points="1167.6,333.6 1209.3,375.3 1167.6,375.3" fill="#5a05e6"/><rect x="1209.3" y="333.6" width="41.7" height="41.7" fill="#11012a"/><polygon points="1209.3,333.6 1251,333.6 1209.3,375.3" fill="#5f05f2"/><rect x="1167.6" y="375.3" width="41.7" height="41.7" fill="#5404d7"/><polygon points="1167.6,375.3 1209.3,375.3 1167.6,417" fill="#5304d5"/><rect x="1209.3" y="375.3" width="41.7" height="41.7" fill="#350388"/><polygon points="1209.3,375.3 1251,375.3 1251,417" fill="#5905e4"/><rect x="0" y="417" width="83.4" height="83.4" fill="#000000"/><rect x="0" y="417" width="41.7" height="41.7" fill="#200252"/><polygon points="41.7,417 41.7,458.7 0,458.7" fill="#5404d6"/><rect x="41.7" y="417" width="41.7" height="41.7" fill="#18013e"/><polygon points="41.7,417 83.4,417 83.4,458.7" fill="#5104cd"/><rect x="0" y="458.7" width="41.7" height="41.7" fill="#1d014a"/><polygon points="0,458.7 41.7,458.7 0,500.4" fill="#17013a"/><rect x="41.7" y="458.7" width="41.7" height="41.7" fill="#090018"/><polygon points="41.7,458.7 83.4,458.7 83.4,500.4" fill="#5804e1"/><rect x="83.4" y="417" width="83.4" height="83.4" fill="#000000"/><rect x="83.4" y="417" width="41.7" height="41.7" fill="#5804df"/><polygon points="125.10000000000001,417 125.10000000000001,458.7 83.4,458.7" fill="#31037d"/><rect x="125.1" y="417" width="41.7" height="41.7" fill="#5905e3"/><polygon points="166.8,417 166.8,458.7 125.1,458.7" fill="#4a04be"/><rect x="83.4" y="458.7" width="41.7" height="41.7" fill="#100129"/><polygon points="83.4,458.7 125.10000000000001,458.7 125.10000000000001,500.4" fill="#2b026f"/><rect x="125.1" y="458.7" width="41.7" height="41.7" fill="#4704b5"/><polygon points="125.1,458.7 166.8,458.7 125.1,500.4" fill="#2e0276"/><rect x="166.8" y="417" width="83.4" height="83.4" fill="#4403ad"/><polygon points="250.20000000000002,417 250.20000000000002,500.4 166.8,500.4" fill="#5e05ef"/><rect x="250.2" y="417" width="83.4" height="83.4" fill="#24025d"/><polygon points="333.6,417 333.6,500.4 250.2,500.4" fill="#5c05eb"/><rect x="333.6" y="417" width="83.4" height="83.4" fill="#4c04c3"/><polygon points="333.6,417 417,500.4 333.6,500.4" fill="#5304d3"/><rect x="417" y="417" width="83.4" height="83.4" fill="#380390"/><polygon points="417,417 500.4,417 417,500.4" fill="#17013c"/><rect x="500.40000000000003" y="417" width="83.4" height="83.4" fill="#000000"/><rect x="500.4" y="417" width="41.7" height="41.7" fill="#210253"/><polygon points="500.4,417 542.1,417 500.4,458.7" fill="#25025e"/><rect x="542.1" y="417" width="41.7" height="41.7" fill="#18013d"/><polygon points="542.1,417 583.8000000000001,417 542.1,458.7" fill="#4c04c2"/><rect x="500.4" y="458.7" width="41.7" height="41.7" fill="#030008"/><polygon points="500.4,458.7 542.1,500.4 500.4,500.4" fill="#5404d6"/><rect x="542.1" y="458.7" width="41.7" height="41.7" fill="#0f0126"/><polygon points="542.1,458.7 583.8000000000001,500.4 542.1,500.4" fill="#3a0393"/><rect x="583.8000000000001" y="417" width="83.4" height="83.4" fill="#000000"/><rect x="583.8" y="417" width="41.7" height="41.7" fill="#5304d3"/><polygon points="625.5,417 625.5,458.7 583.8,458.7" fill="#6105f7"/><rect x="625.5" y="417" width="41.7" height="41.7" fill="#3a0395"/><polygon points="667.2,417 667.2,458.7 625.5,458.7" fill="#0a0019"/><rect x="583.8" y="458.7" width="41.7" height="41.7" fill="#150137"/><polygon points="583.8,458.7 625.5,500.4 583.8,500.4" fill="#23025a"/><rect x="625.5" y="458.7" width="41.7" height="41.7" fill="#2c026f"/><polygon points="625.5,458.7 667.2,500.4 625.5,500.4" fill="#4d04c4"/><rect x="667.2" y="417" width="83.4" height="83.4" fill="#000000"/><rect x="667.2" y="417" width="41.7" height="41.7" fill="#3e039d"/><polygon points="708.9000000000001,417 708.9000000000001,458.7 667.2,458.7" fill="#140133"/><rect x="708.9" y="417" width="41.7" height="41.7" fill="#260260"/><polygon points="708.9,417 750.6,417 750.6,458.7" fill="#3f03a1"/><rect x="667.2" y="458.7" width="41.7" height="41.7" fill="#150137"/><polygon points="708.9000000000001,458.7 708.9000000000001,500.4 667.2,500.4" fill="#130131"/><rect x="708.9" y="458.7" width="41.7" height="41.7" fill="#290269"/><polygon points="708.9,458.7 750.6,458.7 708.9,500.4" fill="#230259"/><rect x="750.6" y="417" width="83.4" height="83.4" fill="#000000"/><rect x="750.6" y="417" width="41.7" height="41.7" fill="#25025e"/><polygon points="750.6,417 792.3000000000001,458.7 750.6,458.7" fill="#0b011b"/><rect x="792.3" y="417" width="41.7" height="41.7" fill="#5b05e9"/><polygon points="834,417 834,458.7 792.3,458.7" fill="#37038d"/><rect x="750.6" y="458.7" width="41.7" height="41.7" fill="#18013c"/><polygon points="750.6,458.7 792.3000000000001,500.4 750.6,500.4" fill="#3e039f"/><rect x="792.3" y="458.7" width="41.7" height="41.7" fill="#4003a2"/><polygon points="792.3,458.7 834,458.7 834,500.4" fill="#2a026b"/><rect x="834" y="417" width="83.4" height="83.4" fill="#000000"/><rect x="834" y="417" width="41.7" height="41.7" fill="#360389"/><polygon points="834,417 875.7,417 875.7,458.7" fill="#260260"/><rect x="875.7" y="417" width="41.7" height="41.7" fill="#4704b4"/><polygon points="875.7,417 917.4000000000001,417 875.7,458.7" fill="#24025c"/><rect x="834" y="458.7" width="41.7" height="41.7" fill="#17013b"/><polygon points="834,458.7 875.7,458.7 834,500.4" fill="#0f0126"/><rect x="875.7" y="458.7" width="41.7" height="41.7" fill="#4604b2"/><polygon points="875.7,458.7 917.4000000000001,458.7 875.7,500.4" fill="#4303aa"/><rect x="917.4000000000001" y="417" width="83.4" height="83.4" fill="#000000"/><rect x="917.4" y="417" width="41.7" height="41.7" fill="#130131"/><polygon points="917.4,417 959.1,458.7 917.4,458.7" fill="#330383"/><rect x="959.1" y="417" width="41.7" height="41.7" fill="#160139"/><polygon points="959.1,417 1000.8000000000001,417 1000.8000000000001,458.7" fill="#4704b6"/><rect x="917.4" y="458.7" width="41.7" height="41.7" fill="#32037e"/><polygon points="917.4,458.7 959.1,458.7 959.1,500.4" fill="#6105f9"/><rect x="959.1" y="458.7" width="41.7" height="41.7" fill="#5104cd"/><polygon points="959.1,458.7 1000.8000000000001,458.7 1000.8000000000001,500.4" fill="#4203a8"/><rect x="1000.8000000000001" y="417" width="83.4" height="83.4" fill="#000000"/><rect x="1000.8" y="417" width="41.7" height="41.7" fill="#5d05ed"/><polygon points="1000.8,417 1042.5,417 1000.8,458.7" fill="#5404d6"/><rect x="1042.5" y="417" width="41.7" height="41.7" fill="#06000f"/><polygon points="1042.5,417 1084.2,417 1084.2,458.7" fill="#1b0146"/><rect x="1000.8" y="458.7" width="41.7" height="41.7" fill="#30027b"/><polygon points="1042.5,458.7 1042.5,500.4 1000.8,500.4" fill="#080014"/><rect x="1042.5" y="458.7" width="41.7" height="41.7" fill="#3d039b"/><polygon points="1042.5,458.7 1084.2,458.7 1084.2,500.4" fill="#280266"/><rect x="1084.2" y="417" width="83.4" height="83.4" fill="#1a0142"/><polygon points="1084.2,417 1167.6000000000001,500.4 1084.2,500.4" fill="#140134"/><rect x="1167.6000000000001" y="417" width="83.4" height="83.4" fill="#000000"/><rect x="1167.6" y="417" width="41.7" height="41.7" fill="#4604b1"/><polygon points="1209.3,417 1209.3,458.7 1167.6,458.7" fill="#340384"/><rect x="1209.3" y="417" width="41.7" height="41.7" fill="#100128"/><polygon points="1251,417 1251,458.7 1209.3,458.7" fill="#380390"/><rect x="1167.6" y="458.7" width="41.7" height="41.7" fill="#5a05e5"/><polygon points="1167.6,458.7 1209.3,458.7 1167.6,500.4" fill="#6005f6"/><rect x="1209.3" y="458.7" width="41.7" height="41.7" fill="#390392"/><polygon points="1209.3,458.7 1251,458.7 1209.3,500.4" fill="#0b011c"/><rect x="0" y="500.40000000000003" width="83.4" height="83.4" fill="#000000"/><rect x="0" y="500.4" width="41.7" height="41.7" fill="#220258"/><polygon points="41.7,500.4 41.7,542.1 0,542.1" fill="#0c011f"/><rect x="41.7" y="500.4" width="41.7" height="41.7" fill="#290269"/><polygon points="41.7,500.4 83.4,500.4 41.7,542.1" fill="#280265"/><rect x="0" y="542.1" width="41.7" height="41.7" fill="#24025d"/><polygon points="0,542.1 41.7,542.1 41.7,583.8000000000001" fill="#1c0148"/><rect x="41.7" y="542.1" width="41.7" height="41.7" fill="#1c0147"/><polygon points="83.4,542.1 83.4,583.8000000000001 41.7,583.8000000000001" fill="#1e024d"/><rect x="83.4" y="500.40000000000003" width="83.4" height="83.4" fill="#000000"/><rect x="83.4" y="500.4" width="41.7" height="41.7" fill="#4d04c5"/><polygon points="83.4,500.4 125.10000000000001,542.1 83.4,542.1" fill="#5004cd"/><rect x="125.1" y="500.4" width="41.7" height="41.7" fill="#130131"/><polygon points="125.1,500.4 166.8,542.1 125.1,542.1" fill="#5905e2"/><rect x="83.4" y="542.1" width="41.7" height="41.7" fill="#0c011e"/><polygon points="83.4,542.1 125.10000000000001,583.8000000000001 83.4,583.8000000000001" fill="#25025d"/><rect x="125.1" y="542.1" width="41.7" height="41.7" fill="#4303aa"/><polygon points="125.1,542.1 166.8,583.8000000000001 125.1,583.8000000000001" fill="#0a0019"/><rect x="166.8" y="500.4" width="83.4" height="83.4" fill="#260261"/><polygon points="166.8,500.4 250.20000000000002,583.8 166.8,583.8" fill="#5a05e5"/><rect x="250.20000000000002" y="500.40000000000003" width="83.4" height="83.4" fill="#000000"/><rect x="250.2" y="500.4" width="41.7" height="41.7" fill="#5204d1"/><polygon points="250.2,500.4 291.9,500.4 291.9,542.1" fill="#4003a2"/><rect x="291.9" y="500.4" width="41.7" height="41.7" fill="#350388"/><polygon points="291.9,500.4 333.59999999999997,500.4 333.59999999999997,542.1" fill="#3a0393"/><rect x="250.2" y="542.1" width="41.7" height="41.7" fill="#2f0278"/><polygon points="250.2,542.1 291.9,542.1 291.9,583.8000000000001" fill="#24025c"/><rect x="291.9" y="542.1" width="41.7" height="41.7" fill="#2d0272"/><polygon points="333.59999999999997,542.1 333.59999999999997,583.8000000000001 291.9,583.8000000000001" fill="#5604dd"/><rect x="333.6" y="500.4" width="83.4" height="83.4" fill="#4904bb"/><polygon points="333.6,500.4 417,500.4 333.6,583.8" fill="#24025d"/><rect x="417" y="500.40000000000003" width="83.4" height="83.4" fill="#000000"/><rect x="417" y="500.4" width="41.7" height="41.7" fill="#0a0119"/><polygon points="417,500.4 458.7,542.1 417,542.1" fill="#1d0149"/><rect x="458.7" y="500.4" width="41.7" height="41.7" fill="#270263"/><polygon points="458.7,500.4 500.4,542.1 458.7,542.1" fill="#5e05ef"/><rect x="417" y="542.1" width="41.7" height="41.7" fill="#5404d6"/><polygon points="458.7,542.1 458.7,583.8000000000001 417,583.8000000000001" fill="#4403ad"/><rect x="458.7" y="542.1" width="41.7" height="41.7" fill="#5c05eb"/><polygon points="458.7,542.1 500.4,542.1 458.7,583.8000000000001" fill="#280267"/><rect x="500.40000000000003" y="500.40000000000003" width="83.4" height="83.4" fill="#000000"/><rect x="500.4" y="500.4" width="41.7" height="41.7" fill="#4e04c6"/><polygon points="542.1,500.4 542.1,542.1 500.4,542.1" fill="#230259"/><rect x="542.1" y="500.4" width="41.7" height="41.7" fill="#4a04bd"/><polygon points="542.1,500.4 583.8000000000001,542.1 542.1,542.1" fill="#4003a2"/><rect x="500.4" y="542.1" width="41.7" height="41.7" fill="#2b026d"/><polygon points="500.4,542.1 542.1,583.8000000000001 500.4,583.8000000000001" fill="#260261"/><rect x="542.1" y="542.1" width="41.7" height="41.7" fill="#4604b2"/><polygon points="542.1,542.1 583.8000000000001,542.1 583.8000000000001,583.8000000000001" fill="#0d0120"/><rect x="583.8000000000001" y="500.40000000000003" width="83.4" height="83.4" fill="#000000"/><rect x="583.8" y="500.4" width="41.7" height="41.7" fill="#130131"/><polygon points="583.8,500.4 625.5,542.1 583.8,542.1" fill="#31037e"/><rect x="625.5" y="500.4" width="41.7" height="41.7" fill="#330383"/><polygon points="667.2,500.4 667.2,542.1 625.5,542.1" fill="#5404d7"/><rect x="583.8" y="542.1" width="41.7" height="41.7" fill="#0d0121"/><polygon points="625.5,542.1 625.5,583.8000000000001 583.8,583.8000000000001" fill="#0a0119"/><rect x="625.5" y="542.1" width="41.7" height="41.7" fill="#020005"/><polygon points="625.5,542.1 667.2,583.8000000000001 625.5,583.8000000000001" fill="#4203a7"/><rect x="667.2" y="500.4" width="83.4" height="83.4" fill="#1d014b"/><polygon points="667.2,500.4 750.6,500.4 750.6,583.8" fill="#1d0149"/><rect x="750.6" y="500.40000000000003" width="83.4" height="83.4" fill="#000000"/><rect x="750.6" y="500.4" width="41.7" height="41.7" fill="#3e039f"/><polygon points="792.3000000000001,500.4 792.3000000000001,542.1 750.6,542.1" fill="#5905e3"/><rect x="792.3" y="500.4" width="41.7" height="41.7" fill="#6105f8"/><polygon points="792.3,500.4 834,500.4 792.3,542.1" fill="#2c026f"/><rect x="750.6" y="542.1" width="41.7" height="41.7" fill="#2d0272"/><polygon points="750.6,542.1 792.3000000000001,542.1 750.6,583.8000000000001" fill="#4604b3"/><rect x="792.3" y="542.1" width="41.7" height="41.7" fill="#220256"/><polygon points="792.3,542.1 834,542.1 792.3,583.8000000000001" fill="#390392"/><rect x="834" y="500.40000000000003" width="83.4" height="83.4" fill="#000000"/><rect x="834" y="500.4" width="41.7" height="41.7" fill="#6005f5"/><polygon points="834,500.4 875.7,542.1 834,542.1" fill="#040009"/><rect x="875.7" y="500.4" width="41.7" height="41.7" fill="#1d014a"/><polygon points="875.7,500.4 917.4000000000001,500.4 875.7,542.1" fill="#5a05e6"/><rect x="834" y="542.1" width="41.7" height="41.7" fill="#320380"/><polygon points="834,542.1 875.7,583.8000000000001 834,583.8000000000001" fill="#1a0142"/><rect x="875.7" y="542.1" width="41.7" height="41.7" fill="#3d039b"/><polygon points="875.7,542.1 917.4000000000001,542.1 917.4000000000001,583.8000000000001" fill="#5e05f0"/><rect x="917.4000000000001" y="500.40000000000003" width="83.4" height="83.4" fill="#000000"/><rect x="917.4" y="500.4" width="41.7" height="41.7" fill="#30027a"/><polygon points="917.4,500.4 959.1,500.4 917.4,542.1" fill="#5a05e6"/><rect x="959.1" y="500.4" width="41.7" height="41.7" fill="#340386"/><polygon points="959.1,500.4 1000.8000000000001,500.4 1000.8000000000001,542.1" fill="#4103a5"/><rect x="917.4" y="542.1" width="41.7" height="41.7" fill="#4303ab"/><polygon points="959.1,542.1 959.1,583.8000000000001 917.4,583.8000000000001" fill="#340386"/><rect x="959.1" y="542.1" width="41.7" height="41.7" fill="#4a04bd"/><polygon points="959.1,542.1 1000.8000000000001,542.1 1000.8000000000001,583.8000000000001" fill="#0e0124"/><rect x="1000.8" y="500.4" width="83.4" height="83.4" fill="#5f05f3"/><polygon points="1084.2,500.4 1084.2,583.8 1000.8,583.8" fill="#2b026e"/><rect x="1084.2" y="500.4" width="83.4" height="83.4" fill="#0d0121"/><polygon points="1084.2,500.4 1167.6000000000001,500.4 1167.6000000000001,583.8" fill="#4003a3"/><rect x="1167.6" y="500.4" width="83.4" height="83.4" fill="#1a0143"/><polygon points="1167.6,500.4 1251,583.8 1167.6,583.8" fill="#090018"/><rect x="0" y="583.8" width="83.4" height="83.4" fill="#000001"/><polygon points="0,583.8 83.4,583.8 0,667.1999999999999" fill="#4d04c6"/><rect x="83.4" y="583.8" width="83.4" height="83.4" fill="#5d05ee"/><polygon points="83.4,583.8 166.8,583.8 83.4,667.1999999999999" fill="#140134"/><rect x="166.8" y="583.8000000000001" width="83.4" height="83.4" fill="#000000"/><rect x="166.8" y="583.8" width="41.7" height="41.7" fill="#5104ce"/><polygon points="208.5,583.8 208.5,625.5 166.8,625.5" fill="#6205fa"/><rect x="208.5" y="583.8" width="41.7" height="41.7" fill="#070012"/><polygon points="250.2,583.8 250.2,625.5 208.5,625.5" fill="#06000e"/><rect x="166.8" y="625.5" width="41.7" height="41.7" fill="#3d039b"/><polygon points="166.8,625.5 208.5,625.5 166.8,667.2" fill="#5b05e7"/><rect x="208.5" y="625.5" width="41.7" height="41.7" fill="#260260"/><polygon points="250.2,625.5 250.2,667.2 208.5,667.2" fill="#140134"/><rect x="250.2" y="583.8" width="83.4" height="83.4" fill="#38038e"/><polygon points="250.2,583.8 333.6,667.1999999999999 250.2,667.1999999999999" fill="#5b05e9"/><rect x="333.6" y="583.8" width="83.4" height="83.4" fill="#160138"/><polygon points="333.6,583.8 417,583.8 333.6,667.1999999999999" fill="#4203a7"/><rect x="417" y="583.8000000000001" width="83.4" height="83.4" fill="#000000"/><rect x="417" y="583.8" width="41.7" height="41.7" fill="#24025d"/><polygon points="417,583.8 458.7,583.8 458.7,625.5" fill="#37038d"/><rect x="458.7" y="583.8" width="41.7" height="41.7" fill="#4804b8"/><polygon points="458.7,583.8 500.4,583.8 500.4,625.5" fill="#17013c"/><rect x="417" y="625.5" width="41.7" height="41.7" fill="#4503af"/><polygon points="417,625.5 458.7,667.2 417,667.2" fill="#4d04c6"/><rect x="458.7" y="625.5" width="41.7" height="41.7" fill="#330382"/><polygon points="458.7,625.5 500.4,625.5 458.7,667.2" fill="#24025d"/><rect x="500.4" y="583.8" width="83.4" height="83.4" fill="#0a0019"/><polygon points="500.4,583.8 583.8,583.8 500.4,667.1999999999999" fill="#6205fa"/><rect x="583.8" y="583.8" width="83.4" height="83.4" fill="#0b011c"/><polygon points="667.1999999999999,583.8 667.1999999999999,667.1999999999999 583.8,667.1999999999999" fill="#5804e1"/><rect x="667.2" y="583.8" width="83.4" height="83.4" fill="#5b05e9"/><polygon points="667.2,583.8 750.6,583.8 667.2,667.1999999999999" fill="#0b011c"/><rect x="750.6" y="583.8" width="83.4" height="83.4" fill="#04000a"/><polygon points="750.6,583.8 834,583.8 834,667.1999999999999" fill="#1a0143"/><rect x="834" y="583.8" width="83.4" height="83.4" fill="#5b05e7"/><polygon points="834,583.8 917.4,583.8 834,667.1999999999999" fill="#200250"/><rect x="917.4000000000001" y="583.8000000000001" width="83.4" height="83.4" fill="#000000"/><rect x="917.4" y="583.8" width="41.7" height="41.7" fill="#06000e"/><polygon points="917.4,583.8 959.1,583.8 917.4,625.5" fill="#3d039c"/><rect x="959.1" y="583.8" width="41.7" height="41.7" fill="#5504d9"/><polygon points="959.1,583.8 1000.8000000000001,583.8 1000.8000000000001,625.5" fill="#31027d"/><rect x="917.4" y="625.5" width="41.7" height="41.7" fill="#4003a4"/><polygon points="917.4,625.5 959.1,625.5 917.4,667.2" fill="#130130"/><rect x="959.1" y="625.5" width="41.7" height="41.7" fill="#020006"/><polygon points="959.1,625.5 1000.8000000000001,667.2 959.1,667.2" fill="#3a0394"/><rect x="1000.8000000000001" y="583.8000000000001" width="83.4" height="83.4" fill="#000000"/><rect x="1000.8" y="583.8" width="41.7" height="41.7" fill="#1c0147"/><polygon points="1000.8,583.8 1042.5,583.8 1000.8,625.5" fill="#06000e"/><rect x="1042.5" y="583.8" width="41.7" height="41.7" fill="#4f04c9"/><polygon points="1042.5,583.8 1084.2,625.5 1042.5,625.5" fill="#2b026e"/><rect x="1000.8" y="625.5" width="41.7" height="41.7" fill="#3c039a"/><polygon points="1000.8,625.5 1042.5,625.5 1042.5,667.2" fill="#4203a9"/><rect x="1042.5" y="625.5" width="41.7" height="41.7" fill="#5f05f3"/><polygon points="1042.5,625.5 1084.2,667.2 1042.5,667.2" fill="#6105f7"/><rect x="1084.2" y="583.8" width="83.4" height="83.4" fill="#340384"/><polygon points="1084.2,583.8 1167.6000000000001,583.8 1167.6000000000001,667.1999999999999" fill="#4904bb"/><rect x="1167.6" y="583.8" width="83.4" height="83.4" fill="#090018"/><polygon points="1167.6,583.8 1251,583.8 1251,667.1999999999999" fill="#3a0395"/><rect x="0" y="667.2" width="83.4" height="83.4" fill="#000000"/><rect x="0" y="667.2" width="41.7" height="41.7" fill="#230259"/><polygon points="0,667.2 41.7,708.9000000000001 0,708.9000000000001" fill="#210253"/><rect x="41.7" y="667.2" width="41.7" height="41.7" fill="#3a0395"/><polygon points="41.7,667.2 83.4,667.2 83.4,708.9000000000001" fill="#3e039e"/><rect x="0" y="708.9" width="41.7" height="41.7" fill="#330381"/><polygon points="41.7,708.9 41.7,750.6 0,750.6" fill="#1b0146"/><rect x="41.7" y="708.9" width="41.7" height="41.7" fill="#4904bb"/><polygon points="83.4,708.9 83.4,750.6 41.7,750.6" fill="#230259"/><rect x="83.4" y="667.2" width="83.4" height="83.4" fill="#5404d6"/><polygon points="83.4,667.2 166.8,750.6 83.4,750.6" fill="#030008"/><rect x="166.8" y="667.2" width="83.4" height="83.4" fill="#12012d"/><polygon points="166.8,667.2 250.20000000000002,667.2 166.8,750.6" fill="#090018"/><rect x="250.2" y="667.2" width="83.4" height="83.4" fill="#140132"/><polygon points="250.2,667.2 333.6,750.6 250.2,750.6" fill="#3e039f"/><rect x="333.6" y="667.2" width="83.4" height="83.4" fill="#5905e3"/><polygon points="333.6,667.2 417,750.6 333.6,750.6" fill="#25025f"/><rect x="417" y="667.2" width="83.4" height="83.4" fill="#070013"/><polygon points="500.4,667.2 500.4,750.6 417,750.6" fill="#060010"/><rect x="500.4" y="667.2" width="83.4" height="83.4" fill="#24025c"/><polygon points="500.4,667.2 583.8,750.6 500.4,750.6" fill="#19013f"/><rect x="583.8000000000001" y="667.2" width="83.4" height="83.4" fill="#000000"/><rect x="583.8" y="667.2" width="41.7" height="41.7" fill="#12012d"/><polygon points="583.8,667.2 625.5,667.2 583.8,708.9000000000001" fill="#190140"/><rect x="625.5" y="667.2" width="41.7" height="41.7" fill="#270262"/><polygon points="625.5,667.2 667.2,667.2 625.5,708.9000000000001" fill="#220256"/><rect x="583.8" y="708.9" width="41.7" height="41.7" fill="#150136"/><polygon points="583.8,708.9 625.5,708.9 583.8,750.6" fill="#030008"/><rect x="625.5" y="708.9" width="41.7" height="41.7" fill="#0c011e"/><polygon points="625.5,708.9 667.2,708.9 667.2,750.6" fill="#5504da"/><rect x="667.2" y="667.2" width="83.4" height="83.4" fill="#06000f"/><polygon points="667.2,667.2 750.6,667.2 667.2,750.6" fill="#270265"/><rect x="750.6" y="667.2" width="83.4" height="83.4" fill="#210255"/><polygon points="750.6,667.2 834,667.2 750.6,750.6" fill="#290269"/><rect x="834" y="667.2" width="83.4" height="83.4" fill="#000000"/><rect x="834" y="667.2" width="41.7" height="41.7" fill="#6105f7"/><polygon points="834,667.2 875.7,667.2 834,708.9000000000001" fill="#4003a3"/><rect x="875.7" y="667.2" width="41.7" height="41.7" fill="#5204d0"/><polygon points="875.7,667.2 917.4000000000001,667.2 875.7,708.9000000000001" fill="#2f0278"/><rect x="834" y="708.9" width="41.7" height="41.7" fill="#020005"/><polygon points="875.7,708.9 875.7,750.6 834,750.6" fill="#5204d1"/><rect x="875.7" y="708.9" width="41.7" height="41.7" fill="#4103a5"/><polygon points="875.7,708.9 917.4000000000001,708.9 875.7,750.6" fill="#31027c"/><rect x="917.4000000000001" y="667.2" width="83.4" height="83.4" fill="#000000"/><rect x="917.4" y="667.2" width="41.7" height="41.7" fill="#330383"/><polygon points="917.4,667.2 959.1,667.2 917.4,708.9000000000001" fill="#5704de"/><rect x="959.1" y="667.2" width="41.7" height="41.7" fill="#5004cb"/><polygon points="959.1,667.2 1000.8000000000001,667.2 1000.8000000000001,708.9000000000001" fill="#4c04c1"/><rect x="917.4" y="708.9" width="41.7" height="41.7" fill="#2b026d"/><polygon points="917.4,708.9 959.1,708.9 917.4,750.6" fill="#4403ae"/><rect x="959.1" y="708.9" width="41.7" height="41.7" fill="#30027b"/><polygon points="959.1,708.9 1000.8000000000001,708.9 1000.8000000000001,750.6" fill="#4103a5"/><rect x="1000.8000000000001" y="667.2" width="83.4" height="83.4" fill="#000000"/><rect x="1000.8" y="667.2" width="41.7" height="41.7" fill="#4203aa"/><polygon points="1000.8,667.2 1042.5,667.2 1000.8,708.9000000000001" fill="#4403ae"/><rect x="1042.5" y="667.2" width="41.7" height="41.7" fill="#4003a3"/><polygon points="1042.5,667.2 1084.2,667.2 1084.2,708.9000000000001" fill="#5304d3"/><rect x="1000.8" y="708.9" width="41.7" height="41.7" fill="#12012d"/><polygon points="1000.8,708.9 1042.5,750.6 1000.8,750.6" fill="#4203a8"/><rect x="1042.5" y="708.9" width="41.7" height="41.7" fill="#010002"/><polygon points="1042.5,708.9 1084.2,708.9 1042.5,750.6" fill="#2a026a"/><rect x="1084.2" y="667.2" width="83.4" height="83.4" fill="#000000"/><rect x="1084.2" y="667.2" width="41.7" height="41.7" fill="#0d0122"/><polygon points="1084.2,667.2 1125.9,667.2 1125.9,708.9000000000001" fill="#4003a4"/><rect x="1125.9" y="667.2" width="41.7" height="41.7" fill="#5604dc"/><polygon points="1167.6000000000001,667.2 1167.6000000000001,708.9000000000001 1125.9,708.9000000000001" fill="#4e04c6"/><rect x="1084.2" y="708.9" width="41.7" height="41.7" fill="#210254"/><polygon points="1084.2,708.9 1125.9,708.9 1125.9,750.6" fill="#4b04bf"/><rect x="1125.9" y="708.9" width="41.7" height="41.7" fill="#5704de"/><polygon points="1125.9,708.9 1167.6000000000001,750.6 1125.9,750.6" fill="#5905e2"/><rect x="1167.6000000000001" y="667.2" width="83.4" height="83.4" fill="#000000"/><rect x="1167.6" y="667.2" width="41.7" height="41.7" fill="#23025a"/><polygon points="1167.6,667.2 1209.3,708.9000000000001 1167.6,708.9000000000001" fill="#5d05ed"/><rect x="1209.3" y="667.2" width="41.7" height="41.7" fill="#2a026a"/><polygon points="1251,667.2 1251,708.9000000000001 1209.3,708.9000000000001" fill="#5c05ec"/><rect x="1167.6" y="708.9" width="41.7" height="41.7" fill="#3f03a1"/><polygon points="1167.6,708.9 1209.3,708.9 1209.3,750.6" fill="#18013e"/><rect x="1209.3" y="708.9" width="41.7" height="41.7" fill="#4003a4"/><polygon points="1209.3,708.9 1251,750.6 1209.3,750.6" fill="#200251"/><rect x="0" y="750.6" width="83.4" height="83.4" fill="#3e039d"/><polygon points="83.4,750.6 83.4,834 0,834" fill="#4704b5"/><rect x="83.4" y="750.6" width="83.4" height="83.4" fill="#000000"/><rect x="83.4" y="750.6" width="41.7" height="41.7" fill="#280265"/><polygon points="83.4,750.6 125.10000000000001,750.6 83.4,792.3000000000001" fill="#3e039e"/><rect x="125.1" y="750.6" width="41.7" height="41.7" fill="#36038a"/><polygon points="125.1,750.6 166.8,750.6 125.1,792.3000000000001" fill="#6105f8"/><rect x="83.4" y="792.3" width="41.7" height="41.7" fill="#260262"/><polygon points="83.4,792.3 125.10000000000001,792.3 83.4,834" fill="#4704b6"/><rect x="125.1" y="792.3" width="41.7" height="41.7" fill="#06000f"/><polygon points="125.1,792.3 166.8,792.3 166.8,834" fill="#4203a8"/><rect x="166.8" y="750.6" width="83.4" height="83.4" fill="#000000"/><rect x="166.8" y="750.6" width="41.7" height="41.7" fill="#390391"/><polygon points="166.8,750.6 208.5,750.6 166.8,792.3000000000001" fill="#0d0122"/><rect x="208.5" y="750.6" width="41.7" height="41.7" fill="#040009"/><polygon points="208.5,750.6 250.2,792.3000000000001 208.5,792.3000000000001" fill="#130131"/><rect x="166.8" y="792.3" width="41.7" height="41.7" fill="#5e05f0"/><polygon points="166.8,792.3 208.5,792.3 166.8,834" fill="#5504da"/><rect x="208.5" y="792.3" width="41.7" height="41.7" fill="#4904bb"/><polygon points="250.2,792.3 250.2,834 208.5,834" fill="#5704dd"/><rect x="250.2" y="750.6" width="83.4" height="83.4" fill="#030007"/><polygon points="250.2,750.6 333.6,834 250.2,834" fill="#340384"/><rect x="333.6" y="750.6" width="83.4" height="83.4" fill="#000000"/><rect x="333.6" y="750.6" width="41.7" height="41.7" fill="#080015"/><polygon points="333.6,750.6 375.3,750.6 375.3,792.3000000000001" fill="#6005f4"/><rect x="375.3" y="750.6" width="41.7" height="41.7" fill="#25025f"/><polygon points="375.3,750.6 417,750.6 375.3,792.3000000000001" fill="#5f05f3"/><rect x="333.6" y="792.3" width="41.7" height="41.7" fill="#5704df"/><polygon points="375.3,792.3 375.3,834 333.6,834" fill="#0a011a"/><rect x="375.3" y="792.3" width="41.7" height="41.7" fill="#4103a5"/><polygon points="375.3,792.3 417,834 375.3,834" fill="#100128"/><rect x="417" y="750.6" width="83.4" height="83.4" fill="#5604dd"/><polygon points="417,750.6 500.4,750.6 500.4,834" fill="#0a0019"/><rect x="500.4" y="750.6" width="83.4" height="83.4" fill="#3a0395"/><polygon points="500.4,750.6 583.8,750.6 583.8,834" fill="#5805e1"/><rect x="583.8000000000001" y="750.6" width="83.4" height="83.4" fill="#000000"/><rect x="583.8" y="750.6" width="41.7" height="41.7" fill="#4e04c7"/><polygon points="583.8,750.6 625.5,792.3000000000001 583.8,792.3000000000001" fill="#4604b2"/><rect x="625.5" y="750.6" width="41.7" height="41.7" fill="#4c04c1"/><polygon points="667.2,750.6 667.2,792.3000000000001 625.5,792.3000000000001" fill="#1e024d"/><rect x="583.8" y="792.3" width="41.7" height="41.7" fill="#36038a"/><polygon points="583.8,792.3 625.5,792.3 583.8,834" fill="#5b05e7"/><rect x="625.5" y="792.3" width="41.7" height="41.7" fill="#11012d"/><polygon points="625.5,792.3 667.2,834 625.5,834" fill="#4f04ca"/><rect x="667.2" y="750.6" width="83.4" height="83.4" fill="#0c011f"/><polygon points="750.6,750.6 750.6,834 667.2,834" fill="#5f05f3"/><rect x="750.6" y="750.6" width="83.4" height="83.4" fill="#070013"/><polygon points="750.6,750.6 834,834 750.6,834" fill="#12012d"/><rect x="834" y="750.6" width="83.4" height="83.4" fill="#000000"/><rect x="834" y="750.6" width="41.7" height="41.7" fill="#200251"/><polygon points="834,750.6 875.7,750.6 875.7,792.3000000000001" fill="#0b011b"/><rect x="875.7" y="750.6" width="41.7" height="41.7" fill="#100128"/><polygon points="875.7,750.6 917.4000000000001,750.6 875.7,792.3000000000001" fill="#5304d5"/><rect x="834" y="792.3" width="41.7" height="41.7" fill="#2b026e"/><polygon points="875.7,792.3 875.7,834 834,834" fill="#130132"/><rect x="875.7" y="792.3" width="41.7" height="41.7" fill="#030008"/><polygon points="875.7,792.3 917.4000000000001,792.3 917.4000000000001,834" fill="#18013d"/><rect x="917.4000000000001" y="750.6" width="83.4" height="83.4" fill="#000000"/><rect x="917.4" y="750.6" width="41.7" height="41.7" fill="#4203a9"/><polygon points="917.4,750.6 959.1,750.6 959.1,792.3000000000001" fill="#010002"/><rect x="959.1" y="750.6" width="41.7" height="41.7" fill="#5d05ee"/><polygon points="959.1,750.6 1000.8000000000001,750.6 1000.8000000000001,792.3000000000001" fill="#4203a9"/><rect x="917.4" y="792.3" width="41.7" height="41.7" fill="#2b026d"/><polygon points="917.4,792.3 959.1,792.3 959.1,834" fill="#1c0149"/><rect x="959.1" y="792.3" width="41.7" height="41.7" fill="#17013a"/><polygon points="959.1,792.3 1000.8000000000001,834 959.1,834" fill="#4a04be"/><rect x="1000.8" y="750.6" width="83.4" height="83.4" fill="#270264"/><polygon points="1000.8,750.6 1084.2,834 1000.8,834" fill="#5404d6"/><rect x="1084.2" y="750.6" width="83.4" height="83.4" fill="#000000"/><rect x="1084.2" y="750.6" width="41.7" height="41.7" fill="#4a04bd"/><polygon points="1084.2,750.6 1125.9,750.6 1084.2,792.3000000000001" fill="#4504b1"/><rect x="1125.9" y="750.6" width="41.7" height="41.7" fill="#5404d7"/><polygon points="1125.9,750.6 1167.6000000000001,792.3000000000001 1125.9,792.3000000000001" fill="#5a05e5"/><rect x="1084.2" y="792.3" width="41.7" height="41.7" fill="#3e039e"/><polygon points="1084.2,792.3 1125.9,792.3 1125.9,834" fill="#090016"/><rect x="1125.9" y="792.3" width="41.7" height="41.7" fill="#4904bb"/><polygon points="1125.9,792.3 1167.6000000000001,792.3 1125.9,834" fill="#290269"/><rect x="1167.6" y="750.6" width="83.4" height="83.4" fill="#4203a9"/><polygon points="1167.6,750.6 1251,750.6 1251,834" fill="#5c05eb"/></g></svg>