<svg width="327" height="455" viewBox="0 0 327 455" fill="none" xmlns="http://www.w3.org/2000/svg">
<path d="M320.043 149.984H6.95745C3.11495 149.984 0 152.471 0 155.538V195.534C0 198.602 3.11495 201.089 6.95745 201.089H320.043C323.885 201.089 327 198.602 327 195.534V155.538C327 152.471 323.885 149.984 320.043 149.984Z" fill="url(#paint0_linear)"/>
<path d="M320.043 213.31H6.95745C3.11495 213.31 0 215.797 0 218.865V258.86C0 261.928 3.11495 264.415 6.95745 264.415H320.043C323.885 264.415 327 261.928 327 258.86V218.865C327 215.797 323.885 213.31 320.043 213.31Z" fill="url(#paint1_linear)"/>
<path d="M320.043 276.636H6.95745C3.11495 276.636 0 279.123 0 282.191V322.187C0 325.255 3.11495 327.742 6.95745 327.742H320.043C323.885 327.742 327 325.255 327 322.187V282.191C327 279.123 323.885 276.636 320.043 276.636Z" fill="url(#paint2_linear)"/>
<path d="M320.043 339.963H6.95745C3.11495 339.963 0 342.45 0 345.518V385.513C0 388.581 3.11495 391.068 6.95745 391.068H320.043C323.885 391.068 327 388.581 327 385.513V345.518C327 342.45 323.885 339.963 320.043 339.963Z" fill="url(#paint3_linear)" fill-opacity="0.55"/>
<path d="M320.043 403.289H6.95745C3.11495 403.289 0 405.776 0 408.844V448.84C0 451.908 3.11495 454.395 6.95745 454.395H320.043C323.885 454.395 327 451.908 327 448.84V408.844C327 405.776 323.885 403.289 320.043 403.289Z" fill="url(#paint4_linear)" fill-opacity="0.45"/>
<g opacity="0.5">
<path opacity="0.5" d="M52.8198 238.263C52.8195 234.969 51.9381 231.732 50.2616 228.867C48.5848 226 46.1699 223.603 43.2519 221.909C40.3338 220.213 37.012 219.279 33.6096 219.195C30.2074 219.111 26.8406 219.88 23.8369 221.428C20.8331 222.977 18.2951 225.252 16.4694 228.032C14.6438 230.811 13.5929 233.999 13.4189 237.289C13.245 240.578 13.9541 243.854 15.4771 246.799C17.0001 249.745 19.2851 252.257 22.1097 254.094V254.181C22.7532 254.778 23.5125 255.244 24.3437 255.555L24.3707 255.469C25.2913 256.237 29.1816 257.464 33.6458 257.452H33.742C36.5691 257.452 39.6391 256.972 42.3391 255.555C42.3391 255.555 42.3623 255.507 42.4007 255.411C43.0853 255.1 43.7134 254.685 44.2611 254.181L44.2919 253.964C46.9229 252.213 49.0739 249.867 50.5595 247.133C52.0451 244.397 52.8209 241.353 52.8198 238.263Z" fill="url(#paint5_linear)"/>
</g>
<path d="M32.9023 256.084C43.462 256.084 52.0224 247.802 52.0224 237.584C52.0224 227.367 43.462 219.083 32.9023 219.083C22.3425 219.083 13.7822 227.367 13.7822 237.584C13.7822 247.802 22.3425 256.084 32.9023 256.084Z" fill="#F5F5F5"/>
<path d="M25.2449 244.875C25.2449 244.875 20.6883 245.247 21.8938 253.267C22.5197 253.847 23.258 254.3 24.0663 254.601L26.6277 246.208L25.2449 244.875Z" fill="#FDA57D"/>
<path d="M40.028 244.875C40.028 244.875 44.5846 245.247 43.3791 253.267C42.7544 253.846 42.0173 254.3 41.2106 254.601L38.649 246.208L40.028 244.875Z" fill="#FDA57D"/>
<path d="M25.4415 231.711C25.4415 231.711 23.2729 237.816 22.0905 237.241C22.0905 237.241 33.5031 246.779 43.5754 237.241C42.3632 235.237 40.9072 233.38 39.2385 231.711H25.4415Z" fill="#333333"/>
<path d="M32.756 239.343C37.4382 239.343 41.2336 235.67 41.2336 231.14C41.2336 226.61 37.4382 222.937 32.756 222.937C28.074 222.937 24.2783 226.61 24.2783 231.14C24.2783 235.67 28.074 239.343 32.756 239.343Z" fill="#333333"/>
<path opacity="0.1" d="M39.9396 244.875H25.1565L23.7776 250.595C23.7776 250.595 22.9686 253.244 23.974 254.411C24.9793 255.578 34.4007 258.227 41.3069 254.601C41.9103 253.076 41.9793 251.402 41.5033 249.835C40.7331 247.166 41.3069 249.645 41.3069 249.645L39.9396 244.875Z" fill="black"/>
<path opacity="0.1" d="M40.1357 244.875H25.3527L23.9738 250.595C23.9738 250.595 23.1649 253.244 24.1703 254.411C25.1755 255.578 34.5969 258.227 41.503 254.601C42.1066 253.076 42.1755 251.402 41.6996 249.835C40.9292 247.166 41.503 249.645 41.503 249.645L40.1357 244.875Z" fill="black"/>
<path d="M40.028 244.875H25.245L23.866 250.595C23.866 250.595 23.0572 253.244 24.0624 254.411C25.0677 255.578 34.4892 258.227 41.3953 254.601C41.9987 253.076 42.0677 251.402 41.5918 249.835C40.8215 247.166 41.3953 249.645 41.3953 249.645L40.028 244.875Z" fill="#FDD835"/>
<path opacity="0.1" d="M29.7745 240.126H35.6908V245.056C35.6908 245.722 35.4177 246.36 34.9315 246.83C34.4454 247.301 33.7862 247.564 33.0986 247.564H32.3667C31.6793 247.564 31.0199 247.301 30.5338 246.83C30.0476 246.36 29.7745 245.722 29.7745 245.056V240.126Z" fill="black"/>
<path d="M29.7745 239.914H35.6908V244.844C35.6908 245.509 35.4177 246.148 34.9315 246.617C34.4454 247.088 33.7862 247.352 33.0986 247.352H32.3667C31.6793 247.352 31.0199 247.088 30.5338 246.617C30.0476 246.148 29.7745 245.509 29.7745 244.844V239.914Z" fill="#FDA57D"/>
<path opacity="0.1" d="M29.7863 240.738C31.6936 241.421 33.7911 241.421 35.6987 240.738V240.032H29.7863V240.738Z" fill="black"/>
<path d="M32.756 241.121C37.4382 241.121 41.2336 237.448 41.2336 232.917C41.2336 228.387 37.4382 224.714 32.756 224.714C28.074 224.714 24.2783 228.387 24.2783 232.917C24.2783 237.448 28.074 241.121 32.756 241.121Z" fill="#FDA57D"/>
<path d="M24.6519 229.805H40.8292C40.8292 229.805 39.4349 223.488 33.3106 223.891C27.1863 224.293 24.6519 229.805 24.6519 229.805Z" fill="#333333"/>
<path d="M24.4553 234.002C24.8915 234.002 25.2449 233.362 25.2449 232.572C25.2449 231.78 24.8915 231.14 24.4553 231.14C24.0192 231.14 23.6658 231.78 23.6658 232.572C23.6658 233.362 24.0192 234.002 24.4553 234.002Z" fill="#FDA57D"/>
<path d="M41.014 234.002C41.4501 234.002 41.8037 233.362 41.8037 232.572C41.8037 231.78 41.4501 231.14 41.014 231.14C40.5779 231.14 40.2245 231.78 40.2245 232.572C40.2245 233.362 40.5779 234.002 41.014 234.002Z" fill="#FDA57D"/>
<path opacity="0.1" d="M24.6519 230.015H40.8292C40.8292 230.015 39.4349 223.7 33.3106 224.103C27.1863 224.506 24.6519 230.015 24.6519 230.015Z" fill="black"/>
<g opacity="0.5">
<path opacity="0.5" d="M13.6665 176.14C13.6667 172.848 14.548 169.611 16.2248 166.744C17.9015 163.879 20.3163 161.482 23.2344 159.787C26.1525 158.092 29.4743 157.158 32.8767 157.073C36.2789 156.99 39.6458 157.759 42.6495 159.307C45.653 160.856 48.1913 163.131 50.0169 165.91C51.8426 168.69 52.8935 171.878 53.0674 175.167C53.2413 178.457 52.5322 181.733 51.0092 184.677C49.4862 187.622 47.2012 190.136 44.3767 191.973V192.059C43.7331 192.655 42.9737 193.123 42.1426 193.434L42.1157 193.348C41.195 194.116 37.3048 195.342 32.8405 195.331H32.7444C29.9172 195.331 26.8472 194.851 24.1472 193.434C24.1472 193.434 24.1241 193.386 24.0856 193.288C23.401 192.979 22.7728 192.564 22.2252 192.059L22.1944 191.843C19.5635 190.09 17.4124 187.746 15.9268 185.01C14.4412 182.274 13.6655 179.23 13.6665 176.14Z" fill="url(#paint6_linear)"/>
</g>
<path d="M33.3915 194.641C43.9513 194.641 52.5116 186.359 52.5116 176.14C52.5116 165.923 43.9513 157.64 33.3915 157.64C22.8318 157.64 14.2714 165.923 14.2714 176.14C14.2714 186.359 22.8318 194.641 33.3915 194.641Z" fill="#F5F5F5"/>
<path d="M25.892 183.188C25.892 183.188 21.3354 183.562 22.5411 191.582C23.1657 192.161 23.9027 192.614 24.7096 192.916L27.271 184.523L25.892 183.188Z" fill="#BE7C5E"/>
<path d="M40.6791 183.188C40.6791 183.188 45.2358 183.562 44.03 191.582C43.4054 192.161 42.6684 192.614 41.8616 192.916L39.3002 184.523L40.6791 183.188Z" fill="#BE7C5E"/>
<path d="M26.0925 170.029C26.0925 170.029 25.742 171.016 25.2451 172.16C24.1589 174.661 25.3992 184.262 27.9914 185.284C30.9034 186.431 34.7319 187.166 38.7109 185.764C42.1774 184.545 43.2329 173.617 40.7908 170.953C40.5057 170.64 40.2053 170.33 39.8933 170.029H26.0925Z" fill="#333333"/>
<path d="M33.4067 177.658C38.0889 177.658 41.8845 173.985 41.8845 169.455C41.8845 164.924 38.0889 161.252 33.4067 161.252C28.7247 161.252 24.9291 164.924 24.9291 169.455C24.9291 173.985 28.7247 177.658 33.4067 177.658Z" fill="#333333"/>
<path opacity="0.1" d="M40.5903 183.188H25.8073L24.4285 188.91C24.4285 188.91 23.6195 191.56 24.6248 192.726C25.6302 193.893 35.0514 196.542 41.9577 192.916C42.5662 191.393 42.6406 189.718 42.1696 188.149C41.3992 185.481 41.9731 187.959 41.9731 187.959L40.5903 183.188Z" fill="black"/>
<path opacity="0.1" d="M40.7869 183.188H25.9922L24.6133 188.91C24.6133 188.91 23.8045 191.56 24.8098 192.726C25.8152 193.893 35.2364 196.542 42.1427 192.916C42.7461 191.39 42.815 189.717 42.3391 188.149C41.5687 185.481 42.1427 187.959 42.1427 187.959L40.7869 183.188Z" fill="black"/>
<path d="M40.6791 183.188H25.8921L24.5133 188.91C24.5133 188.91 23.7043 191.56 24.7097 192.726C25.715 193.893 35.1364 196.542 42.0426 192.916C42.646 191.39 42.715 189.717 42.239 188.149C41.4686 185.481 42.0426 187.959 42.0426 187.959L40.6791 183.188Z" fill="#3AD29F"/>
<path opacity="0.1" d="M30.4257 178.44H36.3419V183.374C36.3419 183.705 36.2748 184.03 36.1445 184.335C36.0142 184.639 35.8234 184.916 35.5827 185.149C35.342 185.381 35.0562 185.566 34.7417 185.692C34.4272 185.818 34.0902 185.884 33.7496 185.884H33.0178C32.6774 185.884 32.3404 185.818 32.0259 185.692C31.7114 185.566 31.4256 185.381 31.1849 185.149C30.9442 184.916 30.7532 184.639 30.6229 184.335C30.4926 184.03 30.4257 183.705 30.4257 183.374V178.44Z" fill="black"/>
<path d="M30.4257 178.228H36.3419V183.155C36.3419 183.484 36.2748 183.81 36.1445 184.115C36.0142 184.419 35.8234 184.696 35.5827 184.928C35.342 185.162 35.0562 185.346 34.7417 185.473C34.4272 185.599 34.0902 185.663 33.7496 185.663H33.0178C32.3303 185.663 31.671 185.399 31.1849 184.928C30.6987 184.459 30.4257 183.82 30.4257 183.155V178.228Z" fill="#BE7C5E"/>
<path opacity="0.1" d="M30.4371 179.055C32.3447 179.739 34.442 179.739 36.3496 179.055V178.351H30.4371V179.055Z" fill="black"/>
<path d="M33.4067 179.439C38.0889 179.439 41.8845 175.767 41.8845 171.237C41.8845 166.705 38.0889 163.033 33.4067 163.033C28.7247 163.033 24.9291 166.705 24.9291 171.237C24.9291 175.767 28.7247 179.439 33.4067 179.439Z" fill="#BE7C5E"/>
<path d="M25.3027 168.12H41.4802C41.4802 168.12 40.1012 161.803 33.9884 162.206C27.8758 162.609 25.3027 168.12 25.3027 168.12Z" fill="#333333"/>
<path d="M25.1025 172.317C25.5386 172.317 25.892 171.676 25.892 170.885C25.892 170.095 25.5386 169.455 25.1025 169.455C24.6665 169.455 24.3129 170.095 24.3129 170.885C24.3129 171.676 24.6665 172.317 25.1025 172.317Z" fill="#BE7C5E"/>
<path d="M41.6612 172.317C42.0973 172.317 42.4507 171.676 42.4507 170.885C42.4507 170.095 42.0973 169.455 41.6612 169.455C41.225 169.455 40.8716 170.095 40.8716 170.885C40.8716 171.676 41.225 172.317 41.6612 172.317Z" fill="#BE7C5E"/>
<path opacity="0.1" d="M25.3027 168.333H41.4802C41.4802 168.333 40.1012 162.016 33.9884 162.418C27.8758 162.821 25.3027 168.333 25.3027 168.333Z" fill="black"/>
<g opacity="0.5">
<path opacity="0.5" d="M52.8198 421.872C52.8189 418.579 51.9369 415.343 50.2598 412.477C48.5827 409.612 46.1676 407.215 43.2493 405.521C40.3312 403.827 37.0093 402.892 33.6071 402.809C30.2051 402.725 26.8386 403.495 23.8351 405.045C20.8317 406.593 18.294 408.868 16.4685 411.647C14.6432 414.425 13.5927 417.615 13.4189 420.904C13.2451 424.193 13.9543 427.469 15.4773 430.414C17.0002 433.358 19.2852 435.872 22.1096 437.709V437.794C22.7532 438.391 23.5124 438.859 24.3437 439.17L24.3706 439.084C25.2913 439.852 29.1815 441.078 33.6458 441.067H33.7419C36.5691 441.067 39.6391 440.585 42.3391 439.17C42.3391 439.17 42.3622 439.121 42.4007 439.024C43.0853 438.713 43.7134 438.298 44.2611 437.794L44.2919 437.579C46.9233 435.826 49.0748 433.48 50.5603 430.745C52.0461 428.009 52.8215 424.963 52.8198 421.872Z" fill="url(#paint7_linear)"/>
</g>
<path d="M33.1064 440.377C43.6663 440.377 52.2265 432.094 52.2265 421.876C52.2265 411.659 43.6663 403.375 33.1064 403.375C22.5468 403.375 13.9863 411.659 13.9863 421.876C13.9863 432.094 22.5468 440.377 33.1064 440.377Z" fill="#F5F5F5"/>
<path d="M24.8368 429.11C24.8368 429.11 20.2802 429.484 21.4858 437.503C22.1104 438.083 22.8475 438.537 23.6542 438.838L26.2158 430.445L24.8368 429.11Z" fill="#4D8AF0"/>
<path d="M39.6197 429.11C39.6197 429.11 44.1763 429.484 42.9707 437.503C42.346 438.083 41.609 438.537 40.8021 438.838L38.2407 430.445L39.6197 429.11Z" fill="#4D8AF0"/>
<path d="M32.3477 423.58C37.0297 423.58 40.8253 419.907 40.8253 415.377C40.8253 410.845 37.0297 407.173 32.3477 407.173C27.6655 407.173 23.8699 410.845 23.8699 415.377C23.8699 419.907 27.6655 423.58 32.3477 423.58Z" fill="#333333"/>
<path d="M39.5312 429.11H24.748L23.3693 434.832C23.3693 434.832 22.5603 437.481 23.5656 438.648C24.571 439.814 33.9924 442.464 40.8985 438.838C41.5019 437.313 41.571 435.638 41.0949 434.071C40.3245 431.403 40.8985 433.88 40.8985 433.88L39.5312 429.11Z" fill="#4D8AF0"/>
<path d="M39.7314 429.11H24.9446L23.5656 434.832C23.5656 434.832 22.7568 437.481 23.762 438.648C24.7673 439.814 34.1887 442.464 41.0949 438.838C41.6983 437.313 41.7673 435.638 41.2914 434.071C40.5211 431.403 41.0949 433.88 41.0949 433.88L39.7314 429.11Z" fill="#4D8AF0"/>
<path d="M39.6196 429.11H24.8366L23.4577 434.832C23.4577 434.832 22.6489 437.481 23.6541 438.648C24.6594 439.814 34.0808 442.46 41.0139 438.827C41.6173 437.301 41.6864 435.627 41.2105 434.059C40.4401 431.392 41.0139 433.869 41.0139 433.869L39.6196 429.11Z" fill="#4D8AF0"/>
<path opacity="0.1" d="M29.3702 424.362H35.2826V429.293C35.2826 429.622 35.2155 429.949 35.0852 430.253C34.9549 430.557 34.7641 430.833 34.5234 431.067C34.2826 431.3 33.9969 431.485 33.6824 431.61C33.3679 431.736 33.0308 431.801 32.6904 431.801H31.9585C31.6181 431.801 31.281 431.736 30.9665 431.61C30.6521 431.485 30.3663 431.3 30.1256 431.067C29.8848 430.833 29.6938 430.557 29.5636 430.253C29.4333 429.949 29.3663 429.622 29.3663 429.293V424.362H29.3702Z" fill="black"/>
<path d="M29.3702 424.149H35.2826V429.081C35.2826 429.41 35.2155 429.736 35.0852 430.04C34.9549 430.344 34.7641 430.621 34.5234 430.854C34.2826 431.087 33.9969 431.272 33.6824 431.397C33.3679 431.524 33.0308 431.589 32.6904 431.589H31.9585C31.6181 431.589 31.281 431.524 30.9665 431.397C30.6521 431.272 30.3663 431.087 30.1256 430.854C29.8848 430.621 29.6938 430.344 29.5636 430.04C29.4333 429.736 29.3663 429.41 29.3663 429.081V424.149H29.3702Z" fill="#FDA57D"/>
<path opacity="0.1" d="M29.3816 424.973C31.2891 425.658 33.3866 425.658 35.294 424.973V424.291H29.3816V424.973Z" fill="black"/>
<path d="M32.3477 425.358C37.0297 425.358 40.8253 421.684 40.8253 417.154C40.8253 412.624 37.0297 408.951 32.3477 408.951C27.6655 408.951 23.8699 412.624 23.8699 417.154C23.8699 421.684 27.6655 425.358 32.3477 425.358Z" fill="#FDA57D"/>
<path opacity="0.1" d="M24.2434 414.25H40.4209C40.4209 414.25 39.0304 407.937 32.9253 408.34C26.8203 408.743 24.2434 414.25 24.2434 414.25Z" fill="black"/>
<path d="M24.2434 414.038H40.4209C40.4209 414.038 39.0419 407.721 32.9291 408.123C26.8164 408.526 24.2434 414.038 24.2434 414.038Z" fill="#333333"/>
<path d="M24.0471 418.239C24.4831 418.239 24.8367 417.597 24.8367 416.807C24.8367 416.017 24.4831 415.377 24.0471 415.377C23.611 415.377 23.2576 416.017 23.2576 416.807C23.2576 417.597 23.611 418.239 24.0471 418.239Z" fill="#FDA57D"/>
<path d="M40.6057 418.239C41.0418 418.239 41.3954 417.597 41.3954 416.807C41.3954 416.017 41.0418 415.377 40.6057 415.377C40.1697 415.377 39.816 416.017 39.816 416.807C39.816 417.597 40.1697 418.239 40.6057 418.239Z" fill="#FDA57D"/>
<g opacity="0.5">
<path opacity="0.5" d="M52.8198 361.305C52.8195 358.012 51.9381 354.775 50.2616 351.909C48.5848 349.044 46.1699 346.647 43.2519 344.951C40.3338 343.257 37.012 342.322 33.6096 342.237C30.2074 342.154 26.8406 342.924 23.8369 344.472C20.8331 346.02 18.2951 348.295 16.4694 351.074C14.6438 353.853 13.5929 357.043 13.4189 360.331C13.245 363.62 13.9541 366.897 15.4771 369.841C17.0001 372.787 19.2851 375.301 22.1097 377.138V377.223C22.7532 377.82 23.5125 378.288 24.3437 378.599L24.3707 378.513C25.2913 379.281 29.1816 380.507 33.6458 380.496H33.742C36.5691 380.496 39.6391 380.015 42.3391 378.599C42.3391 378.599 42.3623 378.55 42.4007 378.453C43.0853 378.143 43.7134 377.728 44.2611 377.223L44.2919 377.007C46.9229 375.255 49.0739 372.911 50.5595 370.175C52.0451 367.439 52.8209 364.395 52.8198 361.305Z" fill="url(#paint8_linear)"/>
</g>
<path d="M32.9023 379.117C43.462 379.117 52.0224 370.833 52.0224 360.616C52.0224 350.398 43.462 342.115 32.9023 342.115C22.3425 342.115 13.7822 350.398 13.7822 360.616C13.7822 370.833 22.3425 379.117 32.9023 379.117Z" fill="#F5F5F5"/>
<path d="M25.2449 367.906C25.2449 367.906 20.6883 368.278 21.8938 376.299C22.5184 376.878 23.2556 377.331 24.0625 377.634L26.6239 369.24L25.2449 367.906Z" fill="#BE7C5E"/>
<path d="M40.028 367.906C40.028 367.906 44.5846 368.278 43.3791 376.299C42.7544 376.878 42.0173 377.331 41.2106 377.634L38.649 369.24L40.028 367.906Z" fill="#BE7C5E"/>
<path d="M25.4415 354.746C25.4415 354.746 23.2729 365.554 22.0905 364.966C22.0905 364.966 33.5031 374.502 43.5754 364.966C43.5754 364.966 41.7999 357.227 39.2385 354.746H25.4415Z" fill="#333333"/>
<path d="M32.756 362.374C37.4382 362.374 41.2336 358.702 41.2336 354.172C41.2336 349.641 37.4382 345.969 32.756 345.969C28.074 345.969 24.2783 349.641 24.2783 354.172C24.2783 358.702 28.074 362.374 32.756 362.374Z" fill="#333333"/>
<path opacity="0.1" d="M39.9396 367.906H25.1565L23.7776 373.627C23.7776 373.627 22.9686 376.277 23.974 377.443C24.9793 378.61 34.4007 381.26 41.3069 377.634C41.9103 376.107 41.9793 374.433 41.5033 372.866C40.7331 370.198 41.3069 372.676 41.3069 372.676L39.9396 367.906Z" fill="black"/>
<path opacity="0.1" d="M40.1357 367.906H25.3527L23.9738 373.627C23.9738 373.627 23.1649 376.277 24.1703 377.443C25.1755 378.61 34.5969 381.26 41.503 377.634C42.1066 376.107 42.1755 374.433 41.6996 372.866C40.9292 370.198 41.503 372.676 41.503 372.676L40.1357 367.906Z" fill="black"/>
<path d="M40.028 367.906H25.245L23.866 373.627C23.866 373.627 23.0572 376.277 24.0624 377.443C25.0677 378.61 34.4892 381.26 41.3953 377.634C41.9987 376.107 42.0677 374.433 41.5918 372.866C40.8215 370.198 41.3953 372.676 41.3953 372.676L40.028 367.906Z" fill="#F55F44"/>
<path opacity="0.1" d="M29.7745 363.169H35.6908V368.1C35.6908 368.429 35.6238 368.755 35.4935 369.06C35.3633 369.364 35.1723 369.64 34.9315 369.873C34.6908 370.107 34.405 370.291 34.0906 370.416C33.7761 370.543 33.439 370.608 33.0986 370.608H32.3667C32.0263 370.608 31.6892 370.543 31.3747 370.416C31.0603 370.291 30.7745 370.107 30.5338 369.873C30.293 369.64 30.1022 369.364 29.972 369.06C29.8417 368.755 29.7745 368.429 29.7745 368.1V363.169Z" fill="black"/>
<path d="M29.7745 362.949H35.6908V367.879C35.6908 368.544 35.4177 369.183 34.9315 369.653C34.4454 370.123 33.7862 370.387 33.0986 370.387H32.3667C31.6793 370.387 31.0199 370.123 30.5338 369.653C30.0476 369.183 29.7745 368.544 29.7745 367.879V362.949Z" fill="#BE7C5E"/>
<path opacity="0.1" d="M29.7863 363.773C31.6936 364.456 33.7911 364.456 35.6987 363.773V363.069H29.7863V363.773Z" fill="black"/>
<path d="M32.756 364.156C37.4382 364.156 41.2336 360.484 41.2336 355.953C41.2336 351.423 37.4382 347.751 32.756 347.751C28.074 347.751 24.2783 351.423 24.2783 355.953C24.2783 360.484 28.074 364.156 32.756 364.156Z" fill="#BE7C5E"/>
<path d="M24.6519 352.838H40.8292C40.8292 352.838 39.4349 346.524 33.3106 346.926C27.1863 347.329 24.6519 352.838 24.6519 352.838Z" fill="#333333"/>
<path d="M24.4553 357.034C24.8915 357.034 25.2449 356.393 25.2449 355.603C25.2449 354.813 24.8915 354.172 24.4553 354.172C24.0192 354.172 23.6658 354.813 23.6658 355.603C23.6658 356.393 24.0192 357.034 24.4553 357.034Z" fill="#BE7C5E"/>
<path d="M41.014 357.034C41.4501 357.034 41.8037 356.393 41.8037 355.603C41.8037 354.813 41.4501 354.172 41.014 354.172C40.5779 354.172 40.2245 354.813 40.2245 355.603C40.2245 356.393 40.5779 357.034 41.014 357.034Z" fill="#BE7C5E"/>
<path opacity="0.1" d="M24.6519 353.05H40.8292C40.8292 353.05 39.4349 346.733 33.3106 347.142C27.1863 347.552 24.6519 353.05 24.6519 353.05Z" fill="black"/>
<g opacity="0.5">
<path opacity="0.5" d="M52.8198 299.471C52.8195 296.177 51.9381 292.94 50.2616 290.075C48.5848 287.209 46.1699 284.812 43.2519 283.118C40.3338 281.422 37.012 280.487 33.6096 280.404C30.2074 280.319 26.8406 281.089 23.8369 282.637C20.8331 284.186 18.2951 286.46 16.4694 289.239C14.6438 292.019 13.5929 295.208 13.4189 298.498C13.245 301.786 13.9541 305.062 15.4771 308.008C17.0001 310.952 19.2851 313.466 22.1097 315.303V315.389C22.7532 315.985 23.5125 316.453 24.3437 316.764L24.3707 316.678C25.2913 317.446 29.1816 318.672 33.6458 318.661H33.742C36.5691 318.661 39.6391 318.18 42.3391 316.764C42.3391 316.764 42.3623 316.715 42.4007 316.618C43.0853 316.308 43.7134 315.893 44.2611 315.389L44.2919 315.172C46.9229 313.421 49.0739 311.076 50.5595 308.34C52.0451 305.605 52.8209 302.561 52.8198 299.471Z" fill="url(#paint9_linear)"/>
</g>
<path d="M33.1064 317.972C43.6663 317.972 52.2265 309.688 52.2265 299.471C52.2265 289.253 43.6663 280.971 33.1064 280.971C22.5468 280.971 13.9863 289.253 13.9863 299.471C13.9863 309.688 22.5468 317.972 33.1064 317.972Z" fill="#F5F5F5"/>
<path d="M24.8368 306.705C24.8368 306.705 20.2802 307.077 21.4858 315.097C22.1104 315.676 22.8475 316.131 23.6542 316.432L26.2158 308.038L24.8368 306.705Z" fill="#4D8AF0"/>
<path d="M39.6197 306.705C39.6197 306.705 44.1763 307.077 42.9707 315.097C42.346 315.676 41.609 316.131 40.8021 316.432L38.2407 308.038L39.6197 306.705Z" fill="#4D8AF0"/>
<path d="M32.3477 301.178C37.0297 301.178 40.8253 297.505 40.8253 292.975C40.8253 288.445 37.0297 284.772 32.3477 284.772C27.6655 284.772 23.8699 288.445 23.8699 292.975C23.8699 297.505 27.6655 301.178 32.3477 301.178Z" fill="#333333"/>
<path d="M39.5312 306.705H24.748L23.3693 312.425C23.3693 312.425 22.5603 315.075 23.5656 316.242C24.571 317.408 33.9924 320.058 40.8985 316.432C41.5019 314.907 41.571 313.232 41.0949 311.666C40.3245 308.997 40.8985 311.476 40.8985 311.476L39.5312 306.705Z" fill="#4D8AF0"/>
<path d="M39.7314 306.705H24.9446L23.5656 312.425C23.5656 312.425 22.7568 315.075 23.762 316.242C24.7673 317.408 34.1887 320.058 41.0949 316.432C41.6983 314.907 41.7673 313.232 41.2914 311.666C40.5211 308.997 41.0949 311.476 41.0949 311.476L39.7314 306.705Z" fill="#4D8AF0"/>
<path d="M39.6196 306.705H24.8366L23.4577 312.425C23.4577 312.425 22.6489 315.075 23.6541 316.242C24.6594 317.408 34.0808 320.058 40.987 316.432C41.5903 314.907 41.6594 313.232 41.1835 311.666C40.4131 308.997 40.987 311.476 40.987 311.476L39.6196 306.705Z" fill="#4D8AF0"/>
<path opacity="0.1" d="M29.3702 301.96H35.2827V306.891C35.2827 307.22 35.2157 307.547 35.0854 307.851C34.9551 308.155 34.7642 308.431 34.5234 308.665C34.2827 308.898 33.9969 309.083 33.6824 309.208C33.368 309.334 33.0309 309.399 32.6905 309.399H31.9586C31.2717 309.398 30.6134 309.134 30.1281 308.663C29.6428 308.193 29.3702 307.555 29.3702 306.891V301.96Z" fill="black"/>
<path d="M29.3702 301.747H35.2826V306.679C35.2826 307.008 35.2155 307.334 35.0852 307.639C34.9549 307.943 34.7641 308.219 34.5234 308.452C34.2826 308.686 33.9969 308.87 33.6824 308.997C33.3679 309.122 33.0308 309.187 32.6904 309.187H31.9585C31.6181 309.187 31.281 309.122 30.9665 308.997C30.6521 308.87 30.3663 308.686 30.1256 308.452C29.8848 308.219 29.6938 307.943 29.5636 307.639C29.4333 307.334 29.3663 307.008 29.3663 306.679V301.747H29.3702Z" fill="#BE7C5E"/>
<path opacity="0.1" d="M29.3816 302.571C31.2891 303.256 33.3866 303.256 35.294 302.571V301.867H29.3816V302.571Z" fill="black"/>
<path d="M32.3477 302.956C37.0297 302.956 40.8253 299.282 40.8253 294.752C40.8253 290.222 37.0297 286.549 32.3477 286.549C27.6655 286.549 23.8699 290.222 23.8699 294.752C23.8699 299.282 27.6655 302.956 32.3477 302.956Z" fill="#BE7C5E"/>
<path opacity="0.1" d="M24.2434 291.849H40.4209C40.4209 291.849 39.0304 285.535 32.9253 285.938C26.8203 286.341 24.2434 291.849 24.2434 291.849Z" fill="black"/>
<path d="M24.2434 291.636H40.4209C40.4209 291.636 39.0419 285.319 32.9291 285.721C26.8164 286.124 24.2434 291.636 24.2434 291.636Z" fill="#333333"/>
<path d="M24.0471 295.833C24.4831 295.833 24.8367 295.193 24.8367 294.402C24.8367 293.612 24.4831 292.971 24.0471 292.971C23.611 292.971 23.2576 293.612 23.2576 294.402C23.2576 295.193 23.611 295.833 24.0471 295.833Z" fill="#BE7C5E"/>
<path d="M40.6057 295.833C41.0418 295.833 41.3954 295.193 41.3954 294.402C41.3954 293.612 41.0418 292.971 40.6057 292.971C40.1697 292.971 39.816 293.612 39.816 294.402C39.816 295.193 40.1697 295.833 40.6057 295.833Z" fill="#BE7C5E"/>
<path d="M25.1448 287.605C25.3963 286.85 25.8308 286.167 26.4121 285.61C28.153 283.944 31.0072 283.594 32.4708 281.697C32.5488 281.832 32.5971 281.98 32.6128 282.133C32.6284 282.287 32.611 282.441 32.5618 282.588C32.5126 282.734 32.4326 282.87 32.3268 282.986C32.2211 283.101 32.0917 283.194 31.9471 283.258C33.349 283.258 34.9745 283.131 35.768 282.014C35.9638 282.455 36.0261 282.941 35.9476 283.415C35.8694 283.89 35.6533 284.333 35.3251 284.694C36.5691 284.749 37.8942 285.566 37.975 286.766C37.9735 287.168 37.8669 287.564 37.6647 287.917C37.4628 288.27 37.172 288.567 36.8196 288.782C36.1134 289.206 35.3283 289.492 34.5085 289.624C32.155 290.12 23.6003 292.24 25.1448 287.605Z" fill="#333333"/>
<g opacity="0.5">
<path opacity="0.5" d="M318.995 170.294H92.512V182.104H318.995V170.294Z" fill="url(#paint10_linear)"/>
</g>
<path d="M93.5465 171.249H318.268V180.854H93.5465V171.249Z" fill="#F5F5F5" stroke="black"/>
<path d="M252.475 171.18H93.4596V180.923H252.475V171.18Z" fill="#3AD29F"/>
<g opacity="0.5">
<path opacity="0.5" d="M318.995 234.226H92.512V246.037H318.995V234.226Z" fill="url(#paint11_linear)"/>
</g>
<path d="M318.355 235.113H93.4596V244.855H318.355V235.113Z" fill="#F5F5F5"/>
<path d="M93.5465 235.183H313.843V244.786H93.5465V235.183Z" fill="#FF6363" stroke="black"/>
<g opacity="0.5">
<path opacity="0.5" d="M318.995 293.623H92.512V305.433H318.995V293.623Z" fill="url(#paint12_linear)"/>
</g>
<path d="M93.5465 294.579H318.268V304.183H93.5465V294.579Z" fill="#F5F5F5" stroke="black"/>
<path d="M127.944 294.509H93.4596V304.253H127.944V294.509Z" fill="#F55F44"/>
<g opacity="0.5">
<path opacity="0.5" d="M318.995 355.394H92.512V367.206H318.995V355.394Z" fill="url(#paint13_linear)"/>
</g>
<path d="M318.355 356.282H93.4596V366.024H318.355V356.282Z" fill="#F5F5F5"/>
<path d="M297.54 356.282H93.4596V366.024H297.54V356.282Z" fill="#FF6363"/>
<g opacity="0.5">
<path opacity="0.5" d="M318.995 416.025H92.512V427.835H318.995V416.025Z" fill="url(#paint14_linear)"/>
</g>
<path d="M93.5465 416.981H318.268V426.585H93.5465V416.981Z" fill="#F5F5F5" stroke="black"/>
<path d="M163.557 416.911H93.4596V426.655H163.557V416.911Z" fill="#3AD29F"/>
<path d="M153.173 118.948C152.92 119.113 152.702 119.313 152.526 119.538C152.123 120.177 152.697 120.941 153.311 121.449C153.925 121.957 154.666 122.503 154.666 123.227C154.666 123.809 154.139 124.309 153.549 124.618C153.234 124.785 152.836 124.996 152.902 125.31C152.925 125.39 152.965 125.465 153.022 125.532C153.527 126.181 154.424 126.56 155.33 126.704C156.238 126.847 157.176 126.785 158.099 126.724C158.237 126.728 158.372 126.687 158.479 126.614C158.545 126.537 158.581 126.446 158.579 126.353C158.625 125.951 158.595 125.528 158.806 125.167C159.099 124.674 159.774 124.422 160.161 123.979C160.703 123.374 160.628 122.532 160.423 121.798C159.971 120.196 158.966 118.369 157.458 117.259C155.711 115.984 154.341 118.027 153.173 118.948Z" fill="#3F3D56"/>
<path d="M142.259 97.0351C142.398 98.5474 143.094 100.113 144.557 101.005C146.019 101.897 148.347 101.88 149.465 100.682C149.841 100.232 150.116 99.7293 150.281 99.1974C151.222 96.706 151.89 93.9789 150.858 91.5114C148.531 91.3848 145.832 90.4677 144.085 92.0787C142.673 93.3909 142.095 95.2853 142.259 97.0351Z" fill="#3F3D56"/>
<path d="M153.031 76.2445C152.721 78.4434 152.196 80.633 152.25 82.8471C152.269 83.7018 152.378 84.5488 152.38 85.4073C152.384 87.6363 151.683 89.8263 150.349 91.7547C150.208 91.9815 150.02 92.1851 149.792 92.356C149.258 92.719 148.451 92.6887 147.851 92.4109C147.265 92.1052 146.788 91.6719 146.472 91.1573C144.79 88.7446 144.743 85.8119 144.077 83.0759C143.565 80.9828 142.671 78.9539 142.349 76.8362C142.139 75.473 142.17 74.0832 141.836 72.737C141.735 72.3305 141.45 71.7197 141.262 71.1203C141.092 70.5853 140.996 70.0596 141.172 69.6984C141.532 68.9592 142.708 69.2465 143.473 69.2919C146.169 69.4593 148.875 69.4536 151.57 69.2748C151.836 69.2579 152.138 69.2485 152.326 69.4072C152.408 69.4875 152.469 69.5808 152.507 69.6815C152.721 70.1729 152.885 70.6791 152.996 71.1941C153.37 72.841 153.266 74.5673 153.031 76.2445Z" fill="#FABDBD"/>
<g opacity="0.1">
<path opacity="0.1" d="M151.992 69.274C151.853 69.2617 151.712 69.2617 151.575 69.274C150.283 69.361 148.989 69.4045 147.698 69.4101C149.129 69.4127 150.561 69.3673 151.992 69.274Z" fill="black"/>
<path opacity="0.1" d="M148.307 92.4109C147.721 92.1053 147.244 91.672 146.927 91.1573C145.245 88.7447 145.199 85.8119 144.532 83.076C144.021 80.9829 143.127 78.9539 142.805 76.8362C142.595 75.4729 142.626 74.0832 142.292 72.737C142.191 72.3305 141.906 71.7197 141.718 71.1203C141.548 70.5853 141.452 70.0596 141.629 69.6984C141.702 69.5504 141.829 69.4244 141.989 69.3368C142.151 69.2492 142.339 69.2039 142.532 69.2068C141.96 69.1747 141.403 69.2314 141.177 69.6984C141.001 70.0596 141.095 70.5853 141.268 71.1203C141.455 71.7197 141.739 72.3305 141.842 72.737C142.176 74.0832 142.142 75.4729 142.353 76.8362C142.676 78.9559 143.57 80.9847 144.08 83.076C144.746 85.8119 144.793 88.7484 146.475 91.1573C146.792 91.672 147.268 92.1053 147.856 92.4109C148.216 92.5779 148.629 92.6479 149.039 92.6113C148.782 92.5831 148.535 92.5152 148.307 92.4109Z" fill="black"/>
</g>
<path d="M161.568 87.8409C160.213 90.1098 160.439 93.3242 160.439 93.3242C160.665 100.888 157.052 116.77 157.052 116.77H153.89C153.89 116.77 153.439 99.1863 153.89 97.6726C154.342 96.1603 153.666 90.8661 152.987 83.4919C152.485 78.0086 153.855 73.0396 154.591 70.8594C154.843 70.1031 155.019 69.689 155.019 69.689C155.019 69.689 160.213 63.2602 163.147 66.2855C163.825 66.9889 164.184 68.4088 164.309 70.2014C164.711 76.1159 162.606 86.0994 161.568 87.8409Z" fill="#FABDBD"/>
<path opacity="0.1" d="M164.309 70.2014C164.184 68.4088 163.831 66.987 163.147 66.2854C162.493 65.6123 161.726 65.4082 160.931 65.4971C161.547 65.5826 162.098 65.8654 162.47 66.2854C163.147 66.9888 163.507 68.4088 163.631 70.2014C164.032 76.1159 161.929 86.0994 160.889 87.8409C159.536 90.1098 159.76 93.3242 159.76 93.3242C159.987 100.888 156.374 116.771 156.374 116.771H157.052C157.052 116.771 160.665 100.888 160.439 93.3242C160.439 93.3242 160.213 90.1098 161.568 87.8409C162.606 86.0994 164.711 76.1159 164.309 70.2014Z" fill="black"/>
<path d="M159.089 20.7736C160.348 19.1967 160.021 16.9919 158.734 15.4225C157.447 13.8531 155.379 12.8661 153.245 12.229C150.368 11.3706 147.197 11.0775 144.24 11.7222C141.888 12.2347 139.775 13.3068 137.557 14.1349C133.635 15.6006 129.37 16.3113 125.076 16.2148C120.31 16.1033 115.088 15.0804 111.089 17.2623C103.769 21.2501 107.025 32.1033 100.1 36.5487C98.2329 37.7474 95.8825 38.2711 93.8054 39.1958C91.7282 40.1204 89.7593 41.7295 89.809 43.6997C89.8316 44.6451 90.3284 45.547 90.9379 46.3468C93.5344 49.7938 98.3888 51.9266 103.25 51.8869C108.111 51.8473 112.855 49.6822 115.657 46.3507C116.359 45.5167 116.977 44.5883 117.996 44.0324C120.028 42.9169 122.706 43.6978 125.13 43.8641C130.529 44.2328 135.929 40.8389 137.004 36.3861C137.457 34.4857 137.377 32.2149 139.203 31.0218C140.678 30.0594 142.753 30.2655 144.623 30.1009C148.041 29.8041 150.738 28.021 152.594 25.6915C153.446 24.6233 153.546 23.3469 154.706 22.5055C155.956 21.5809 157.892 22.2636 159.089 20.7736Z" fill="#3F3D56"/>
<g opacity="0.1">
<path opacity="0.1" d="M120.561 16.5798C122.541 16.6252 124.521 16.4986 126.469 16.2016C125.932 16.2148 125.39 16.2148 124.851 16.2016C121.109 16.1147 117.088 15.468 113.598 16.247C115.901 16.2659 118.283 16.5269 120.561 16.5798Z" fill="black"/>
<path opacity="0.1" d="M113.476 44.4088C112.457 44.9647 111.839 45.8931 111.137 46.7269C108.978 49.264 105.824 51.085 102.225 51.8719C102.489 51.8813 102.753 51.887 103.02 51.8851C107.885 51.8454 112.624 49.6803 115.426 46.3487C116.128 45.5149 116.747 44.5866 117.765 44.0307L117.942 43.9398C116.347 43.7564 114.783 43.6922 113.476 44.4088Z" fill="black"/>
<path opacity="0.1" d="M158.506 15.4168C157.221 13.8551 155.151 12.8604 153.017 12.2233C150.14 11.3649 146.967 11.0717 144.012 11.7165C143.944 11.7297 143.88 11.7468 143.814 11.762C145.492 11.8403 147.147 12.1232 148.728 12.6014C150.86 13.2387 152.932 14.2332 154.215 15.795C155.501 17.3569 155.829 19.5767 154.57 21.1461C153.373 22.6417 151.439 21.9592 150.171 22.8799C149.011 23.7213 148.912 24.9976 148.061 26.0659C146.465 28.0646 144.244 29.6585 141.478 30.2635C142.428 30.169 143.43 30.1804 144.379 30.0972C147.797 29.8003 150.495 28.0173 152.351 25.6878C153.201 24.6194 153.302 23.3432 154.462 22.5017C155.729 21.581 157.663 22.2636 158.859 20.7679C160.122 19.191 159.795 16.9787 158.506 15.4168Z" fill="black"/>
<path opacity="0.1" d="M140.092 30.4754C138.232 30.638 136.157 30.4339 134.672 31.3963C132.846 32.5893 132.934 34.8602 132.473 36.7605C131.681 40.0827 128.461 42.8224 124.638 43.8416L124.907 43.8624C130.305 44.2311 135.707 40.837 136.782 36.3842C137.232 34.484 137.154 32.2131 138.98 31.0199C139.399 30.7572 139.876 30.5647 140.382 30.4527C140.281 30.4545 140.187 30.4679 140.092 30.4754Z" fill="black"/>
</g>
<path d="M194.645 14.0045C194.645 14.0045 189.225 23.0803 187.42 26.4839C185.613 29.8874 169.13 34.9925 166.873 35.1817C166.267 35.2511 165.704 35.4787 165.26 35.832C163.985 36.7775 163.26 38.396 163.26 38.396C163.26 38.396 164.164 43.5012 163.036 52.0098C163.013 52.1744 162.992 52.339 162.975 52.4977C161.99 60.5942 164.051 62.5039 164.051 62.5039C164.051 62.5039 142.149 69.5 142.828 60.424C143.04 57.567 143.009 55.4796 142.798 53.7343C142.568 51.9477 142.134 50.1836 141.502 48.4665C140.967 46.899 140.328 45.1803 139.665 42.8394C139.347 41.6715 138.928 40.5245 138.411 39.4076C138.396 39.3736 138.38 39.3395 138.366 39.3073C137.237 36.9609 136.108 36.2027 135.461 35.9569C134.853 35.7348 134.272 35.4611 133.728 35.14C131.642 33.8789 127.165 31.0521 123.177 27.7129C117.759 23.1749 112.34 12.3974 112.34 12.3974C112.34 12.3974 110.759 6.15762 114.372 1.05248C117.984 -4.05279 116.404 11.0737 116.404 11.0737C116.404 11.0737 122.952 18.4479 124.532 21.8515C125.345 23.6022 126.636 24.4985 127.693 24.9636C129.439 25.7246 131.11 26.5997 132.692 27.5805C133.761 28.257 134.884 28.8711 136.055 29.4184C138.578 30.5529 141.601 31.833 144.122 32.1696C144.515 32.2239 144.911 32.2524 145.311 32.2546C145.499 32.2598 145.687 32.2282 145.861 32.1627C146.033 32.097 146.185 31.9991 146.305 31.8765C146.981 31.209 146.966 29.772 146.811 28.5903C146.727 27.978 146.604 27.3702 146.44 26.7694C146.44 26.7694 153.777 22.8933 153.553 27.6203C153.518 28.1426 153.575 28.6664 153.723 29.1745C153.843 29.6409 154.109 30.0722 154.494 30.4244C154.878 30.7765 155.367 31.0368 155.911 31.1788C156.793 31.3951 157.725 31.4206 158.621 31.2525C158.899 31.2125 159.171 31.1353 159.419 31.0238C160.098 30.6456 166.871 28.9439 168.902 28.7547C170.936 28.5657 181.095 24.4059 181.095 24.4059L192.159 11.5483C192.159 11.5483 191.933 3.98508 196.449 0.959717C200.964 -2.06551 194.645 14.0045 194.645 14.0045Z" fill="#FABDBD"/>
<g opacity="0.1">
<path opacity="0.1" d="M162.975 51.3631C162.777 52.8826 162.69 54.4106 162.714 55.9389C162.737 54.9405 162.817 53.8004 162.975 52.4976C162.992 52.3387 163.013 52.1743 163.036 52.0097C163.431 49.0978 163.618 46.1689 163.599 43.2383C163.564 45.7903 163.377 48.3392 163.036 50.8753C163.022 51.0398 162.992 51.2043 162.975 51.3631Z" fill="black"/>
<path opacity="0.1" d="M146.675 26.6484C146.524 26.7221 146.449 26.7674 146.449 26.7674C146.668 27.5763 146.813 28.398 146.882 29.2255C146.928 28.3626 146.858 27.4983 146.675 26.6484Z" fill="black"/>
<path opacity="0.1" d="M116.51 10.047C116.621 8.72344 116.785 6.35051 116.754 4.24033C116.716 7.0614 116.415 9.93928 116.415 9.93928L116.51 10.047Z" fill="black"/>
<path opacity="0.1" d="M142.843 60.2028C142.843 60.2765 142.843 60.3503 142.828 60.424C142.149 69.4998 164.052 62.5039 164.052 62.5039C163.794 62.2142 163.601 61.889 163.479 61.5433C160.181 62.5265 143.604 67.0985 142.843 60.2028Z" fill="black"/>
<path opacity="0.1" d="M194.645 12.8699C194.645 12.8699 189.225 21.9458 187.42 25.3494C185.613 28.7529 169.13 33.858 166.873 34.0472C166.267 34.1166 165.704 34.3442 165.26 34.6975C163.985 35.643 163.26 37.2615 163.26 37.2615C163.26 37.2615 163.316 37.5697 163.38 38.1559C163.634 37.67 164.283 36.5544 165.26 35.832C165.704 35.4787 166.267 35.2511 166.873 35.1816C169.13 34.9925 185.613 29.8873 187.42 26.4838C189.225 23.0803 194.645 14.0045 194.645 14.0045C194.645 14.0045 198.463 4.29513 198.042 1.39087C197.694 5.11199 194.645 12.8699 194.645 12.8699Z" fill="black"/>
<path opacity="0.1" d="M142.798 52.5997C142.569 50.8131 142.134 49.0491 141.502 47.3319C140.967 45.7645 140.328 44.0458 139.666 41.7049C139.347 40.537 138.928 39.39 138.412 38.2731C138.396 38.2391 138.38 38.205 138.366 38.1728C137.238 35.8264 136.109 35.0682 135.462 34.8223C134.853 34.6001 134.272 34.3266 133.728 34.0055C131.642 32.7444 127.165 29.9176 123.178 26.5784C117.759 22.0404 112.34 11.2627 112.34 11.2627C112.14 10.3529 112.028 9.43096 112.006 8.50592C111.951 9.80939 112.063 11.114 112.34 12.3973C112.34 12.3973 117.759 23.1749 123.178 27.7128C127.165 31.0521 131.642 33.8788 133.728 35.1399C134.275 35.4617 134.862 35.7354 135.476 35.9568C136.119 36.2026 137.246 36.9609 138.38 39.3073C138.392 39.3395 138.408 39.3735 138.426 39.4075C138.94 40.5246 139.358 41.6716 139.673 42.8394C140.335 45.1802 140.974 46.8989 141.509 48.4664C142.141 50.1836 142.576 51.9477 142.805 53.7343C142.899 54.5246 142.957 55.385 142.972 56.353C143 55.1003 142.941 53.8471 142.798 52.5997Z" fill="black"/>
</g>
<path d="M165.159 44.386C164.815 44.8634 164.512 45.3614 164.257 45.876C163.916 46.6702 163.914 47.5343 163.85 48.3758C163.759 49.5566 163.545 50.7284 163.21 51.8775C163.154 52.0891 163.079 52.2966 162.983 52.4977C162.916 52.6331 162.827 52.7603 162.719 52.8758C162.599 52.9991 162.456 53.1069 162.298 53.1954C162.056 53.3308 161.801 53.4478 161.533 53.5452C158.39 54.7742 154.963 55.8595 151.533 55.4361C150.084 55.2238 148.681 54.8285 147.373 54.2637C146.131 53.7589 144.725 53.1595 143.44 53.5792C143.242 53.6632 143.03 53.7188 142.809 53.7438C142.767 53.7443 142.725 53.7411 142.683 53.7343C142.259 53.6663 142.259 52.4674 142.162 52.1138C141.791 50.7563 141.735 49.6558 141.513 48.4759C141.396 47.8235 141.214 47.1803 140.968 46.553C140.066 44.2651 139.793 41.8259 139.793 39.4284C139.793 39.3092 138.777 39.4284 138.438 39.417C138.352 39.417 138.305 39.4058 138.325 39.3812C138.345 39.3576 138.368 39.336 138.392 39.3169C138.511 39.2365 138.65 39.179 138.798 39.1486L139.064 39.0823C140.459 38.7515 141.998 38.6135 143.042 37.7909C144.125 36.942 144.397 35.5862 144.35 34.3459C144.336 33.9469 144.103 32.9788 144.141 32.1752C144.534 32.2296 144.932 32.2581 145.331 32.2603C145.52 32.2653 145.708 32.2339 145.88 32.1682C146.053 32.1027 146.206 32.0048 146.326 31.8821C146.701 32.4929 147.027 33.1246 147.3 33.7729C147.684 34.5634 147.978 35.3952 148.54 36.11C149.443 37.2747 151.109 38.0405 152.766 37.9233C154.424 37.8061 155.965 36.7397 156.261 35.3706C156.522 34.1701 155.918 32.4418 155.932 31.1939C156.812 31.4102 157.745 31.4356 158.642 31.2676C158.679 31.3447 158.712 31.4236 158.738 31.504C159.246 32.9637 159.924 34.6389 161.629 35.157C162.73 35.4898 164.032 35.2402 165.052 35.7242C165.13 35.762 165.205 35.8036 165.278 35.8491C165.513 35.9954 165.714 36.1753 165.876 36.3804C166.293 36.9587 166.542 37.6119 166.6 38.2863C166.861 40.3945 166.36 42.5197 165.159 44.386Z" fill="#6C63FF"/>
<path opacity="0.1" d="M153.723 29.1725C152.598 29.5361 151.385 29.6726 150.184 29.5713C148.983 29.4697 147.827 29.133 146.811 28.5883C146.727 27.9761 146.604 27.3682 146.44 26.7674C146.44 26.7674 153.777 22.8913 153.553 27.6183C153.518 28.1407 153.575 28.6644 153.723 29.1725Z" fill="black"/>
<path d="M150.954 29.2255C155.193 29.2255 158.63 26.3473 158.63 22.7967C158.63 19.2463 155.193 16.368 150.954 16.368C146.713 16.368 143.276 19.2463 143.276 22.7967C143.276 26.3473 146.713 29.2255 150.954 29.2255Z" fill="#FABDBD"/>
<path d="M137.521 38.7741C137.521 38.7741 152.424 30.8326 198.708 39.3414C244.994 47.8501 271.862 41.0431 271.862 41.0431V49.93C271.862 49.93 219.932 54.657 200.063 49.93C180.194 45.2029 151.911 42.4764 142.005 49.7957L137.521 38.7741Z" fill="#F86D70"/>
<path opacity="0.1" d="M137.521 38.7741C137.521 38.7741 152.424 30.8326 198.708 39.3414C244.994 47.8501 271.862 41.0431 271.862 41.0431V49.93C271.862 49.93 219.932 54.657 200.063 49.93C180.194 45.2029 151.911 42.4764 142.005 49.7957L137.521 38.7741Z" fill="black"/>
<path d="M137.973 39.1523C137.973 39.1523 152.424 31.2109 198.708 39.7196C244.994 48.2282 271.41 41.4213 271.41 41.4213L271.636 49.5518C271.636 49.5518 220.158 54.2788 200.289 49.5518C180.421 44.8247 152.363 41.5309 142.457 48.8502L137.973 39.1523Z" fill="#F86D70"/>
<path d="M132.541 51.3669C132.541 51.3669 117.639 59.3084 71.3535 50.7998C25.0681 42.291 27.3259 49.098 27.3259 49.098V40.2112C27.3259 40.2112 50.13 35.4841 69.9988 40.2112C89.8677 44.9382 118.152 47.6647 128.057 40.3454L132.541 51.3669Z" fill="#F86D70"/>
<path opacity="0.1" d="M132.541 51.3669C132.541 51.3669 117.639 59.3084 71.3535 50.7998C25.0681 42.291 27.3259 49.098 27.3259 49.098V40.2112C27.3259 40.2112 50.13 35.4841 69.9988 40.2112C89.8677 44.9382 118.152 47.6647 128.057 40.3454L132.541 51.3669Z" fill="black"/>
<path d="M132.089 50.9888C132.089 50.9888 117.639 58.9303 71.3536 50.4216C25.0681 41.9128 27.7775 48.7199 27.7775 48.7199L27.5518 40.5894C27.5518 40.5894 49.9041 35.8623 69.773 40.5894C89.6419 45.3164 117.7 48.6102 127.605 41.2908L132.089 50.9888Z" fill="#F86D70"/>
<path d="M144.351 23.8613C144.125 22.6815 143.777 21.1952 144.957 20.5202C145.378 20.3067 145.863 20.2016 146.353 20.2177C148.795 20.1969 151.128 21.6206 153.52 21.2047C154.281 21.0711 154.981 20.756 155.534 20.2973C156.087 19.8387 156.47 19.2562 156.636 18.6196C156.803 17.9831 156.748 17.3197 156.475 16.7094C156.203 16.0989 155.725 15.5674 155.101 15.1787C154.16 14.5925 152.97 14.3807 151.818 14.1823C148.79 13.6604 145.63 13.1405 142.64 13.8041C139.65 14.4678 136.919 16.7121 137.157 19.2874C137.27 20.5202 138.02 21.6396 138.805 22.6909C139.399 23.4887 141.721 27.2289 142.847 27.2855C144.437 27.363 144.508 24.6328 144.351 23.8613Z" fill="#3F3D56"/>
<path d="M163.373 59.2896C163.373 59.2896 147.795 62.5039 142.602 59.2896C142.602 59.2896 140.344 66.6636 141.02 70.4453C141.02 70.4453 152.085 71.0126 153.213 71.5797C153.213 71.5797 153.439 70.0671 154.568 70.8234C154.568 70.8234 158.407 67.0419 165.406 70.4453C165.406 70.4453 166.759 61.5585 163.373 59.2896Z" fill="#6C63FF"/>
<path opacity="0.1" d="M155.106 15.1786C154.944 15.0811 154.777 14.9927 154.602 14.9139C155.068 15.3575 155.386 15.8956 155.527 16.4747C155.666 17.0538 155.623 17.6534 155.398 18.2136C155.174 18.7739 154.779 19.2751 154.252 19.6673C153.723 20.0595 153.083 20.3288 152.391 20.4483C149.998 20.8643 147.667 19.4405 145.225 19.4614C144.734 19.4453 144.249 19.5504 143.828 19.7638C142.649 20.4389 142.995 21.925 143.221 23.1049C143.369 23.8763 143.308 26.6067 141.723 26.533H141.696C142.132 26.9774 142.539 27.278 142.852 27.2893C144.433 27.363 144.498 24.6422 144.35 23.8613C144.124 22.6814 143.778 21.1952 144.957 20.5201C145.378 20.3067 145.863 20.2016 146.354 20.2177C148.796 20.1968 151.128 21.6206 153.52 21.2047C154.282 21.0711 154.981 20.756 155.534 20.2973C156.087 19.8387 156.47 19.2561 156.637 18.6195C156.804 17.9831 156.748 17.3197 156.475 16.7092C156.204 16.0988 155.725 15.5673 155.101 15.1786H155.106Z" fill="black"/>
<defs>
<linearGradient id="paint0_linear" x1="-3.97652e-08" y1="181.091" x2="353.708" y2="172.379" gradientUnits="userSpaceOnUse">
<stop stop-color="white"/>
<stop offset="1" stop-color="white" stop-opacity="0.26"/>
</linearGradient>
<linearGradient id="paint1_linear" x1="-3.97652e-08" y1="244.418" x2="353.708" y2="235.705" gradientUnits="userSpaceOnUse">
<stop stop-color="white" stop-opacity="0.31"/>
<stop offset="1" stop-color="white" stop-opacity="0.73"/>
</linearGradient>
<linearGradient id="paint2_linear" x1="-3.97652e-08" y1="307.744" x2="353.708" y2="299.032" gradientUnits="userSpaceOnUse">
<stop stop-color="white"/>
<stop offset="0.291667" stop-color="white" stop-opacity="0.722917"/>
<stop offset="1" stop-color="white" stop-opacity="0.05"/>
</linearGradient>
<linearGradient id="paint3_linear" x1="-3.97652e-08" y1="371.07" x2="353.708" y2="362.358" gradientUnits="userSpaceOnUse">
<stop stop-color="white"/>
<stop offset="1" stop-color="white" stop-opacity="0.51"/>
</linearGradient>
<linearGradient id="paint4_linear" x1="-3.97652e-08" y1="434.397" x2="353.708" y2="425.685" gradientUnits="userSpaceOnUse">
<stop stop-color="white"/>
<stop offset="1" stop-color="white" stop-opacity="0.51"/>
</linearGradient>
<linearGradient id="paint5_linear" x1="33.1064" y1="257.452" x2="33.1064" y2="219.187" gradientUnits="userSpaceOnUse">
<stop stop-color="#808080" stop-opacity="0.25"/>
<stop offset="0.54" stop-color="#808080" stop-opacity="0.12"/>
<stop offset="1" stop-color="#808080" stop-opacity="0.1"/>
</linearGradient>
<linearGradient id="paint6_linear" x1="8044.59" y1="6725.82" x2="8044.59" y2="2797.27" gradientUnits="userSpaceOnUse">
<stop stop-color="#808080" stop-opacity="0.25"/>
<stop offset="0.54" stop-color="#808080" stop-opacity="0.12"/>
<stop offset="1" stop-color="#808080" stop-opacity="0.1"/>
</linearGradient>
<linearGradient id="paint7_linear" x1="10046.3" y1="32200.2" x2="10046.3" y2="28271.7" gradientUnits="userSpaceOnUse">
<stop stop-color="#808080" stop-opacity="0.25"/>
<stop offset="0.54" stop-color="#808080" stop-opacity="0.12"/>
<stop offset="1" stop-color="#808080" stop-opacity="0.1"/>
</linearGradient>
<linearGradient id="paint8_linear" x1="10046.3" y1="25920.3" x2="10046.3" y2="21992.1" gradientUnits="userSpaceOnUse">
<stop stop-color="#808080" stop-opacity="0.25"/>
<stop offset="0.54" stop-color="#808080" stop-opacity="0.12"/>
<stop offset="1" stop-color="#808080" stop-opacity="0.1"/>
</linearGradient>
<linearGradient id="paint9_linear" x1="10046.3" y1="19511.1" x2="10046.3" y2="15582.5" gradientUnits="userSpaceOnUse">
<stop stop-color="#808080" stop-opacity="0.25"/>
<stop offset="0.54" stop-color="#808080" stop-opacity="0.12"/>
<stop offset="1" stop-color="#808080" stop-opacity="0.1"/>
</linearGradient>
<linearGradient id="paint10_linear" x1="113200" y1="963.745" x2="113200" y2="589.459" gradientUnits="userSpaceOnUse">
<stop stop-color="#808080" stop-opacity="0.25"/>
<stop offset="0.54" stop-color="#808080" stop-opacity="0.12"/>
<stop offset="1" stop-color="#808080" stop-opacity="0.1"/>
</linearGradient>
<linearGradient id="paint11_linear" x1="113200" y1="3053.73" x2="113200" y2="2679.45" gradientUnits="userSpaceOnUse">
<stop stop-color="#808080" stop-opacity="0.25"/>
<stop offset="0.54" stop-color="#808080" stop-opacity="0.12"/>
<stop offset="1" stop-color="#808080" stop-opacity="0.1"/>
</linearGradient>
<linearGradient id="paint12_linear" x1="113200" y1="4995.39" x2="113200" y2="4621.1" gradientUnits="userSpaceOnUse">
<stop stop-color="#808080" stop-opacity="0.25"/>
<stop offset="0.54" stop-color="#808080" stop-opacity="0.12"/>
<stop offset="1" stop-color="#808080" stop-opacity="0.1"/>
</linearGradient>
<linearGradient id="paint13_linear" x1="113200" y1="7014.67" x2="113200" y2="6640.4" gradientUnits="userSpaceOnUse">
<stop stop-color="#808080" stop-opacity="0.25"/>
<stop offset="0.54" stop-color="#808080" stop-opacity="0.12"/>
<stop offset="1" stop-color="#808080" stop-opacity="0.1"/>
</linearGradient>
<linearGradient id="paint14_linear" x1="113200" y1="8996.75" x2="113200" y2="8622.46" gradientUnits="userSpaceOnUse">
<stop stop-color="#808080" stop-opacity="0.25"/>
<stop offset="0.54" stop-color="#808080" stop-opacity="0.12"/>
<stop offset="1" stop-color="#808080" stop-opacity="0.1"/>
</linearGradient>
</defs>
</svg>
